<svg xmlns="http://www.w3.org/2000/svg" viewBox="0 0 24 24" enable-background="new 0 0 24 24"><g fill="#fff"><path d="M19 3h-11c-1.654 0-3 1.346-3 3v1h-1c-.553 0-1 .448-1 1s.447 1 1 1h1v2h-1c-.553 0-1 .448-1 1s.447 1 1 1h1v2h-1c-.553 0-1 .448-1 1s.447 1 1 1h1v1c0 1.654 1.346 3 3 3h11c1.654 0 3-1.346 3-3v-12c0-1.654-1.346-3-3-3m-12 3c0-.551.449-1 1-1v2h-1v-1m0 3h1v2h-1v-2m0 4h1v2h-1v-2m0 5v-1h1v2c-.551 0-1-.449-1-1m13 0c0 .551-.449 1-1 1h-10v-14h10c.551 0 1 .449 1 1v12"/><circle cx="14" cy="10.5" r="2"/><path d="M14 13.355c-1.562 0-2.5.715-2.5 1.43 0 .357.938.715 2.5.715 1.466 0 2.5-.357 2.5-.715 0-.715-.98-1.43-2.5-1.43"/></g></svg>