<svg xmlns="http://www.w3.org/2000/svg" width="64" height="64"><path d="M55.485 13.786c0-3.68-5.542-4.09-5.542-4.09l-13.021-.819s-.278-3.546-2.912-4.774c-2.63-1.226-5.523-.854-7.6-.832s-2.573 2.675-2.573 5.178.048 5.382.048 7.2c0 3.251-1.43 4.637-5.011 4.637h-7.382c-2.064-.134-3.674.205-3.674 1.875 0 1.667 2.432 15.91 5.766 19.197 1.936 1.907 13.773 3.245 16.266 3.245s1.664-7.363 2.355-7.363 1.456 4.16 5.382 5.133c3.926.979 9.168.797 9.446 3.59.362 3.686.691 8.458-1.734 8.797l-5.488.218c-3.763-.272-2.755-4.381-1.094-4.381l2.493-.067.208-4.499s-8.618-1.018-8.986 4.797c-.333 5.312.579 7.818 1.248 8.362.672.55 1.83 1.613 12.384 1.613 14.87 0 9.421-43.338 9.421-47.014zm-6.077 19.241c-.582.621-2.694-1.027-4.71-1.027-2.019 0-4.198 1.069-4.71.368-.509-.704.47-6.374 4.272-6.374s5.734 6.41 5.149 7.034zm-30.838-19.696c0-.726.189-9.549.189-9.549l-11.219 11.005h9.27c1.526 0 1.76-.726 1.76-1.456z" fill="#fff"/></svg>