<?xml version="1.0" encoding="utf-8"?>
<!-- Generator: Adobe Illustrator 17.0.0, SVG Export Plug-In . SVG Version: 6.00 Build 0)  -->
<!DOCTYPE svg PUBLIC "-//W3C//DTD SVG 1.1//EN" "http://www.w3.org/Graphics/SVG/1.1/DTD/svg11.dtd">
<svg version="1.1" id="Calque_1" xmlns="http://www.w3.org/2000/svg" xmlns:xlink="http://www.w3.org/1999/xlink" x="0px" y="0px"
	 width="250px" height="333px" viewBox="0 0 250 333" enable-background="new 0 0 250 333" xml:space="preserve">
<g id="Calque_1_1_">
	<path fill="#91BCCC" d="M248.704,81L179,11.296L177.704,10H21.462C14.948,10,9,14.751,9,21.319v299.289
		C9,327.176,14.948,333,21.462,333h216.243c6.514,0,11.295-5.824,11.295-12.392V81.296L248.704,81z"/>
	<g>
		<path fill="#3FA0C2" d="M182.462,71C175.948,71,170,65.176,170,58.608V1.296L168.704,0H12.462C5.948,0,0,4.751,0,11.319v299.289
			C0,317.176,5.948,323,12.462,323h216.243c6.514,0,11.295-5.824,11.295-12.392V71.296L239.704,71H182.462z"/>
		<path fill="#FFFFFF" d="M182.462,71h57.242L170,1.296v57.311C170,65.176,175.948,71,182.462,71z"/>
	</g>
	<text transform="matrix(1 0 0 1 24.8049 157.2866)" fill="#FFFFFF" font-family="'Palatino-Roman'" font-size="154.8623">w</text>
	<rect x="25" y="196" fill="#79C7E3" width="191" height="10"/>
	<rect x="25" y="221" fill="#79C7E3" width="191" height="10"/>
	<rect x="25" y="245" fill="#79C7E3" width="191" height="10"/>
	<rect x="25" y="269" fill="#79C7E3" width="191" height="10"/>
</g>
<g id="Calque_2">
</g>
</svg>
