<svg xmlns="http://www.w3.org/2000/svg" viewBox="0 0 250 333" enable-background="new 0 0 250 333" xmlns:xlink="http://www.w3.org/1999/xlink"><defs><linearGradient id="5" gradientUnits="userSpaceOnUse" x1="18.478" y1="46.746" x2="44.39" y2="49.653" gradientTransform="matrix(38.048 0 0-40.7505-682.45 1950.41)"><stop stop-color="#fff"/><stop offset="1" stop-color="#ededed"/></linearGradient><linearGradient id="4" gradientUnits="userSpaceOnUse" x1="18.222" y1="46.612" x2="25.82" y2="17.13" gradientTransform="matrix(43.5901 0 0-34.2646-770.57 1626.57)" xlink:href="#0"/><linearGradient id="6" gradientUnits="userSpaceOnUse" x1="19.447" y1="56.09" x2="24.528" y2="53.617" gradientTransform="matrix(27.7539 0 0 27.8235-520.47-1503.18)"><stop stop-color="#fff"/><stop offset="1" stop-color="#fff" stop-opacity="0"/></linearGradient><linearGradient id="3" gradientUnits="userSpaceOnUse" x1="18.626" y1="46.665" x2="20.863" y2="47.19" gradientTransform="matrix(35.9692 0 0-39.9798-648.01 1911.47)" xlink:href="#0"/><linearGradient id="1" gradientUnits="userSpaceOnUse" x1="17.432" y1="57.779" x2="18.198" y2="72.68" gradientTransform="matrix(68.1305 0 0 21.2015-1162.83-1172.6)"><stop stop-color="#dfe0df"/><stop offset=".238" stop-color="#a6b0a6"/><stop offset="1" stop-color="#b5beb5"/></linearGradient><linearGradient id="0" gradientUnits="userSpaceOnUse" x1="18.49" y1="53.32" x2="25.821" y2="75.918" gradientTransform="matrix(37.2873 0 0 41.8967-669.94-2207.3)"><stop stop-color="#fff"/><stop offset="1" stop-color="#e2e2e2"/></linearGradient><radialGradient id="2" cx="23.425" cy="59.44" r="19.11" gradientTransform="matrix(17.483 12.7496-4.1091 6.9142-134.9-655.1)" gradientUnits="userSpaceOnUse"><stop stop-opacity=".129"/><stop offset="1" stop-opacity="0"/></radialGradient></defs><path fill="#6a6c6d" d="M248.704,81L179,11.296L177.704,10H21.462C14.948,10,9,14.751,9,21.319v299.289
		C9,327.176,14.948,333,21.462,333h216.243c6.514,0,11.295-5.824,11.295-12.393V81.296L248.704,81z"/><path fill="#d2d7d8" d="M182.462,71C175.947,71,170,65.176,170,58.608V1.296L168.704,0H12.462C5.948,0,0,4.751,0,11.319v299.289
			C0,317.176,5.948,323,12.462,323h216.243c6.514,0,11.295-5.824,11.295-12.393V71.296L239.704,71H182.462z"/><path fill="#fff" d="m182.46 71h57.24l-69.7-69.7v57.31c0 6.569 5.947 12.393 12.462 12.393"/><text transform="translate(20.5 101.42)" fill="#6a6c6d" font-family="&apos;MyriadPro-Semibold&apos;" font-size="57.71">MAIL</text><path fill="#d1cabc" d="m50.12 166.68c-.095.044-.19.088-.282.132.094-.044.187-.088.282-.132"/><g transform="matrix(5.2682 0 0 5.2748-20.798-68.901)"><path fill="url(#0)" stroke="#888a85" stroke-width=".995" stroke-linejoin="round" d="m7.086 37.606v27.612h39.28l-.066-27.507v-.036c-.002-.006.002-.028 0-.036-.002-.007-.03-.028-.034-.035h-39.18v.002z"/><path fill="url(#1)" d="m22.12 52.06l-14.235 11.659 14.778-10.207h9.582l13.196 10.08-12.605-11.528h-10.716"/><path fill="none" stroke="#fff" stroke-width=".995" d="m8.148 38.965c-.008.013.006.021 0 .032-.002.006-.032.028-.034.034-.002.006.002.028 0 .034-.002.004 0 .028 0 .032l.034 24.941h37.12l-.065-24.806c-.002-.004.002-.03 0-.034-.017-.051-.045-.141-.1-.234h-36.957v.001z"/><path fill="url(#2)" d="m25.13 56.24c-2.542-.474-16.394-15.12-17.779-17.665-.017-.03-.043-.088-.056-.114h36.672c-.294 2.658-7.995 17.537-10.16 17.779h-.032-8.52c-.035 0-.082.007-.125 0"/><path fill="url(#3)" stroke="#989898" stroke-width=".852" stroke-linejoin="round" d="m22.421 54.21c-2.516-.417-13.633-13.247-14.511-15.479-.009-.026-.026-.077-.032-.101h37.766c-.875 2.33-12.01 15.369-14.287 15.58-.009 0-.022 0-.032 0h-8.775c-.038 0-.088.007-.129 0z"/><path fill="url(#4)" d="m22.261 53.58c-2.238-.521-13.709-13.284-14.444-14.902-.002-.006.002-.028 0-.034-.006-.017-.03-.057-.034-.069 0-.004 0-.03 0-.034.002-.002.032.002.034 0l.099-.103h37.688c-.004.026-.024.071-.034.103-.009.026-.022.075-.034.103-.98 2.317-12.227 14.628-14.178 14.935-.017.002-.052 0-.067 0h-8.898c-.03.001-.094.01-.132.001"/><path fill="none" stroke="url(#5)" stroke-width=".852" d="m22.526 53.11c-2.602-.583-12.932-12.343-14.179-14.45h36.758c-1.584 2.48-11.738 14.251-13.98 14.45-.009.002-.024 0-.034 0h-8.401c-.028 0-.068.004-.099 0-.019-.002-.043.006-.065 0z"/><path fill="url(#6)" d="m22.615 53.53l-12.69 8.789 2.358.006 10.624-7.299 9.372-1.513-9.664.017"/></g></svg>