<svg xmlns="http://www.w3.org/2000/svg" width="206.17" viewBox="0 0 206.171 273.999" enable-background="new 0 0 206.171 273.999"><g fill="#0098ff"><path d="m5.999 0c44.994 0 89.989 0 134.98 0-.037 15.448-.115 30.897-.095 46.34.01 7.584 4.13 11.61 11.695 11.655 13.951.082 27.902.132 41.852.258 1.7.015 3.775-.75 4.811 1.525-.072 24.635-.186 49.27-.208 73.905-.036 40.29.006 80.57-.026 120.86-.007 8.992-3.304 12.482-11.717 12.483-59.763.005-119.53-.016-179.29-.029-3.066-2.282-5.961-4.733-8.01-8.03.002-84.32.002-168.65.002-252.97 1.867-2.133 3.262-4.737 5.999-5.999m115.95 182.73c-.505-4.605.15-9.197-3.272-13.532-10.309-13.06-20.14-26.502-29.967-39.932-2.086-2.85-4.534-4.664-7.78-5.844-10.01-3.637-19.966-7.417-29.937-11.156-2.504-.939-5.164-2.378-7.232.477-2.118 2.925-.372 5.21 1.663 7.462 7.593 8.401 15.1 16.883 22.635 25.334 3.997 4.481 3.992 4.46-1.926 6.221-14.672 4.366-29.328 8.784-44.01 13.11-4.154 1.223-8.04 2.727-8.973 7.561-.981 5.088.329 9.266 4.665 12.68 11.584 9.122 22.932 18.544 34.435 27.77 2.93 2.35 6.215 3.694 10.06 2.065 17.832-7.551 35.684-15.05 53.5-22.647 4.103-1.747 7.112-4.403 6.14-9.568"/><path d="m26.779 170.84c7.399-2.371 13.537-4.321 19.659-6.318 1.058-.345 1.951-.172 2.831.403 10.704 6.995 21.408 13.991 33.08 21.617-7.657 2.872-14.41 5.379-21.14 7.949-1.336.51-2.258-.128-3.193-.81-10.07-7.348-20.12-14.711-31.23-22.841"/><path d="m108.49 176.64c-6.959 2.631-13.152 4.97-19.343 7.314-.998.378-1.981.339-2.869-.238-10.694-6.947-21.379-13.909-32.685-21.269 6.666-2.161 12.499-4.04 18.324-5.948 1.01-.329 1.912-.314 2.855.244 10.99 6.5 21.991 12.981 33.718 19.897"/><path d="m51.26 200.45c-.087 1.649-.025 3.74-2.113 3.854-2.2.12-2.258-1.959-2.258-3.621 0-1.661.047-3.657 2.282-3.604 1.847.044 1.983 1.861 2.089 3.371"/><path d="m44.732 62.11c.761-2.411-1.817-6.465 3.753-6.168 5.6.298 8.625 2.45 8.524 6.828-.093 4.04-2.848 5.892-7.904 6.287-6.526.509-3.513-4.284-4.373-6.947"/></g><path fill="#8fb8c9" d="m199.25 59.783c5.347 3.739 6.957 8.679 6.925 15.315-.29 60.948-.19 121.9-.239 182.85-.012 15.08-.902 16.03-15.706 16.04-56.786.024-113.57-.069-170.36.013-5.593.008-9.788-1.473-11.862-6.999 59.764.013 119.53.035 179.29.03 8.412-.001 11.71-3.491 11.717-12.483.031-40.29-.01-80.57.026-120.86.021-24.636.135-49.27.207-73.906"/><path fill="#fdfcfa" d="m121.95 182.73c.972 5.164-2.038 7.82-6.139 9.569-17.814 7.593-35.666 15.1-53.5 22.647-3.847 1.629-7.132.285-10.06-2.065-11.503-9.226-22.851-18.648-34.435-27.77-4.336-3.414-5.647-7.593-4.665-12.68.932-4.834 4.82-6.337 8.973-7.561 14.684-4.325 29.34-8.743 44.01-13.11 5.918-1.761 5.923-1.74 1.926-6.221-7.538-8.451-15.04-16.932-22.635-25.334-2.035-2.252-3.782-4.537-1.663-7.462 2.067-2.855 4.728-1.416 7.232-.477 9.971 3.739 19.928 7.52 29.937 11.156 3.246 1.179 5.694 2.994 7.78 5.844 9.83 13.429 19.658 26.872 29.967 39.932 3.422 4.335 2.766 8.927 3.271 13.531m-95.17-11.89c11.11 8.13 21.17 15.493 31.24 22.84.934.682 1.857 1.32 3.193.81 6.728-2.571 13.481-5.077 21.14-7.949-11.668-7.626-22.372-14.622-33.08-21.617-.88-.575-1.773-.748-2.831-.403-6.123 1.998-12.261 3.948-19.66 6.319m81.71 5.798c-11.727-6.916-22.728-13.397-33.718-19.898-.942-.557-1.848-.573-2.855-.244-5.825 1.906-11.658 3.787-18.324 5.948 11.305 7.36 21.99 14.322 32.685 21.269.888.577 1.871.615 2.869.238 6.191-2.343 12.384-4.683 19.343-7.313m-57.23 23.809c-.105-1.505-.241-3.322-2.088-3.365-2.234-.053-2.282 1.943-2.282 3.604 0 1.661.057 3.74 2.258 3.621 2.088-.114 2.026-2.206 2.112-3.86"/><g fill="#fff"><path d="m24.693 56.24v33.702h-6.15v-33.702h6.15"/><path d="m60.19 76.19c-.2-4.35-.45-9.601-.4-14.15h-.15c-1.1 4.101-2.5 8.651-4 12.901l-4.9 14.601h-4.75l-4.5-14.401c-1.3-4.3-2.5-8.901-3.4-13.1h-.1c-.15 4.4-.35 9.751-.6 14.351l-.75 13.551h-5.75l2.25-33.702h8.101l4.4 13.551c1.2 3.95 2.25 7.951 3.1 11.701h.15c.9-3.65 2.05-7.8 3.35-11.75l4.65-13.501h8l1.95 33.702h-6l-.651-13.752"/><path d="m100.09 88.4c-2.15.8-6.35 1.9-10.851 1.9-5.7 0-10-1.45-13.201-4.5-3-2.85-4.75-7.3-4.7-12.4 0-10.651 7.6-17.501 18.751-17.501 4.15 0 7.4.85 8.951 1.6l-1.35 4.951c-1.85-.8-4.101-1.45-7.65-1.45-7.201 0-12.251 4.25-12.251 12.1 0 7.65 4.7 12.201 11.701 12.201 2.2 0 3.85-.3 4.65-.7v-8.401h-5.95v-4.85h11.9v17.05"/></g></svg>