<?xml version="1.0" encoding="utf-8"?>
<!-- Generator: Adobe Illustrator 16.0.0, SVG Export Plug-In . SVG Version: 6.00 Build 0)  -->
<!DOCTYPE svg PUBLIC "-//W3C//DTD SVG 1.1//EN" "http://www.w3.org/Graphics/SVG/1.1/DTD/svg11.dtd">
<svg version="1.1" id="Calque_1" xmlns="http://www.w3.org/2000/svg" xmlns:xlink="http://www.w3.org/1999/xlink" x="0px" y="0px"
	 width="250px" height="333px" viewBox="0 0 250 333" enable-background="new 0 0 250 333" xml:space="preserve">
<g id="Calque_1_1_">
	<path fill="#6A6C6D" d="M248.704,81L179,11.296L177.704,10H21.462C14.948,10,9,14.751,9,21.319v299.289
		C9,327.176,14.948,333,21.462,333h216.243c6.514,0,11.295-5.824,11.295-12.393V81.296L248.704,81z"/>
	<g>
		<path fill="#D2D7D8" d="M182.462,71C175.947,71,170,65.176,170,58.608V1.296L168.704,0H12.462C5.948,0,0,4.751,0,11.319v299.289
			C0,317.176,5.948,323,12.462,323h216.243c6.514,0,11.295-5.824,11.295-12.393V71.296L239.704,71H182.462z"/>
		<path fill="#FFFFFF" d="M182.462,71h57.242L170,1.296v57.311C170,65.176,175.947,71,182.462,71z"/>
	</g>
</g>
<g id="Calque_2">
</g>
<text transform="matrix(1 0 0 1 20.4995 101.416)" fill="#6A6C6D" font-family="'MyriadPro-Semibold'" font-size="57.7095">MAIL</text>
<path display="none" fill="#2CB532" d="M109.979,238.312c0.468-0.439,1.314-1.178,2.096-1.976
	c13.817-14.101,27.536-28.302,41.524-42.233c2.598-2.588,6.155-4.324,9.49-6.023c2.266-1.153,4.624-0.536,6.465,1.509
	c1.721,1.914,3.442,3.859,5.381,5.541c2.865,2.486,3.096,5.412,1.479,8.444c-1.643,3.08-3.279,6.357-5.674,8.811
	c-16.926,17.334-34.051,34.477-51.101,51.688c-1.072,1.081-2.041,2.265-3.108,3.352c-4.093,4.171-8.696,4.474-13.07,0.515
	c-3.673-3.326-7.049-6.978-10.548-10.494c-7.001-7.037-14.11-13.971-20.922-21.187c-2.073-2.196-3.509-5.077-4.884-7.821
	c-1.141-2.277-0.2-4.459,1.477-6.23c1.965-2.076,4.001-4.085,6.015-6.114c3.733-3.759,7.13-4.308,11.305-0.876
	c3.947,3.246,7.278,7.232,10.974,10.794C101.122,230.102,105.47,234.087,109.979,238.312z"/>
<g id="bMFqZH.tif" display="none">
	<g display="inline">
		<path fill="#1887B2" d="M115.884,246c0-6.098,0-11.949,0-17.904c-17.73,0-35.331,0-52.991,0c0-9.71,0-19.315,0-29.025
			c17.632,0,35.233,0,52.961,0c0-5.955,0-11.807,0-17.945c20.587,10.872,40.927,21.613,61.442,32.447
			C156.811,224.391,136.48,235.125,115.884,246z"/>
	</g>
</g>
<g id="exVrXS.tif" display="none">
	<g display="inline">
		<path fill="#C11717" d="M172.275,222.111c-0.215,25.729-20.57,45.582-45.424,45.636c-26.332,0.056-45.861-21.099-45.823-45.575
			c0.041-25.745,20.879-46.109,46.479-45.611C152.624,177.049,172.042,197.223,172.275,222.111z M109.589,195.037
			c14.751,14.745,29.478,29.465,44.195,44.177c7.028-10.657,7.515-27.679-4.425-39.696
			C137.795,187.876,120.677,187.723,109.589,195.037z M99.269,205.497c-7.271,11.394-6.769,28.991,5.842,40.435
			c12.28,11.143,28.834,9.821,38.17,3.573C128.613,234.839,113.938,220.165,99.269,205.497z"/>
	</g>
</g>
<g id="iPoo2X.tif" display="none">
	<g display="inline">
		<path fill="#2CB532" d="M121.214,268.066c-9.487-0.26-18.238-2.943-26.445-7.422c-14.235-7.771-25.644-18.57-34.384-32.258
			c-2.654-4.156-2.694-7.908-0.094-12.09c4.97-7.996,11.056-14.999,18.073-21.214c7.543-6.681,15.853-12.136,25.387-15.61
			c13.039-4.75,25.916-4.169,38.493,1.457c16.51,7.385,29.29,19.121,39.201,34.17c3.269,4.963,3.265,9.508,0.045,14.5
			c-6.731,10.435-15.307,19.002-25.438,26.065c-7.515,5.237-15.644,9.202-24.671,11.038
			C128.038,267.384,124.606,267.626,121.214,268.066z M154.282,222.018c-0.111-18.632-14.933-33.213-33.658-33.113
			c-17.838,0.097-32.685,15.152-32.573,33.029c0.117,18.625,14.927,33.396,33.362,33.277
			C139.576,255.094,154.391,240.133,154.282,222.018z"/>
		<path fill="#2CB532" d="M104.434,214.27c5.489,2.559,10.9,5.08,16.653,7.76c-2.157-5.951-4.201-11.592-6.244-17.227
			c5.607-2.672,15.337-1.568,21.052,6.039c5.676,7.557,4.879,17.977-1.785,24.43c-6.801,6.586-17.361,7.127-24.58,1.28
			C101.619,230.143,101.248,219.99,104.434,214.27z"/>
	</g>
</g>
<path fill="#D1CABC" d="M50.12,166.681c-0.095,0.044-0.19,0.088-0.282,0.132C49.932,166.769,50.025,166.725,50.12,166.681"/>
<g transform="matrix(5.2682 0 0 5.2748 -20.798 -68.901)">
	
		<linearGradient id="path12723_1_" gradientUnits="userSpaceOnUse" x1="18.4899" y1="53.3178" x2="25.8214" y2="75.9181" gradientTransform="matrix(37.2873 0 0 41.8967 -669.9421 -2207.2952)">
		<stop  offset="0" style="stop-color:#FFFFFF"/>
		<stop  offset="1" style="stop-color:#E2E2E2"/>
	</linearGradient>
	<path id="path12723" fill="url(#path12723_1_)" stroke="#888A85" stroke-width="0.9947" stroke-linejoin="round" d="M7.086,37.606
		v27.612h39.281l-0.066-27.507v-0.036c-0.002-0.006,0.002-0.028,0-0.036c-0.002-0.007-0.03-0.028-0.034-0.035H7.086V37.606z"/>
	
		<linearGradient id="path1634_1_" gradientUnits="userSpaceOnUse" x1="17.4316" y1="57.7787" x2="18.1981" y2="72.6795" gradientTransform="matrix(68.1305 0 0 21.2015 -1162.827 -1172.5985)">
		<stop  offset="0" style="stop-color:#DFE0DF"/>
		<stop  offset="0.2381" style="stop-color:#A6B0A6"/>
		<stop  offset="1" style="stop-color:#B5BEB5"/>
	</linearGradient>
	<path id="path1634" fill="url(#path1634_1_)" d="M22.119,52.06L7.884,63.719l14.778-10.207h9.582L45.44,63.588L32.835,52.06H22.119
		L22.119,52.06z"/>
	<path id="path15103" fill="none" stroke="#FFFFFF" stroke-width="0.9947" d="M8.148,38.965c-0.008,0.013,0.006,0.021,0,0.032
		c-0.002,0.006-0.032,0.028-0.034,0.034c-0.002,0.006,0.002,0.028,0,0.034c-0.002,0.004,0,0.028,0,0.032l0.034,24.941H45.27
		l-0.065-24.806c-0.002-0.004,0.002-0.03,0-0.034c-0.017-0.051-0.045-0.141-0.1-0.234H8.148V38.965z"/>
	
		<radialGradient id="path2563_1_" cx="23.4251" cy="59.4433" r="19.105" gradientTransform="matrix(17.483 12.7496 -4.1091 6.9142 -134.8984 -655.0956)" gradientUnits="userSpaceOnUse">
		<stop  offset="0" style="stop-color:#000000;stop-opacity:0.1287"/>
		<stop  offset="1" style="stop-color:#000000;stop-opacity:0"/>
	</radialGradient>
	<path id="path2563" fill="url(#path2563_1_)" d="M25.133,56.244C22.591,55.77,8.739,41.128,7.354,38.579
		c-0.017-0.03-0.043-0.088-0.056-0.114h36.672c-0.294,2.658-7.995,17.537-10.16,17.779h-0.032h-8.52
		C25.223,56.244,25.176,56.251,25.133,56.244L25.133,56.244z"/>
	
		<linearGradient id="path1613_1_" gradientUnits="userSpaceOnUse" x1="18.6263" y1="46.6649" x2="20.8632" y2="47.1932" gradientTransform="matrix(35.9692 0 0 -39.9798 -648.0127 1911.4692)">
		<stop  offset="0" style="stop-color:#FFFFFF"/>
		<stop  offset="1" style="stop-color:#E2E2E2"/>
	</linearGradient>
	<path id="path1613" fill="url(#path1613_1_)" stroke="#989898" stroke-width="0.852" stroke-linejoin="round" d="M22.421,54.214
		C19.905,53.797,8.788,40.967,7.91,38.735c-0.009-0.026-0.026-0.077-0.032-0.101h37.766c-0.875,2.33-12.005,15.369-14.287,15.58
		c-0.009,0-0.022,0-0.032,0H22.55C22.512,54.214,22.462,54.221,22.421,54.214L22.421,54.214z"/>
	
		<linearGradient id="path18153_1_" gradientUnits="userSpaceOnUse" x1="18.2219" y1="46.6116" x2="25.8196" y2="17.1308" gradientTransform="matrix(43.5901 0 0 -34.2646 -770.5722 1626.5703)">
		<stop  offset="0" style="stop-color:#FFFFFF"/>
		<stop  offset="1" style="stop-color:#E2E2E2"/>
	</linearGradient>
	<path id="path18153" fill="url(#path18153_1_)" d="M22.261,53.58C20.023,53.059,8.552,40.296,7.817,38.678
		c-0.002-0.006,0.002-0.028,0-0.034c-0.006-0.017-0.03-0.057-0.034-0.069c0-0.004,0-0.03,0-0.034c0.002-0.002,0.032,0.002,0.034,0
		l0.099-0.103h37.688c-0.004,0.026-0.024,0.071-0.034,0.103c-0.009,0.026-0.022,0.075-0.034,0.103
		c-0.98,2.317-12.227,14.628-14.178,14.935c-0.017,0.002-0.052,0-0.067,0h-8.898C22.363,53.58,22.299,53.589,22.261,53.58
		L22.261,53.58z"/>
	
		<linearGradient id="path1616_1_" gradientUnits="userSpaceOnUse" x1="18.4777" y1="46.7464" x2="44.3909" y2="49.6532" gradientTransform="matrix(38.048 0 0 -40.7505 -682.4506 1950.407)">
		<stop  offset="0" style="stop-color:#FFFFFF"/>
		<stop  offset="1" style="stop-color:#EDEDED"/>
	</linearGradient>
	<path id="path1616" fill="none" stroke="url(#path1616_1_)" stroke-width="0.852" d="M22.526,53.113
		C19.924,52.53,9.594,40.77,8.347,38.663h36.758c-1.584,2.48-11.738,14.251-13.98,14.45c-0.009,0.002-0.024,0-0.034,0h-8.401
		c-0.028,0-0.068,0.004-0.099,0C22.572,53.111,22.548,53.119,22.526,53.113z"/>
	
		<linearGradient id="path1636_1_" gradientUnits="userSpaceOnUse" x1="19.4473" y1="56.0927" x2="24.5276" y2="53.6167" gradientTransform="matrix(27.7539 0 0 27.8235 -520.4736 -1503.1826)">
		<stop  offset="0" style="stop-color:#FFFFFF"/>
		<stop  offset="1" style="stop-color:#FFFFFF;stop-opacity:0"/>
	</linearGradient>
	<path id="path1636" fill="url(#path1636_1_)" d="M22.615,53.535l-12.69,8.789l2.358,0.006l10.624-7.299l9.372-1.513L22.615,53.535z
		"/>
</g>
</svg>
