<?xml version="1.0" encoding="utf-8"?>
<!-- Generator: Adobe Illustrator 17.0.0, SVG Export Plug-In . SVG Version: 6.00 Build 0)  -->
<!DOCTYPE svg PUBLIC "-//W3C//DTD SVG 1.1//EN" "http://www.w3.org/Graphics/SVG/1.1/DTD/svg11.dtd">
<svg version="1.1" id="Layer_1" xmlns="http://www.w3.org/2000/svg" xmlns:xlink="http://www.w3.org/1999/xlink" x="0px" y="0px"
	 width="206.171px" height="273.999px" viewBox="0 0 206.171 273.999" enable-background="new 0 0 206.171 273.999"
	 xml:space="preserve">
<g>
	<g>
		<path fill="#D3D3D3" d="M5.999,0c44.994,0,89.989,0,134.983,0c-0.037,15.448-0.115,30.897-0.095,46.345
			c0.01,7.584,4.13,11.61,11.695,11.655c13.951,0.082,27.902,0.132,41.852,0.258c1.7,0.015,3.775-0.75,4.811,1.525
			c-0.072,24.635-0.186,49.27-0.208,73.905c-0.036,40.286,0.006,80.572-0.026,120.858c-0.007,8.992-3.304,12.482-11.717,12.483
			c-59.763,0.005-119.527-0.016-179.29-0.029c-3.066-2.282-5.961-4.733-8.006-8.032C0,174.645,0,90.322,0,5.999
			C1.867,3.866,3.262,1.262,5.999,0z"/>
		<path fill="#D3D3D3" d="M44.732,62.109c0.761-2.411-1.817-6.465,3.753-6.168c5.6,0.298,8.625,2.45,8.524,6.828
			c-0.093,4.044-2.848,5.892-7.904,6.287C42.579,69.565,45.592,64.772,44.732,62.109z"/>
	</g>
	<path fill="#6D6D6D" d="M199.246,59.783c5.347,3.739,6.957,8.679,6.925,15.315c-0.29,60.948-0.19,121.898-0.239,182.848
		c-0.012,15.078-0.902,16.034-15.706,16.04c-56.786,0.024-113.572-0.069-170.358,0.013c-5.593,0.008-9.788-1.473-11.862-6.999
		c59.764,0.013,119.527,0.035,179.29,0.03c8.412-0.001,11.71-3.491,11.717-12.483c0.031-40.286-0.01-80.572,0.026-120.858
		C199.06,109.053,199.174,84.418,199.246,59.783z"/>
</g>
<g>
	<path fill="#FFFFFF" d="M18.543,56.244h19.451v5.05H24.693v9.301h12.401v5.05H24.693v14.301h-6.15V56.244z"/>
	<path fill="#FFFFFF" d="M50.142,56.244v33.702h-6.15V56.244H50.142z"/>
	<path fill="#FFFFFF" d="M57.192,56.244h6.15v28.552h13.851v5.15H57.192V56.244z"/>
	<path fill="#FFFFFF" d="M100.692,74.995h-12.7v9.9h14.201v5.05H81.841V56.244h19.602v5.05H87.991v8.701h12.7V74.995z"/>
</g>
<line fill="none" stroke="#FFFFFF" stroke-width="10" stroke-miterlimit="10" x1="17.509" y1="133.515" x2="178.19" y2="133.515"/>
<line fill="none" stroke="#FFFFFF" stroke-width="10" stroke-miterlimit="10" x1="17.509" y1="163.515" x2="178.19" y2="163.515"/>
<line fill="none" stroke="#FFFFFF" stroke-width="10" stroke-miterlimit="10" x1="17.509" y1="193.515" x2="178.19" y2="193.515"/>
<line fill="none" stroke="#FFFFFF" stroke-width="10" stroke-miterlimit="10" x1="17.509" y1="223.515" x2="178.19" y2="223.515"/>
</svg>
