<svg xmlns="http://www.w3.org/2000/svg" viewBox="-4.2 -0.9 255.3 336" enable-background="new -4.2 -0.9 255.3 336"><path fill="#f4b401" d="M233.9,333H16.1C7.2,333,0,325.8,0,316.9V16.1C0,7.2,7.2,0,16.1,0H168l82,81.9v235
		C250,325.8,242.8,333,233.9,333z"/><path fill="#dba749" d="M250 127.1 171.2 80.3 168 0 250 82z"/><path fill="#ffcf64" d="M167.7,0v72.8c0,5.2,4.2,9.5,9.5,9.5H250L167.7,0z"/><path fill="#fff" d="m153.6 134.6v58.2h-103.6v-58.2h103.6m8.8-14h-121.2c-2.9 0-5.2 2.3-5.2 5.2v75.7c0 2.9 2.3 5.2 5.2 5.2h121.2c2.9 0 5.2-2.3 5.2-5.2v-75.7c0-2.9-2.3-5.2-5.2-5.2z"/><path fill="#f4b401" d="m91.4 176h117.6v72.2h-117.6z"/><path fill="#fff" d="m202.1 183v58.2h-103.7v-58.2h103.7m8.7-14h-121.1c-2.9 0-5.2 2.3-5.2 5.2v75.8c0 2.9 2.3 5.2 5.2 5.2h121.2c2.9 0 5.2-2.3 5.2-5.2v-75.7c0-2.9-2.4-5.3-5.3-5.3z"/></svg>