<?xml version="1.0" encoding="utf-8"?>
<!-- Generator: Adobe Illustrator 16.0.0, SVG Export Plug-In . SVG Version: 6.00 Build 0)  -->
<!DOCTYPE svg PUBLIC "-//W3C//DTD SVG 1.1//EN" "http://www.w3.org/Graphics/SVG/1.1/DTD/svg11.dtd">
<svg version="1.1" id="Layer_1" xmlns="http://www.w3.org/2000/svg" xmlns:xlink="http://www.w3.org/1999/xlink" x="0px" y="0px"
	 width="97.017px" height="129.232px" viewBox="13.092 -0.553 97.017 129.232"
	 enable-background="new 13.092 -0.553 97.017 129.232" xml:space="preserve">
<path fill="#F4B401" d="M103.859,128.679H19.34c-3.454,0-6.248-2.795-6.248-6.248V5.702c0-3.454,2.794-6.248,6.248-6.248h58.946
	l31.822,31.783v91.188c0,3.455-2.795,6.249-6.248,6.249"/>
<path fill="#DBA749" d="M110.109,48.771L79.53,30.612l-1.242-31.16l31.821,31.821v17.501"/>
<path fill="#FFCF64" d="M78.169-0.551v28.25c0,2.02,1.631,3.687,3.688,3.687h28.25L78.167-0.553"/>
<path fill="#F4B401" d="M48.557,67.749h45.637v28.02H48.557V67.749"/>
<g>
	<path fill="#FFFFFF" d="M61.6,43.766c-14.358,0-26,11.642-26,26c0,14.359,11.641,26,26,26c14.358,0,25.999-11.641,25.999-26
		C87.599,55.408,75.96,43.766,61.6,43.766 M61.6,91.036c-11.748,0-21.272-9.523-21.272-21.271c0-11.749,9.524-21.272,21.272-21.272
		c11.749,0,21.271,9.523,21.271,21.272C82.873,81.511,73.349,91.036,61.6,91.036"/>
	<path fill="#FFFFFF" d="M71.22,63.37c-0.924-0.923-2.42-0.923-3.344,0l-8.356,8.355l-3.343-3.342c-0.923-0.924-2.419-0.924-3.342,0
		c-0.923,0.922-0.923,2.42,0,3.344l5.01,5.01c0.923,0.925,2.421,0.925,3.344,0l10.029-10.029c0.924-0.923,0.926-2.42,0.002-3.344"/>
</g>
</svg>
