<svg xmlns="http://www.w3.org/2000/svg" width="206.17" viewBox="0 0 206.171 273.999" enable-background="new 0 0 206.171 273.999"><g fill="#d3d3d3"><path d="m5.999 0c44.994 0 89.989 0 134.98 0-.037 15.448-.115 30.897-.095 46.34.01 7.584 4.13 11.61 11.695 11.655 13.951.082 27.902.132 41.852.258 1.7.015 3.775-.75 4.811 1.525-.072 24.635-.186 49.27-.208 73.905-.036 40.29.006 80.57-.026 120.86-.007 8.992-3.304 12.482-11.717 12.483-59.763.005-119.53-.016-179.29-.029-3.066-2.282-5.961-4.733-8.01-8.03.002-84.32.002-168.65.002-252.97 1.867-2.133 3.262-4.737 5.999-5.999"/><path d="m44.732 62.11c.761-2.411-1.817-6.465 3.753-6.168 5.6.298 8.625 2.45 8.524 6.828-.093 4.04-2.848 5.892-7.904 6.287-6.526.509-3.513-4.284-4.373-6.947"/></g><path fill="#6d6d6d" d="m199.25 59.783c5.347 3.739 6.957 8.679 6.925 15.315-.29 60.948-.19 121.9-.239 182.85-.012 15.08-.902 16.03-15.706 16.04-56.786.024-113.57-.069-170.36.013-5.593.008-9.788-1.473-11.862-6.999 59.764.013 119.53.035 179.29.03 8.412-.001 11.71-3.491 11.717-12.483.031-40.29-.01-80.57.026-120.86.021-24.636.135-49.27.207-73.906"/><g fill="#fff"><path d="M18.543,56.244h19.451v5.05H24.693v9.301h12.401v5.05H24.693v14.301h-6.15V56.244z"/><path d="m50.14 56.24v33.702h-6.15v-33.702h6.15"/><path d="m57.19 56.24h6.15v28.552h13.851v5.15h-20v-33.702"/><path d="m100.69 74.995h-12.7v9.9h14.201v5.05h-20.352v-33.701h19.602v5.05h-13.452v8.701h12.7v5"/></g><g fill="none" stroke="#fff" stroke-width="10" stroke-miterlimit="10"><path d="m17.509 133.51h160.68"/><path d="m17.509 163.51h160.68"/><path d="m17.509 193.51h160.68"/><path d="m17.509 223.51h160.68"/></g></svg>