<svg xmlns="http://www.w3.org/2000/svg" viewBox="836.5 -0.2 252.4 333.8" enable-background="new 836.5 -0.2 252.4 333.8"><path fill="#bc4943" d="m1072 333h-217.8c-8.9 0-16.1-7.2-16.1-16.1v-300.8c0-8.9 7.2-16.1 16.1-16.1h151.9l82 81.9v235c0 8.9-7.2 16.1-16.1 16.1"/><path fill="#7c404e" d="m1088.1 127.1l-78.8-46.8-3.2-80.3 82 82z"/><path fill="#c47a7c" d="M1005.8,0v72.8c0,5.2,4.2,9.5,9.5,9.5h72.8L1005.8,0z"/><path fill="#fff" d="m1062.8 216.5c-6.4 7.1-14.7 8-23.5 6.9-14.5-1.8-27.5-7.8-40.4-14.1-2.8-1.4-6.4-2.2-9.4-1.7-18.7 2.9-37.3 6.3-56 9.3-3 .5-4.4 1.6-5.5 4.4-6.7 18-19.9 29.2-37.6 35.4-6.9 2.4-11.1.1-14.9-7.2 0-2.1 0-4.3 0-6.4 7.5-13.2 17.9-23.7 32.6-27.8 10.4-2.9 14.3-10.4 17.7-18.6 7.3-17.5 13.8-35.2 20.5-52.9.5-1.4 0-3.6-.6-5.1-5-12.7-9.4-25.5-8.7-39.5.3-5.8 1.7-11.2 5.2-15.9 3-4 6-4.3 9.5-.7 6.7 7.1 9.1 16.2 10.9 25.3 2.2 11.1 1.2 21.9-3.8 32.2-.6 1.2-.4 3.3.3 4.6 9.1 19.7 22.8 35.7 40.3 48.4 1.8 1.3 4.5 1.4 6.9 1.6 12.4 1.3 24.9 2.3 37.3 3.8 8.2 1 14.8 5.3 19.3 12.4-.1 2-.1 3.8-.1 5.6m-78.5-20.6c-11.1-12.2-21.9-24-32.5-35.7-1.8 6.6-3.5 14.1-5.9 21.2-2.4 7.2-5.5 14.1-8.5 21.5 15.4-2.3 31.1-4.6 46.9-7m-72.2 24.7c-7.1 1.4-19.4 9.3-23.1 15.2-1 1.6-1.7 4.5-.9 5.8.7 1.2 3.8 1.8 5.6 1.5 9.8-1.5 18.4-12.2 18.4-22.5m103.7-18.4c9.6 10.1 30.9 15.7 39.5 10.3-11.6-10.7-25.8-9.8-39.5-10.3m-63.6-108.1c-3.4 12.1-.1 23.3 2.7 35 4.9-9.7 4.2-30.8-2.7-35"/></svg>