<?xml version="1.0" encoding="utf-8"?>
<!-- Generator: Adobe Illustrator 17.1.0, SVG Export Plug-In . SVG Version: 6.00 Build 0)  -->
<!DOCTYPE svg PUBLIC "-//W3C//DTD SVG 1.1//EN" "http://www.w3.org/Graphics/SVG/1.1/DTD/svg11.dtd">
<svg version="1.1" xmlns="http://www.w3.org/2000/svg" xmlns:xlink="http://www.w3.org/1999/xlink" x="0px" y="0px"
	 viewBox="285.2 370.7 250.9 335.3" enable-background="new 285.2 370.7 250.9 335.3" xml:space="preserve">
<g id="Calque_1">
</g>
<g id="Calque_2">
</g>
<g id="Calque_7">
</g>
<g id="Calque_3">
</g>
<g id="Calque_4">
</g>
<g id="Calque_5">
	<path fill="#019DED" d="M520.1,703.7H302.2c-8.9,0-16.1-7.2-16.1-16.1V386.8c0-8.9,7.2-16.1,16.1-16.1h151.9l82,81.9v235
		C536.1,696.5,528.9,703.7,520.1,703.7z"/>
	<polygon fill="#287EA6" points="536.1,497.8 457.4,451 454.2,370.7 536.1,452.7 	"/>
	<path fill="#A3E9F8" d="M453.9,370.7v72.8c0,5.2,4.2,9.5,9.5,9.5h72.8L453.9,370.7z"/>
	<g>
		<path fill="#FFFFFF" d="M326,559.3v-10.8l62.2-26.3v11.5L338.9,554l49.4,20.4v11.5L326,559.3z"/>
		<path fill="#FFFFFF" d="M395.5,602l27.2-97.2h9.2L404.8,602H395.5z"/>
		<path fill="#FFFFFF" d="M501.4,559.3l-62.2,26.6v-11.5l49.3-20.4l-49.3-20.3v-11.5l62.2,26.3V559.3z"/>
	</g>
</g>
<g id="Calque_6">
</g>
<g id="Calque_8">
</g>
</svg>
