<svg xmlns="http://www.w3.org/2000/svg" viewBox="1144.5 1.6 255.8 333.7" enable-background="new 1144.5 1.6 255.8 333.7"><path fill="#8732bc" d="m1380.5 334h-217.8c-8.9 0-16.1-7.2-16.1-16.1v-300.8c0-8.9 7.2-16.1 16.1-16.1h151.9l82 81.9v235c0 8.9-7.2 16.1-16.1 16.1"/><path fill="#51357c" d="m1396.6 128.1l-78.8-46.8-3.2-80.3 82 82z"/><path fill="#9768c4" d="M1314.3,1v72.8c0,5.2,4.2,9.5,9.5,9.5h72.8L1314.3,1z"/><path fill="#fff" d="m1274 248.2c-15.4 0-30.9 0-46.3 0-6.4 0-12.7-.1-19.1 0-3.3 0-5.6-2.5-5.5-5.5.1-5.5.1-11 0-16.5-.1-3.5 1.3-5 4.3-6.2 5.1-2.1 10.3-4.2 15.3-6.6 5.6-2.7 11.1-5.5 16.6-8.5 4.8-2.6 9.5-5.6 13.7-9.2 1.2-1.1 2.2-2.4 3.2-3.7.3-.4.4-1.1.5-1.7.1-.6-.1-1.3 0-1.9.1-1.2-.3-2-1.1-2.9-3.1-3.4-5.4-7.2-7.2-11.4-.9-2.1-1.5-4.2-2.3-6.4-.1-.3-.4-.6-.7-.8-4.7-3.7-5.8-10.8-2.3-15.7.3-.4.5-1 .5-1.6 0-4.7 0-9.4 0-14.2 0-3.4.2-6.8 1.2-10.2 1.8-6.4 5.5-11.4 11.3-14.6 5.1-2.8 10.6-3.8 16.3-3.9 3.6-.1 7.1.1 10.6.8 5.3 1.1 10.1 3.1 14 7 2.7 2.7 4.5 6 5.6 9.6 1.1 3.6 1.5 7.4 1.5 11.2 0 4.8 0 9.6 0 14.4 0 .5.2 1 .5 1.4 1.8 2.6 2.5 5.5 1.9 8.6-.5 2.9-1.9 5.3-4.2 7.2-.3.2-.5.5-.6.9-1.3 4.3-2.9 8.5-5.4 12.2-1.4 2.2-3.1 4.1-4.7 6.2-.2.3-.4.8-.5 1.2-.1.5 0 1.1 0 1.7-.3 2 .7 3.6 2 4.9 2.3 2.4 5 4.3 7.7 6.2 4.9 3.3 10 6.2 15.2 8.8 5.6 2.8 11.3 5.4 17 8 2.8 1.3 5.8 2.3 8.6 3.6 1.9.8 2.9 2.3 2.9 4.3.1 6.2.1 12.4 0 18.6 0 2.6-2.3 4.7-4.9 4.7-5.9 0-11.7 0-17.6 0-7.9 0-15.9 0-23.8 0-7.8 0-16 0-24.2 0"/></svg>