<?xml version="1.0" encoding="utf-8"?>
<!-- Generator: Adobe Illustrator 17.1.0, SVG Export Plug-In . SVG Version: 6.00 Build 0)  -->
<!DOCTYPE svg PUBLIC "-//W3C//DTD SVG 1.1//EN" "http://www.w3.org/Graphics/SVG/1.1/DTD/svg11.dtd">
<svg version="1.1" xmlns="http://www.w3.org/2000/svg" xmlns:xlink="http://www.w3.org/1999/xlink" x="0px" y="0px"
	 viewBox="1144.5 1.6 255.8 333.7" enable-background="new 1144.5 1.6 255.8 333.7" xml:space="preserve">
<g id="Calque_1">
</g>
<g id="Calque_2">
</g>
<g id="Calque_7">
</g>
<g id="Calque_3">
</g>
<g id="Calque_4">
</g>
<g id="Calque_5">
</g>
<g id="Calque_6">
</g>
<g id="Calque_8">
	<path fill="#8732BC" d="M1380.5,334h-217.8c-8.9,0-16.1-7.2-16.1-16.1V17.1c0-8.9,7.2-16.1,16.1-16.1h151.9l82,81.9v235
		C1396.6,326.8,1389.4,334,1380.5,334z"/>
	<polygon fill="#51357C" points="1396.6,128.1 1317.8,81.3 1314.6,1 1396.6,83 	"/>
	<path fill="#9768C4" d="M1314.3,1v72.8c0,5.2,4.2,9.5,9.5,9.5h72.8L1314.3,1z"/>
	<g>
		<path fill="#FFFFFF" d="M1274,248.2c-15.4,0-30.9,0-46.3,0c-6.4,0-12.7-0.1-19.1,0c-3.3,0-5.6-2.5-5.5-5.5c0.1-5.5,0.1-11,0-16.5
			c-0.1-3.5,1.3-5,4.3-6.2c5.1-2.1,10.3-4.2,15.3-6.6c5.6-2.7,11.1-5.5,16.6-8.5c4.8-2.6,9.5-5.6,13.7-9.2c1.2-1.1,2.2-2.4,3.2-3.7
			c0.3-0.4,0.4-1.1,0.5-1.7c0.1-0.6-0.1-1.3,0-1.9c0.1-1.2-0.3-2-1.1-2.9c-3.1-3.4-5.4-7.2-7.2-11.4c-0.9-2.1-1.5-4.2-2.3-6.4
			c-0.1-0.3-0.4-0.6-0.7-0.8c-4.7-3.7-5.8-10.8-2.3-15.7c0.3-0.4,0.5-1,0.5-1.6c0-4.7,0-9.4,0-14.2c0-3.4,0.2-6.8,1.2-10.2
			c1.8-6.4,5.5-11.4,11.3-14.6c5.1-2.8,10.6-3.8,16.3-3.9c3.6-0.1,7.1,0.1,10.6,0.8c5.3,1.1,10.1,3.1,14,7c2.7,2.7,4.5,6,5.6,9.6
			c1.1,3.6,1.5,7.4,1.5,11.2c0,4.8,0,9.6,0,14.4c0,0.5,0.2,1,0.5,1.4c1.8,2.6,2.5,5.5,1.9,8.6c-0.5,2.9-1.9,5.3-4.2,7.2
			c-0.3,0.2-0.5,0.5-0.6,0.9c-1.3,4.3-2.9,8.5-5.4,12.2c-1.4,2.2-3.1,4.1-4.7,6.2c-0.2,0.3-0.4,0.8-0.5,1.2c-0.1,0.5,0,1.1,0,1.7
			c-0.3,2,0.7,3.6,2,4.9c2.3,2.4,5,4.3,7.7,6.2c4.9,3.3,10,6.2,15.2,8.8c5.6,2.8,11.3,5.4,17,8c2.8,1.3,5.8,2.3,8.6,3.6
			c1.9,0.8,2.9,2.3,2.9,4.3c0.1,6.2,0.1,12.4,0,18.6c0,2.6-2.3,4.7-4.9,4.7c-5.9,0-11.7,0-17.6,0c-7.9,0-15.9,0-23.8,0
			C1290.4,248.2,1282.2,248.2,1274,248.2C1274,248.2,1274,248.2,1274,248.2z"/>
	</g>
</g>
</svg>
