<svg xmlns="http://www.w3.org/2000/svg" viewBox="0 0 250 333" enable-background="new 0 0 250 333"><path fill="#91bccc" d="M248.704,81L179,11.296L177.704,10H21.462C14.948,10,9,14.751,9,21.319v299.289
		C9,327.176,14.948,333,21.462,333h216.243c6.514,0,11.295-5.824,11.295-12.392V81.296L248.704,81z"/><path fill="#3fa0c2" d="M182.462,71C175.948,71,170,65.176,170,58.608V1.296L168.704,0H12.462C5.948,0,0,4.751,0,11.319v299.289
			C0,317.176,5.948,323,12.462,323h216.243c6.514,0,11.295-5.824,11.295-12.392V71.296L239.704,71H182.462z"/><g fill="#fff"><path d="m182.46 71h57.24l-69.7-69.7v57.31c0 6.569 5.948 12.393 12.462 12.393"/><text transform="translate(24.805 157.29)" font-family="&apos;Palatino-Roman&apos;" font-size="154.86">w</text></g><g fill="#79c7e3"><path d="m25 196h191v10h-191z"/><path d="m25 221h191v10h-191z"/><path d="m25 245h191v10h-191z"/><path d="m25 269h191v10h-191z"/></g></svg>