<?xml version="1.0" encoding="utf-8"?>
<!-- Generator: Adobe Illustrator 17.1.0, SVG Export Plug-In . SVG Version: 6.00 Build 0)  -->
<!DOCTYPE svg PUBLIC "-//W3C//DTD SVG 1.1//EN" "http://www.w3.org/Graphics/SVG/1.1/DTD/svg11.dtd">
<svg version="1.1" xmlns="http://www.w3.org/2000/svg" xmlns:xlink="http://www.w3.org/1999/xlink" x="0px" y="0px"
	 viewBox="287.4 -0.9 250.2 333.1" enable-background="new 287.4 -0.9 250.2 333.1" xml:space="preserve">
<g id="Calque_1">
</g>
<g id="Calque_2">
	<path fill="#019DED" d="M521.2,333H303.4c-8.9,0-16.1-7.2-16.1-16.1V16.1c0-8.9,7.2-16.1,16.1-16.1h151.9l82,81.9v235
		C537.3,325.8,530.1,333,521.2,333z"/>
	<polygon fill="#287EA6" points="537.3,127.1 458.5,80.3 455.3,0 537.3,82 	"/>
	<path fill="#A3E9F8" d="M455,0v72.8c0,5.2,4.2,9.5,9.5,9.5h72.8L455,0z"/>
	<rect x="318.9" y="125.2" fill="#FFFFFF" width="183" height="17.7"/>
	<rect x="318.9" y="167.4" fill="#FFFFFF" width="183" height="17.7"/>
	<rect x="318.9" y="210.6" fill="#FFFFFF" width="183" height="17.7"/>
	<rect x="318.9" y="252.8" fill="#FFFFFF" width="77.6" height="17.7"/>
</g>
<g id="Calque_7">
</g>
<g id="Calque_3">
</g>
<g id="Calque_4">
</g>
<g id="Calque_5">
</g>
<g id="Calque_6">
</g>
<g id="Calque_8">
</g>
</svg>
