<?xml version="1.0" encoding="utf-8"?>
<!-- Generator: Adobe Illustrator 17.0.0, SVG Export Plug-In . SVG Version: 6.00 Build 0)  -->
<!DOCTYPE svg PUBLIC "-//W3C//DTD SVG 1.1//EN" "http://www.w3.org/Graphics/SVG/1.1/DTD/svg11.dtd">
<svg version="1.1" id="Layer_1" xmlns="http://www.w3.org/2000/svg" xmlns:xlink="http://www.w3.org/1999/xlink" x="0px" y="0px"
	 width="206.171px" height="273.999px" viewBox="0 0 206.171 273.999" enable-background="new 0 0 206.171 273.999"
	 xml:space="preserve">
<g>
	<g>
		<path fill="#0098FF" d="M5.999,0c44.994,0,89.989,0,134.983,0c-0.037,15.448-0.115,30.897-0.095,46.345
			c0.01,7.584,4.13,11.61,11.695,11.655c13.951,0.082,27.902,0.132,41.852,0.258c1.7,0.015,3.775-0.75,4.811,1.525
			c-0.072,24.635-0.186,49.27-0.208,73.905c-0.036,40.286,0.006,80.572-0.026,120.858c-0.007,8.992-3.304,12.482-11.717,12.483
			c-59.763,0.005-119.527-0.016-179.29-0.029c-3.066-2.282-5.961-4.733-8.006-8.032C0,174.645,0,90.322,0,5.999
			C1.867,3.866,3.262,1.262,5.999,0z M121.946,182.731c-0.505-4.605,0.15-9.197-3.272-13.532
			c-10.309-13.059-20.137-26.502-29.967-39.932c-2.086-2.85-4.534-4.664-7.78-5.844c-10.009-3.637-19.966-7.417-29.937-11.156
			c-2.504-0.939-5.164-2.378-7.232,0.477c-2.118,2.925-0.372,5.21,1.663,7.462c7.593,8.401,15.097,16.883,22.635,25.334
			c3.997,4.481,3.992,4.46-1.926,6.221c-14.672,4.366-29.328,8.784-44.011,13.109c-4.154,1.223-8.041,2.727-8.973,7.561
			c-0.981,5.088,0.329,9.266,4.665,12.68c11.584,9.122,22.932,18.544,34.435,27.77c2.93,2.35,6.215,3.694,10.062,2.065
			c17.832-7.551,35.684-15.054,53.498-22.647C119.909,190.552,122.918,187.896,121.946,182.731z"/>
		<path fill="#0098FF" d="M26.779,170.841c7.399-2.371,13.537-4.321,19.659-6.318c1.058-0.345,1.951-0.172,2.831,0.403
			c10.704,6.995,21.408,13.991,33.076,21.617c-7.657,2.872-14.41,5.379-21.138,7.949c-1.336,0.51-2.258-0.128-3.193-0.81
			C47.948,186.334,37.893,178.971,26.779,170.841z"/>
		<path fill="#0098FF" d="M108.491,176.639c-6.959,2.631-13.152,4.97-19.343,7.314c-0.998,0.378-1.981,0.339-2.869-0.238
			c-10.694-6.947-21.379-13.909-32.685-21.269c6.666-2.161,12.499-4.043,18.324-5.948c1.007-0.329,1.912-0.314,2.855,0.244
			C85.763,163.242,96.764,169.723,108.491,176.639z"/>
		<path fill="#0098FF" d="M51.26,200.453c-0.087,1.649-0.025,3.74-2.113,3.854c-2.2,0.12-2.258-1.959-2.258-3.621
			c0-1.661,0.047-3.657,2.282-3.604C51.018,197.126,51.154,198.943,51.26,200.453z"/>
		<path fill="#0098FF" d="M44.732,62.109c0.761-2.411-1.817-6.465,3.753-6.168c5.6,0.298,8.625,2.45,8.524,6.828
			c-0.093,4.044-2.848,5.892-7.904,6.287C42.579,69.565,45.592,64.772,44.732,62.109z"/>
	</g>
	<path fill="#8FB8C9" d="M199.246,59.783c5.347,3.739,6.957,8.679,6.925,15.315c-0.29,60.948-0.19,121.898-0.239,182.848
		c-0.012,15.078-0.902,16.034-15.706,16.04c-56.786,0.024-113.572-0.069-170.358,0.013c-5.593,0.008-9.788-1.473-11.862-6.999
		c59.764,0.013,119.527,0.035,179.29,0.03c8.412-0.001,11.71-3.491,11.717-12.483c0.031-40.286-0.01-80.572,0.026-120.858
		C199.06,109.053,199.174,84.418,199.246,59.783z"/>
	<path fill="#FDFCFA" d="M121.946,182.731c0.972,5.164-2.038,7.82-6.139,9.569c-17.814,7.593-35.666,15.096-53.498,22.647
		c-3.847,1.629-7.132,0.285-10.062-2.065c-11.503-9.226-22.851-18.648-34.435-27.77c-4.336-3.414-5.647-7.593-4.665-12.68
		c0.932-4.834,4.82-6.337,8.973-7.561c14.684-4.325,29.34-8.743,44.011-13.109c5.918-1.761,5.923-1.74,1.926-6.221
		c-7.538-8.451-15.042-16.932-22.635-25.334c-2.035-2.252-3.782-4.537-1.663-7.462c2.067-2.855,4.728-1.416,7.232-0.477
		c9.971,3.739,19.928,7.52,29.937,11.156c3.246,1.179,5.694,2.994,7.78,5.844c9.83,13.429,19.658,26.872,29.967,39.932
		C122.097,173.535,121.441,178.127,121.946,182.731z M26.779,170.841c11.114,8.13,21.169,15.493,31.236,22.84
		c0.934,0.682,1.857,1.32,3.193,0.81c6.728-2.571,13.481-5.077,21.138-7.949c-11.668-7.626-22.372-14.622-33.076-21.617
		c-0.88-0.575-1.773-0.748-2.831-0.403C40.316,166.52,34.178,168.47,26.779,170.841z M108.491,176.639
		c-11.727-6.916-22.728-13.397-33.718-19.898c-0.942-0.557-1.848-0.573-2.855-0.244c-5.825,1.906-11.658,3.787-18.324,5.948
		c11.305,7.36,21.99,14.322,32.685,21.269c0.888,0.577,1.871,0.615,2.869,0.238C95.339,181.609,101.532,179.269,108.491,176.639z
		 M51.259,200.448c-0.105-1.505-0.241-3.322-2.088-3.365c-2.234-0.053-2.282,1.943-2.282,3.604c0,1.661,0.057,3.74,2.258,3.621
		C51.235,204.194,51.173,202.102,51.259,200.448z"/>
</g>
<g>
	<path fill="#FFFFFF" d="M24.693,56.244v33.702h-6.15V56.244H24.693z"/>
	<path fill="#FFFFFF" d="M60.194,76.195c-0.2-4.35-0.45-9.601-0.4-14.151h-0.15c-1.1,4.101-2.5,8.651-4,12.901l-4.9,14.601h-4.75
		l-4.5-14.401c-1.3-4.3-2.5-8.901-3.4-13.101h-0.1c-0.15,4.4-0.35,9.751-0.6,14.351l-0.75,13.551h-5.75l2.25-33.702h8.101
		l4.4,13.551c1.2,3.95,2.25,7.951,3.1,11.701h0.15c0.9-3.65,2.05-7.8,3.35-11.75l4.65-13.501h8l1.95,33.702h-6L60.194,76.195z"/>
	<path fill="#FFFFFF" d="M100.093,88.396c-2.15,0.8-6.35,1.9-10.851,1.9c-5.7,0-10-1.45-13.201-4.5c-3-2.85-4.75-7.3-4.7-12.4
		c0-10.651,7.6-17.501,18.751-17.501c4.15,0,7.4,0.85,8.951,1.6l-1.35,4.951c-1.85-0.8-4.101-1.45-7.65-1.45
		c-7.201,0-12.251,4.25-12.251,12.101c0,7.65,4.7,12.201,11.701,12.201c2.2,0,3.85-0.3,4.65-0.7v-8.401h-5.95v-4.85h11.9V88.396z"/>
</g>
</svg>
