<?xml version="1.0" encoding="utf-8"?>
<!-- Generator: Adobe Illustrator 17.0.0, SVG Export Plug-In . SVG Version: 6.00 Build 0)  -->
<!DOCTYPE svg PUBLIC "-//W3C//DTD SVG 1.1//EN" "http://www.w3.org/Graphics/SVG/1.1/DTD/svg11.dtd">
<svg version="1.1" id="Calque_1" xmlns="http://www.w3.org/2000/svg" xmlns:xlink="http://www.w3.org/1999/xlink" x="0px" y="0px"
	 width="250px" height="333px" viewBox="0 0 250 333" enable-background="new 0 0 250 333" xml:space="preserve">
<g id="Calque_1_1_">
	<path fill="#6A6C6D" d="M248.704,81L179,11.296L177.704,10H21.462C14.948,10,9,14.751,9,21.319v299.289
		C9,327.176,14.948,333,21.462,333h216.243c6.514,0,11.295-5.824,11.295-12.392V81.296L248.704,81z"/>
	<g>
		<path fill="#D2D7D8" d="M182.462,71C175.948,71,170,65.176,170,58.608V1.296L168.704,0H12.462C5.948,0,0,4.751,0,11.319v299.289
			C0,317.176,5.948,323,12.462,323h216.243c6.514,0,11.295-5.824,11.295-12.392V71.296L239.704,71H182.462z"/>
		<path fill="#FFFFFF" d="M182.462,71h57.242L170,1.296v57.311C170,65.176,175.948,71,182.462,71z"/>
	</g>
</g>
<g id="Calque_2">
</g>
<text transform="matrix(1 0 0 1 20.4991 101.416)" fill="#6A6C6D" font-family="'MyriadPro-Semibold'" font-size="57.7095">MAIL</text>
<path display="none" fill="#2CB532" d="M109.979,238.312c0.468-0.439,1.314-1.177,2.096-1.975
	c13.818-14.101,27.537-28.302,41.524-42.233c2.599-2.588,6.156-4.325,9.491-6.024c2.265-1.153,4.624-0.536,6.464,1.509
	c1.722,1.914,3.443,3.859,5.381,5.541c2.866,2.486,3.096,5.412,1.479,8.444c-1.643,3.08-3.279,6.358-5.674,8.811
	c-16.926,17.334-34.05,34.476-51.101,51.688c-1.072,1.082-2.041,2.265-3.108,3.352c-4.093,4.17-8.696,4.473-13.07,0.514
	c-3.673-3.325-7.049-6.977-10.548-10.494c-7.001-7.037-14.11-13.971-20.922-21.186c-2.073-2.196-3.509-5.078-4.884-7.822
	c-1.141-2.277-0.2-4.459,1.477-6.23c1.965-2.076,4.001-4.085,6.015-6.114c3.733-3.759,7.13-4.308,11.305-0.876
	c3.947,3.246,7.278,7.232,10.974,10.794C101.122,230.102,105.47,234.087,109.979,238.312z"/>
<g id="bMFqZH.tif" display="none">
	<g display="inline">
		<path fill="#1887B2" d="M115.884,246c0-6.097,0-11.949,0-17.904c-17.73,0-35.331,0-52.991,0c0-9.71,0-19.316,0-29.026
			c17.632,0,35.233,0,52.961,0c0-5.955,0-11.807,0-17.945c20.588,10.872,40.927,21.613,61.442,32.447
			C156.81,224.39,136.48,235.125,115.884,246z"/>
	</g>
</g>
<g id="exVrXS.tif" display="none">
	<g display="inline">
		<path fill="#C11717" d="M172.276,222.112c-0.215,25.729-20.571,45.582-45.424,45.635c-26.332,0.056-45.862-21.099-45.823-45.575
			c0.041-25.745,20.879-46.109,46.479-45.611C152.624,177.049,172.042,197.223,172.276,222.112z M109.589,195.037
			c14.751,14.745,29.477,29.465,44.195,44.177c7.028-10.658,7.515-27.679-4.424-39.696
			C137.795,187.876,120.677,187.723,109.589,195.037z M99.269,205.497c-7.271,11.393-6.769,28.992,5.842,40.435
			c12.28,11.142,28.834,9.821,38.17,3.573C128.614,234.839,113.938,220.165,99.269,205.497z"/>
	</g>
</g>
<g id="iPoo2X.tif" display="none">
	<g display="inline">
		<path fill="#2CB532" d="M121.214,268.067c-9.487-0.261-18.238-2.944-26.445-7.423c-14.235-7.77-25.644-18.57-34.384-32.257
			c-2.654-4.156-2.694-7.908-0.094-12.09c4.97-7.996,11.056-14.999,18.073-21.214c7.543-6.681,15.853-12.136,25.387-15.61
			c13.039-4.751,25.916-4.169,38.493,1.457c16.51,7.385,29.29,19.121,39.202,34.17c3.268,4.962,3.264,9.508,0.044,14.5
			c-6.731,10.434-15.307,19.002-25.438,26.065c-7.514,5.238-15.643,9.202-24.67,11.038
			C128.038,267.384,124.606,267.626,121.214,268.067z M154.282,222.017c-0.111-18.631-14.933-33.212-33.658-33.112
			c-17.838,0.096-32.685,15.151-32.573,33.029c0.117,18.624,14.927,33.396,33.362,33.277
			C139.576,255.094,154.39,240.133,154.282,222.017z"/>
		<path fill="#2CB532" d="M104.434,214.27c5.489,2.558,10.9,5.079,16.653,7.76c-2.157-5.952-4.201-11.592-6.244-17.227
			c5.607-2.672,15.336-1.568,21.051,6.039c5.677,7.556,4.879,17.976-1.784,24.429c-6.802,6.587-17.362,7.127-24.58,1.281
			C101.619,230.143,101.248,219.99,104.434,214.27z"/>
	</g>
</g>
</svg>
