<?xml version="1.0" encoding="utf-8"?>
<!-- Generator: Adobe Illustrator 17.1.0, SVG Export Plug-In . SVG Version: 6.00 Build 0)  -->
<!DOCTYPE svg PUBLIC "-//W3C//DTD SVG 1.1//EN" "http://www.w3.org/Graphics/SVG/1.1/DTD/svg11.dtd">
<svg version="1.1" xmlns="http://www.w3.org/2000/svg" xmlns:xlink="http://www.w3.org/1999/xlink" x="0px" y="0px"
	 viewBox="562.3 -0.9 252.4 333.8" enable-background="new 562.3 -0.9 252.4 333.8" xml:space="preserve">
<g id="Calque_1">
</g>
<g id="Calque_2">
</g>
<g id="Calque_7">
</g>
<g id="Calque_3">
	<path fill="#2DA05C" d="M798.8,333H581c-8.9,0-16.1-7.2-16.1-16.1V16.1C564.9,7.2,572.1,0,581,0h151.9l82,81.9v235
		C814.9,325.8,807.7,333,798.8,333z"/>
	<polygon fill="#528758" points="814.9,127.1 736.1,80.3 732.9,0 814.9,82 	"/>
	<path fill="#6EAB7D" d="M732.6,0v72.8c0,5.2,4.2,9.5,9.5,9.5h72.8L732.6,0z"/>
	<rect x="592.1" y="128.5" fill="none" stroke="#FFFFFF" stroke-width="9" stroke-miterlimit="10" width="196.4" height="125.8"/>
	<line fill="none" stroke="#FFFFFF" stroke-width="9" stroke-miterlimit="10" x1="639.9" y1="128.8" x2="639.9" y2="257.5"/>
	<line fill="none" stroke="#FFFFFF" stroke-width="9" stroke-miterlimit="10" x1="787.8" y1="169.3" x2="592.1" y2="169.3"/>
	<line fill="none" stroke="#FFFFFF" stroke-width="9" stroke-miterlimit="10" x1="787.8" y1="214.2" x2="592.1" y2="214.2"/>
</g>
<g id="Calque_4">
</g>
<g id="Calque_5">
</g>
<g id="Calque_6">
</g>
<g id="Calque_8">
</g>
</svg>
