<?xml version="1.0" encoding="utf-8"?>
<!-- Generator: Adobe Illustrator 17.1.0, SVG Export Plug-In . SVG Version: 6.00 Build 0)  -->
<!DOCTYPE svg PUBLIC "-//W3C//DTD SVG 1.1//EN" "http://www.w3.org/Graphics/SVG/1.1/DTD/svg11.dtd">
<svg version="1.1" xmlns="http://www.w3.org/2000/svg" xmlns:xlink="http://www.w3.org/1999/xlink" x="0px" y="0px"
	 viewBox="843.3 366.9 254.3 334.6" enable-background="new 843.3 366.9 254.3 334.6" xml:space="preserve">
<g id="Calque_1">
</g>
<g id="Calque_2">
</g>
<g id="Calque_7">
</g>
<g id="Calque_3">
</g>
<g id="Calque_4">
</g>
<g id="Calque_5">
</g>
<g id="Calque_6">
	<path fill="#BC4943" d="M1078.2,700.2H860.3c-8.9,0-16.1-7.2-16.1-16.1V383.3c0-8.9,7.2-16.1,16.1-16.1h151.9l82,81.9v235
		C1094.2,693,1087,700.2,1078.2,700.2z"/>
	<polygon fill="#7C404E" points="1094.2,494.3 1015.5,447.5 1012.3,367.2 1094.2,449.2 	"/>
	<path fill="#C47A7C" d="M1012,367.2V440c0,5.2,4.2,9.5,9.5,9.5h72.8L1012,367.2z"/>
	
		<rect x="875.4" y="493.2" fill="#EABBCA" stroke="#FFFFFF" stroke-width="12" stroke-miterlimit="10" width="186.5" height="119.5"/>
	<polygon fill="#FFFFFF" points="878.9,589.6 920.8,541.9 977.4,595.3 999,575.6 1060.6,602.3 1061.9,612.7 880.1,612.7 	"/>
</g>
<g id="Calque_8">
</g>
</svg>
