<?xml version="1.0" encoding="utf-8"?>
<!-- Generator: Adobe Illustrator 17.0.0, SVG Export Plug-In . SVG Version: 6.00 Build 0)  -->
<!DOCTYPE svg PUBLIC "-//W3C//DTD SVG 1.1//EN" "http://www.w3.org/Graphics/SVG/1.1/DTD/svg11.dtd">
<svg version="1.1" xmlns="http://www.w3.org/2000/svg" xmlns:xlink="http://www.w3.org/1999/xlink" x="0px" y="0px"
	 width="64.875px" height="64.697px" viewBox="0 0 64.875 64.697" enable-background="new 0 0 64.875 64.697" xml:space="preserve">
<g id="salesFetch">
</g>
<g id="Layer_1_xA0_Image_1_">
	<line fill="none" stroke="#929497" stroke-width="4" stroke-miterlimit="10" x1="26.08" y1="8.962" x2="50.08" y2="8.962"/>
	<line fill="none" stroke="#929497" stroke-width="4" stroke-miterlimit="10" x1="26.08" y1="22.962" x2="50.08" y2="22.962"/>
	<line fill="none" stroke="#929497" stroke-width="4" stroke-miterlimit="10" x1="26.08" y1="36.962" x2="50.08" y2="36.962"/>
	<line fill="none" stroke="#929497" stroke-width="4" stroke-miterlimit="10" x1="26.08" y1="50.962" x2="50.08" y2="50.962"/>
	<g id="XMLID_3_">
		<g>
			<g id="XMLID_4_">
				<g>
					<path fill="#A6A8AB" d="M13.968,13.029c0.297-0.348,0.57-0.604,0.782-0.707l4.662-2.358c1.08-0.553,2.407-0.121,2.957,0.972
						l5.017,9.908c0.549,1.084,0.113,2.407-0.975,2.952l-4.657,2.362c-0.557,0.289-1.643,0.176-3.21-0.142
						c-0.72,3.744,1.681,8.104,6.413,13.07c3.84,4.025,9.674,9.75,15.278,8.51c-1.568-2.188-1.064-3.668-0.486-4.414l3.258-4.222
						c0.753-0.98,2.161-1.164,3.137-0.406l8.983,6.914c0.98,0.762,1.164,2.169,0.407,3.154l-3.254,4.217
						c-0.159,0.21-0.519,0.435-0.996,0.662l0.024,0.05c-13.49,6.781-26.128-1.872-32.674-9.481
						c-9.402-10.943-10.922-18.192-7.07-26.635C12.213,16.007,13.021,14.545,13.968,13.029z"/>
				</g>
			</g>
		</g>
	</g>
	<g id="XMLID_1_">
		<g>
			<g id="XMLID_2_">
				<g>
					<path fill="#4875B3" d="M14.019,11.306c0.297-0.348,0.57-0.604,0.782-0.707l4.662-2.358c1.08-0.553,2.407-0.121,2.957,0.972
						l5.017,9.908c0.549,1.084,0.113,2.407-0.975,2.952l-4.657,2.362c-0.557,0.289-1.643,0.176-3.21-0.142
						c-0.72,3.744,1.681,8.104,6.413,13.07c3.84,4.025,9.674,9.75,15.278,8.51c-1.568-2.188-1.064-3.668-0.486-4.414l3.258-4.222
						c0.753-0.98,2.161-1.164,3.137-0.406l8.983,6.914c0.98,0.762,1.164,2.169,0.407,3.154l-3.254,4.217
						c-0.159,0.21-0.519,0.435-0.996,0.662l0.024,0.05c-13.49,6.781-26.128-1.872-32.674-9.481
						c-9.402-10.943-10.922-18.192-7.07-26.635C12.264,14.283,13.072,12.821,14.019,11.306z"/>
				</g>
			</g>
		</g>
	</g>
</g>
</svg>
