<?xml version="1.0" encoding="utf-8"?>
<!-- Generator: Adobe Illustrator 17.0.0, SVG Export Plug-In . SVG Version: 6.00 Build 0)  -->
<!DOCTYPE svg PUBLIC "-//W3C//DTD SVG 1.1//EN" "http://www.w3.org/Graphics/SVG/1.1/DTD/svg11.dtd">
<svg version="1.1" id="Layer_1" xmlns="http://www.w3.org/2000/svg" xmlns:xlink="http://www.w3.org/1999/xlink" x="0px" y="0px"
	 width="100px" height="100px" viewBox="0 0 100 100" enable-background="new 0 0 100 100" xml:space="preserve">
<path fill="#C4C4C4" d="M15,99c-4,0-8,0-12,0c0-4,0-8,0-12C3,60,3.039,33,2.935,6C2.925,3.5,3.5,2.927,6,2.935c30,0.1,60,0.1,90,0
	C98.5,2.927,99.073,3.5,99.065,6c-0.1,30-0.1,60,0,90c0.008,2.5-0.547,3.272-3.07,3.059C93.016,98.808,90,99,87,99
	c-1.349-16.982-8.953-29.957-24.799-37.912c1.681-1.594,3.205-2.83,4.48-4.286c5.719-6.531,7.55-13.976,4.474-22.211
	c-3.002-8.035-8.927-12.744-17.505-13.579c-9.027-0.879-16.306,2.076-20.969,10.356c-5.192,9.219-3.545,19.539,4.539,27.206
	c1.355,1.285,3.885,2.261,0.312,4.079C22.702,70.199,16.454,83.129,15,99z"/>
</svg>
