<?xml version="1.0" encoding="utf-8"?>
<!-- Generator: Adobe Illustrator 17.0.0, SVG Export Plug-In . SVG Version: 6.00 Build 0)  -->
<!DOCTYPE svg PUBLIC "-//W3C//DTD SVG 1.1//EN" "http://www.w3.org/Graphics/SVG/1.1/DTD/svg11.dtd">
<svg version="1.1" id="Layer_1" xmlns="http://www.w3.org/2000/svg" xmlns:xlink="http://www.w3.org/1999/xlink" x="0px" y="0px"
	 width="206.171px" height="273.999px" viewBox="0 0 206.171 273.999" enable-background="new 0 0 206.171 273.999"
	 xml:space="preserve">
<g>
	<g>
		<path fill="#FFE000" d="M5.999,0c44.994,0,89.989,0,134.983,0c-0.037,15.448-0.115,30.897-0.095,46.345
			c0.01,7.584,4.13,11.61,11.695,11.655c13.951,0.082,27.902,0.132,41.852,0.258c1.7,0.015,3.775-0.75,4.811,1.525
			c-0.072,24.635-0.186,49.27-0.208,73.905c-0.036,40.286,0.006,80.572-0.026,120.858c-0.007,8.992-3.304,12.482-11.717,12.483
			c-59.763,0.005-119.527-0.016-179.29-0.029c-3.066-2.282-5.961-4.733-8.006-8.032C0,174.645,0,90.322,0,5.999
			C1.867,3.866,3.262,1.262,5.999,0z"/>
		<path fill="#FFE000" d="M44.732,62.109c0.761-2.411-1.817-6.465,3.753-6.168c5.6,0.298,8.625,2.45,8.524,6.828
			c-0.093,4.044-2.848,5.892-7.904,6.287C42.579,69.565,45.592,64.772,44.732,62.109z"/>
	</g>
	<path fill="#C6B394" d="M199.246,59.783c5.347,3.739,6.957,8.679,6.925,15.315c-0.29,60.948-0.19,121.898-0.239,182.848
		c-0.012,15.078-0.902,16.034-15.706,16.04c-56.786,0.024-113.572-0.069-170.358,0.013c-5.593,0.008-9.788-1.473-11.862-6.999
		c59.764,0.013,119.527,0.035,179.29,0.03c8.412-0.001,11.71-3.491,11.717-12.483c0.031-40.286-0.01-80.572,0.026-120.858
		C199.06,109.053,199.174,84.418,199.246,59.783z"/>
</g>
<g>
	<path fill="#FFFFFF" d="M18.543,89.946V56.244h7l8.7,14.451c2.25,3.75,4.201,7.65,5.75,11.3h0.1c-0.4-4.5-0.55-8.851-0.55-14
		V56.244h5.701v33.702h-6.351l-8.8-14.801c-2.15-3.7-4.4-7.851-6.05-11.651l-0.15,0.05c0.25,4.351,0.3,8.801,0.3,14.351v12.051
		H18.543z"/>
	<path fill="#FFFFFF" d="M82.244,72.745c0,11.301-6.851,17.751-16.151,17.751c-9.501,0-15.501-7.25-15.501-17.151
		c0-10.351,6.5-17.651,16.001-17.651C76.443,55.694,82.244,63.144,82.244,72.745z M57.092,73.245c0,6.851,3.45,12.301,9.351,12.301
		c5.951,0,9.301-5.5,9.301-12.551c0-6.35-3.15-12.351-9.301-12.351C60.342,60.644,57.092,66.295,57.092,73.245z"/>
	<path fill="#FFFFFF" d="M92.642,61.394h-9.601v-5.15h25.452v5.15h-9.701v28.552h-6.15V61.394z"/>
	<path fill="#FFFFFF" d="M131.292,74.995h-12.701v9.9h14.201v5.05h-20.352V56.244h19.602v5.05h-13.451v8.701h12.701V74.995z"/>
</g>
<g>
	<path fill="#ADA26C" d="M74.116,153.181c10.991-0.638,22.936,2.477,30.442-9.589c5.607-9.014,19.169-12.712,17.164-26.921
		c1.012-0.681,2.024-1.362,3.037-2.043c9.781,10.995,19.562,21.99,29.641,33.321c-17.027,2.278-23.485,17.856-34.845,27.215
		c-1.418,1.168-1.515,4.342-1.622,6.615c-0.231,4.923-0.071,9.864-0.071,14.798c-0.741,0.441-1.482,0.881-2.223,1.322
		c-14.2-14.2-28.4-28.4-42.599-42.599C73.398,154.594,73.757,153.888,74.116,153.181z"/>
	<path fill="#FFFFFF" d="M88.705,177.72c1.631,1.56,2.997,2.866,4.992,4.775c-14.471,12.706-25.661,28.408-41.622,38.914
		c-0.611-0.432-1.222-0.863-1.833-1.295c0.881-2.236,1.188-5.034,2.736-6.62C64.665,201.52,76.596,189.783,88.705,177.72z"/>
</g>
</svg>
