<?xml version="1.0" encoding="utf-8"?>
<!-- Generator: Adobe Illustrator 17.1.0, SVG Export Plug-In . SVG Version: 6.00 Build 0)  -->
<!DOCTYPE svg PUBLIC "-//W3C//DTD SVG 1.1//EN" "http://www.w3.org/Graphics/SVG/1.1/DTD/svg11.dtd">
<svg version="1.1" xmlns="http://www.w3.org/2000/svg" xmlns:xlink="http://www.w3.org/1999/xlink" x="0px" y="0px"
	 viewBox="836.5 -0.2 252.4 333.8" enable-background="new 836.5 -0.2 252.4 333.8" xml:space="preserve">
<g id="Calque_1">
</g>
<g id="Calque_2">
</g>
<g id="Calque_7">
</g>
<g id="Calque_3">
</g>
<g id="Calque_4">
	<path fill="#BC4943" d="M1072,333H854.2c-8.9,0-16.1-7.2-16.1-16.1V16.1c0-8.9,7.2-16.1,16.1-16.1h151.9l82,81.9v235
		C1088.1,325.8,1080.9,333,1072,333z"/>
	<polygon fill="#7C404E" points="1088.1,127.1 1009.3,80.3 1006.1,0 1088.1,82 	"/>
	<path fill="#C47A7C" d="M1005.8,0v72.8c0,5.2,4.2,9.5,9.5,9.5h72.8L1005.8,0z"/>
	<path fill="#FFFFFF" d="M1062.8,216.5c-6.4,7.1-14.7,8-23.5,6.9c-14.5-1.8-27.5-7.8-40.4-14.1c-2.8-1.4-6.4-2.2-9.4-1.7
		c-18.7,2.9-37.3,6.3-56,9.3c-3,0.5-4.4,1.6-5.5,4.4c-6.7,18-19.9,29.2-37.6,35.4c-6.9,2.4-11.1,0.1-14.9-7.2c0-2.1,0-4.3,0-6.4
		c7.5-13.2,17.9-23.7,32.6-27.8c10.4-2.9,14.3-10.4,17.7-18.6c7.3-17.5,13.8-35.2,20.5-52.9c0.5-1.4,0-3.6-0.6-5.1
		c-5-12.7-9.4-25.5-8.7-39.5c0.3-5.8,1.7-11.2,5.2-15.9c3-4,6-4.3,9.5-0.7c6.7,7.1,9.1,16.2,10.9,25.3c2.2,11.1,1.2,21.9-3.8,32.2
		c-0.6,1.2-0.4,3.3,0.3,4.6c9.1,19.7,22.8,35.7,40.3,48.4c1.8,1.3,4.5,1.4,6.9,1.6c12.4,1.3,24.9,2.3,37.3,3.8
		c8.2,1,14.8,5.3,19.3,12.4C1062.8,212.9,1062.8,214.7,1062.8,216.5z M984.3,195.9c-11.1-12.2-21.9-24-32.5-35.7
		c-1.8,6.6-3.5,14.1-5.9,21.2c-2.4,7.2-5.5,14.1-8.5,21.5C952.8,200.6,968.5,198.3,984.3,195.9z M912.1,220.6
		c-7.1,1.4-19.4,9.3-23.1,15.2c-1,1.6-1.7,4.5-0.9,5.8c0.7,1.2,3.8,1.8,5.6,1.5C903.5,241.6,912.1,230.9,912.1,220.6z M1015.8,202.2
		c9.6,10.1,30.9,15.7,39.5,10.3C1043.7,201.8,1029.5,202.7,1015.8,202.2z M952.2,94.1c-3.4,12.1-0.1,23.3,2.7,35
		C959.8,119.4,959.1,98.3,952.2,94.1z"/>
</g>
<g id="Calque_5">
</g>
<g id="Calque_6">
</g>
<g id="Calque_8">
</g>
</svg>
