<?xml version="1.0" encoding="utf-8"?>
<!-- Generated by IcoMoon.io -->
<!DOCTYPE svg PUBLIC "-//W3C//DTD SVG 1.1//EN" "http://www.w3.org/Graphics/SVG/1.1/DTD/svg11.dtd">
<svg version="1.1" xmlns="http://www.w3.org/2000/svg" xmlns:xlink="http://www.w3.org/1999/xlink" width="128" height="128" viewBox="0 0 128 128">
	<path d="M102.4 57.6h-76.8c-3.533 0-6.4 2.867-6.4 6.4s2.867 6.4 6.4 6.4h76.8c3.539 0 6.4-2.867 6.4-6.4s-2.861-6.4-6.4-6.4zM25.6 44.8h76.8c3.539 0 6.4-2.867 6.4-6.4s-2.861-6.4-6.4-6.4h-76.8c-3.533 0-6.4 2.867-6.4 6.4s2.867 6.4 6.4 6.4zM102.4 83.2h-76.8c-3.533 0-6.4 2.861-6.4 6.4s2.867 6.4 6.4 6.4h76.8c3.539 0 6.4-2.861 6.4-6.4s-2.861-6.4-6.4-6.4z" fill="#9a9a9a" />
</svg>
