<svg xmlns="http://www.w3.org/2000/svg" viewBox="0 0 32 32"><path d="m7.313 15.05c.596-3.564 4.28-7.451 8.639-7.451 2.521 0 4.773 1.157 6.349 2.941l2.12-1.413c-2.071-2.46-5.143-4.055-8.563-4.055-5.667 0-10.352 3.937-11.06 9.489l-4.796-.927 4.721 6.983 6.984-4.719-4.392-.849zm19.966-3.662l-6.984 4.719 4.391.849c-.595 3.564-4.28 7.452-8.639 7.451-2.523 0-4.773-1.157-6.351-2.941l-2.119 1.413c2.071 2.46 5.143 4.055 8.563 4.055 5.665 0 10.352-3.937 11.06-9.489l4.799.927-4.721-6.983" fill="#e7a300"/></svg>