<?xml version="1.0" encoding="utf-8"?>
<!-- Generated by IcoMoon.io -->
<!DOCTYPE svg PUBLIC "-//W3C//DTD SVG 1.1//EN" "http://www.w3.org/Graphics/SVG/1.1/DTD/svg11.dtd">
<svg version="1.1" xmlns="http://www.w3.org/2000/svg" xmlns:xlink="http://www.w3.org/1999/xlink" width="32" height="32" viewBox="0 0 32 32">
	<path d="M7.313 15.047c0.596-3.564 4.28-7.451 8.639-7.451 2.521 0 4.773 1.157 6.349 2.941l2.12-1.413c-2.071-2.46-5.143-4.055-8.563-4.055-5.667 0-10.352 3.937-11.063 9.489l-4.796-0.927 4.721 6.983 6.984-4.719-4.392-0.849zM27.279 11.385l-6.984 4.719 4.391 0.849c-0.595 3.564-4.28 7.452-8.639 7.451-2.523 0-4.773-1.157-6.351-2.941l-2.119 1.413c2.071 2.46 5.143 4.055 8.563 4.055 5.665 0 10.352-3.937 11.061-9.489l4.799 0.927-4.721-6.983z" fill="#e7a300" />
</svg>
