<svg xmlns="http://www.w3.org/2000/svg" viewBox="0 0 32 32"><path d="m15.803 1.282c-8.128.109-14.63 6.786-14.522 14.915.109 8.131 6.787 14.63 14.915 14.523 8.13-.109 14.632-6.787 14.522-14.915-.109-8.131-6.787-14.632-14.915-14.523m.027 1.918c2.192-.03 4.262.496 6.08 1.442l-1.981 3.302c-1.187-.578-2.52-.904-3.93-.904-1.408 0-2.741.326-3.928.906l-1.979-3.301c1.718-.896 3.667-1.416 5.738-1.445m-7.884 16.728l-3.299 1.978c-.896-1.717-1.416-3.666-1.443-5.734-.03-2.194.496-4.264 1.442-6.08l3.301 1.982c-.579 1.186-.906 2.517-.906 3.926 0 1.408.326 2.741.906 3.928zm8.225 8.87c-2.192.03-4.264-.496-6.08-1.442l1.981-3.302c1.187.579 2.52.906 3.928.906 1.41 0 2.742-.325 3.928-.904l1.979 3.299c-1.718.894-3.666 1.414-5.736 1.443m-.171-5.76c-3.888 0-7.04-3.152-7.04-7.04 0-3.888 3.152-7.04 7.04-7.04 3.89 0 7.04 3.152 7.04 7.04 0 3.888-3.15 7.04-7.04 7.04m8.05-3.11c.579-1.187.906-2.52.906-3.928 0-1.41-.326-2.741-.906-3.928l3.299-1.981c.896 1.718 1.418 3.666 1.445 5.736.029 2.194-.498 4.264-1.443 6.08l-3.301-1.979" fill="#fff"/></svg>