<?xml version="1.0" encoding="utf-8"?>
<!-- Generator: Adobe Illustrator 17.1.0, SVG Export Plug-In . SVG Version: 6.00 Build 0)  -->
<!DOCTYPE svg PUBLIC "-//W3C//DTD SVG 1.1//EN" "http://www.w3.org/Graphics/SVG/1.1/DTD/svg11.dtd">
<svg version="1.1" id="Calque_1" xmlns="http://www.w3.org/2000/svg" xmlns:xlink="http://www.w3.org/1999/xlink" x="0px" y="0px"
	 viewBox="217 20 523 519" enable-background="new 217 20 523 519" xml:space="preserve">
<g>
	<path fill="none" d="M603.2,280c0-68-55.1-123.2-123.2-123.2c-68,0-123.2,55.2-123.2,123.2S412,403.2,480,403.2
		C548.1,403.2,603.2,348,603.2,280z"/>
	<path fill="#D82525" d="M678.6,176.6l-57.7,34.7c10.1,20.8,15.9,44.1,15.9,68.7c0,24.6-5.7,48-15.9,68.7h0l57.8,34.6
		c16.5-31.8,25.8-68,25.3-106.4C703.4,240.7,694.3,206.7,678.6,176.6z"/>
	<path fill="#D82525" d="M339.1,348.7c-10.1-20.8-15.9-44.1-15.9-68.7c0-24.7,5.7-48,15.9-68.7l-57.8-34.7
		c-16.6,31.8-25.8,68-25.2,106.4c0.5,36.2,9.6,70.3,25.3,100.3L339.1,348.7L339.1,348.7z"/>
	<path fill="#D82525" d="M477,56L477,56c-36.2,0.5-70.3,9.6-100.4,25.3l34.6,57.8c20.8-10.2,44.1-15.9,68.7-15.9
		c24.7,0,48,5.7,68.8,15.8l34.7-57.8C551.6,64.7,515.4,55.5,477,56z"/>
	<path fill="#D82525" d="M583.4,478.7L548.7,421c-20.8,10.1-44.1,15.8-68.7,15.8c-24.6,0-48-5.7-68.7-15.9l-34.7,57.8
		c31.8,16.6,68,25.8,106.4,25.2C519.2,503.5,553.3,494.4,583.4,478.7z"/>
	<path fill="#FFFFFF" d="M737.6,276.6c-1.9-142.3-118.8-256.1-261-254.2s-256,118.8-254.1,261c1.9,142.3,118.8,256,261,254.2
		C625.7,535.7,739.5,418.8,737.6,276.6z M678.6,383.4l-57.8-34.6h0c10.1-20.8,15.9-44.1,15.9-68.7c0-24.7-5.7-48-15.9-68.7
		l57.7-34.7c15.7,30.1,24.8,64.2,25.3,100.4C704.4,315.4,695.2,351.6,678.6,383.4z M256.1,283c-0.5-38.4,8.7-74.6,25.2-106.4
		l57.8,34.7c-10.1,20.8-15.9,44-15.9,68.7c0,24.6,5.7,48,15.9,68.7h0l-57.7,34.6C265.6,353.3,256.5,319.2,256.1,283z M480,403.2
		c-68,0-123.2-55.2-123.2-123.2S412,156.8,480,156.8c68.1,0,123.2,55.2,123.2,123.2S548.1,403.2,480,403.2z M548.8,139
		c-20.8-10.1-44.1-15.8-68.8-15.8c-24.6,0-48,5.7-68.7,15.9l-34.6-57.8C406.7,65.6,440.8,56.5,477,56h0
		c38.4-0.5,74.6,8.7,106.4,25.2L548.8,139z M376.6,478.7l34.7-57.8c20.8,10.1,44.1,15.9,68.7,15.9c24.7,0,48-5.7,68.7-15.8
		l34.6,57.7c-30.1,15.6-64.2,24.7-100.4,25.3C444.6,504.5,408.4,495.3,376.6,478.7z"/>
</g>
</svg>
