<?xml version="1.0" encoding="utf-8"?>
<!-- Generated by IcoMoon.io -->
<!DOCTYPE svg PUBLIC "-//W3C//DTD SVG 1.1//EN" "http://www.w3.org/Graphics/SVG/1.1/DTD/svg11.dtd">
<svg version="1.1" xmlns="http://www.w3.org/2000/svg" xmlns:xlink="http://www.w3.org/1999/xlink" width="64" height="64" viewBox="0 0 64 64">
	<path d="M55.485 13.786c0-3.68-5.542-4.090-5.542-4.090l-13.021-0.819c0 0-0.278-3.546-2.912-4.774-2.63-1.226-5.523-0.854-7.6-0.832s-2.573 2.675-2.573 5.178 0.048 5.382 0.048 7.2c0 3.251-1.43 4.637-5.011 4.637h-7.382c-2.064-0.134-3.674 0.205-3.674 1.875 0 1.667 2.432 15.91 5.766 19.197 1.936 1.907 13.773 3.245 16.266 3.245s1.664-7.363 2.355-7.363 1.456 4.16 5.382 5.133c3.926 0.979 9.168 0.797 9.446 3.59 0.362 3.686 0.691 8.458-1.734 8.797l-5.488 0.218c-3.763-0.272-2.755-4.381-1.094-4.381s2.493-0.067 2.493-0.067l0.208-4.499c0 0-8.618-1.018-8.986 4.797-0.333 5.312 0.579 7.818 1.248 8.362 0.672 0.55 1.83 1.613 12.384 1.613 14.87 0 9.421-43.338 9.421-47.014zM49.408 33.027c-0.582 0.621-2.694-1.027-4.71-1.027-2.019 0-4.198 1.069-4.71 0.368-0.509-0.704 0.47-6.374 4.272-6.374s5.734 6.41 5.149 7.034zM18.57 13.331c0-0.726 0.189-9.549 0.189-9.549l-11.219 11.005c0 0 7.75 0 9.27 0 1.526 0 1.76-0.726 1.76-1.456z" fill="#ffffff" />
</svg>
