<svg xmlns="http://www.w3.org/2000/svg" viewBox="0 0 64 64"><path d="m60 56h-56q-1.625 0-2.813-1.188t-1.188-2.813v-40q0-1.688 1.156-2.844t2.844-1.156h56q1.688 0 2.844 1.156t1.156 2.844v40q0 1.625-1.156 2.813t-2.844 1.188m.001-42q0-.813-.594-1.406t-1.406-.594h-4q-1.25 0-1.969.094t-1.875.688-2.344 1.781l-15.813 15.813-15.813-15.813q-1.188-1.188-2.344-1.781t-1.844-.688-2-.094h-4q-.813 0-1.406.594t-.594 1.406v36q0 .813.594 1.406t1.406.594h4q.813 0 1.406-.594t.594-1.406v-2.063l13.188-13.12 4.625 4.625q.938.938 2.188.438 1.25.5 2.188-.438l4.625-4.625 13.188 13.13v2.063q0 .813.594 1.406t1.406.594h4q.813 0 1.406-.594t.594-1.406v-36m-8 28.313l-10.375-10.375 10.375-10.313v20.688m-40-20.688l10.375 10.313-10.375 10.375v-20.688" fill="#fff"/></svg>