<?xml version="1.0" encoding="utf-8"?>
<!-- Generated by IcoMoon.io -->
<!DOCTYPE svg PUBLIC "-//W3C//DTD SVG 1.1//EN" "http://www.w3.org/Graphics/SVG/1.1/DTD/svg11.dtd">
<svg version="1.1" xmlns="http://www.w3.org/2000/svg" xmlns:xlink="http://www.w3.org/1999/xlink" width="64" height="64" viewBox="0 0 64 64">
	<path d="M60 56h-56q-1.625 0-2.813-1.188t-1.188-2.813v-40q0-1.688 1.156-2.844t2.844-1.156h56q1.688 0 2.844 1.156t1.156 2.844v40q0 1.625-1.156 2.813t-2.844 1.188zM60 14q0-0.813-0.594-1.406t-1.406-0.594h-4q-1.25 0-1.969 0.094t-1.875 0.688-2.344 1.781l-15.813 15.813-15.813-15.813q-1.188-1.188-2.344-1.781t-1.844-0.688-2-0.094h-4q-0.813 0-1.406 0.594t-0.594 1.406v36q0 0.813 0.594 1.406t1.406 0.594h4q0.813 0 1.406-0.594t0.594-1.406v-2.063l13.188-13.125 4.625 4.625q0.938 0.938 2.188 0.438 1.25 0.5 2.188-0.438l4.625-4.625 13.188 13.125v2.063q0 0.813 0.594 1.406t1.406 0.594h4q0.813 0 1.406-0.594t0.594-1.406v-36zM52 42.313l-10.375-10.375 10.375-10.313v20.688zM12 21.625l10.375 10.313-10.375 10.375v-20.688z" fill="#ffffff" />
</svg>
