<svg xmlns="http://www.w3.org/2000/svg" width="250.93" height="251.27" viewBox="0 0 250.933 251.266" enable-background="new 0 0 250.933 251.266"><path fill="#91bccc" d="M250.93 239.27c0 6.627-5.373 12-12 12h-216.67c-6.627 0-12-5.373-12-12v-217c0-6.627 5.373-12 12-12h216.67c6.627 0 12 5.373 12 12v217"/><path fill="#2ecc71" d="M240.667 229c0 6.627-5.373 12-12 12h-216.667c-6.627 0-12-5.373-12-12v-217c0-6.627 5.373-12 12-12h216.667c6.627 0 12 5.373 12 12v217z"/><g fill="#2d2d2d"><path d="M148.29 173.52c-3.01.504-5.83.992-8.654 1.444-5.492.878-5.883 4.785-4.66 8.851.206.684.516 1.345.847 1.98.854 1.638 1.812 2.883 4.04 2.963 4.147.15 8.283.998 12.418.964 4.261-.035 8.663-.075 12.432-2.732 1.794-1.265 2.743-3.05 2.718-5.102-.076-6.06-.131-12.139-.655-18.17-.338-3.887-1.652-7.61-4.738-10.411-2.074-1.883-4.549-2.741-7.252-2.973-5.519-.473-11.07-.649-16.559-1.368-3.054-.401-6.102-1.395-8.967-2.573-4.158-1.709-5.713-5.294-5.964-9.605-.218-3.74-.609-7.471-.814-11.211-.098-1.786-1.335-1.14-2.225-1.222-1.189-.109-.921.795-.95 1.48-.216 5.08-.252 10.176-.713 15.233-.339 3.718-1.319 7.377-3.19 10.673-1.324 2.333-3.332 3.662-6.083 4.233-5.369 1.115-10.581.278-15.665-1.119-7.541-2.072-14.981-4.52-22.424-6.931-3.344-1.084-6.653-2.327-9.868-3.745-5.096-2.247-8.178-6.358-9.405-11.672-1.256-5.439-2.11-10.971-3.132-16.464-.722-3.883-1.505-7.757-2.13-11.657-.997-6.226-1.914-12.464-2.809-18.704-.504-3.516-.414-7.03-.04-10.575.59-5.594 4.46-9.388 10.07-9.445 5.201-.052 10.407.089 15.601-.104 3.155-.117 6.309-.611 9.434-1.117 2.23-.361 4.607-3.158 4.552-6.02-.139-7.155-.198-14.32.049-21.469.08-2.317.988-4.694 1.929-6.865.811-1.871 2.777-2.79 4.687-3.222 3.497-.79 7.03-1.541 10.591-1.887 3.933-.382 7.915-.451 11.869-.363 4.413.099 8.837.487 12.825 2.693 3.691 2.042 6.663 4.808 8.122 8.872.48 1.336 1.164 1.679 2.563 1.704 6.889.121 13.792.171 20.655.695 5.304.405 10.592 1.294 15.821 2.306 3.999.774 7.932 1.958 11.827 3.177 4.603 1.44 6.869 5.137 8.366 9.405 1.407 4.01 1.686 8.205 1.905 12.416.448 8.615.997 17.225 1.479 25.839.244 4.36.473 8.722.635 13.09.152 4.11.4 8.231.257 12.334-.183 5.228-.679 10.446-1.11 15.663-.384 4.652-.798 9.304-1.321 13.943-.442 3.922-1.034 7.828-1.605 11.734-.667 4.563-1.25 9.145-2.121 13.67-.617 3.203-1.486 6.383-2.542 9.471-1.62 4.742-3.411 9.43-5.286 14.08-2.507 6.216-7.163 9.912-13.676 11.492-7.956 1.931-15.994 1.574-24.06 1.303-4.443-.149-8.799-.687-13.05-1.947-4.558-1.35-8.635-3.562-10.791-7.984-.98-2.01-1.23-4.437-1.505-6.711-.376-3.106-.742-6.259-.605-9.37.229-5.227.745-10.468 3.869-14.982 2.109-3.048 4.856-4.973 8.647-5.558 4.531-.698 9.05-1.284 13.641-1.126.463.016.934-.006 1.387.073 1.829.319 2.02.742 1.411 2.456-1.09 3.06-.759 6.177-.249 9.29.048.294.116.585.176.887m22.551-59c-.314-2.614-.478-4.903-.883-7.149-.696-3.862-2.477-6.99-6.531-8.162-4.385-1.268-7.929-.46-10.342 2.933-1.255 1.765-2.02 3.911-2.815 5.957-.446 1.143-.509 2.436-.791 3.902 7.293-.627 14.287-1.082 21.362 2.519"/><path d="M78.43 30.946c-.094.327-.328 1.034-.499 1.755-1.371 5.772-.84 11.622-.716 17.456.048 2.262.102 4.527.029 6.786-.05 1.558-1.503 2.513-3.651 2.525-4.834.029-9.674-.096-14.501.094-3.159.124-6.301.693-9.451 1.056-.439.051-.883.066-1.065.079 9.956-9.921 19.986-19.917 29.854-29.751"/></g></svg>