<svg xmlns="http://www.w3.org/2000/svg" viewBox="0 0 250 333" enable-background="new 0 0 250 333"><path fill="#91bccc" d="M248.704 81l-69.704-69.704-1.296-1.296h-156.242c-6.514 0-12.462 4.751-12.462 11.319v299.289c0 6.568 5.948 12.392 12.462 12.392h216.243c6.514 0 11.295-5.824 11.295-12.392v-239.312l-.296-.296z"/><path fill="#27ae60" d="M182.462 71c-6.514 0-12.462-5.824-12.462-12.392v-57.312l-1.296-1.296h-156.242c-6.514 0-12.462 4.751-12.462 11.319v299.289c0 6.568 5.948 12.392 12.462 12.392h216.243c6.514 0 11.295-5.824 11.295-12.392v-239.312l-.296-.296h-57.242z"/><g fill="#fff"><path d="M182.46 71h57.24l-69.7-69.7v57.31c0 6.569 5.948 12.393 12.462 12.393"/><path d="M19.19 274.77h58.61v21.84h-58.61zM92.28 274.77h58.61v21.84h-58.61zM167.64 274.77h58.61v21.84h-58.61zM19.19 242.28h58.61v21.84h-58.61zM92.28 242.28h58.61v21.84h-58.61zM167.64 242.28h58.61v21.84h-58.61zM19.19 208.71h58.61v21.84h-58.61zM92.28 208.71h58.61v21.84h-58.61zM167.64 208.71h58.61v21.84h-58.61zM19.19 176.22h58.61v21.84h-58.61zM92.28 176.22h58.61v21.84h-58.61zM167.64 176.22h58.61v21.84h-58.61z"/><text transform="translate(20.947 129.58)" font-family="'Palatino-Bold'" font-size="133.7">X</text></g></svg>