<svg xmlns="http://www.w3.org/2000/svg" viewBox="51 75 197 175" enable-background="new 51 75 197 175"><g fill="#91BCCC"><path d="M90.1 248.1c-1.7-2.7-3.6-5.3-5.2-8.1-8.8-15.1-17.4-30.3-26.3-45.3-1.5-2.6-1.4-4.4.1-6.8 8.1-13.6 16.1-27.3 24.1-40.9 9.1-15.6 18.1-31.3 27.1-47 2.5-4.3 4.8-8.8 7.4-13.1.6-1.1 1.9-1.8 2.9-2.6.5 1 .8 2.1 1.4 3.1 8.9 15.5 17.9 30.9 26.7 46.5 1.5 2.7 2.7 5.6 4 8.4-.4.5-.9.9-1.2 1.4-6.9 11.9-13.7 23.8-20.5 35.8l-6.4 12.1c-1.1 1-2.6 1.7-3.2 2.9-1.4 2.6-2.4 5.4-3.7 8-.8 1.7-2 3.2-2.8 4.8-2.6 5-5.1 10.1-7.8 15.1-3.5 6.4-6.9 12.9-10.8 19.1-1.6 2.4-1.7 6.4-5.8 6.6"/><path d="M90.1 248.1c4.1-.2 4.2-4.2 5.7-6.6 3.9-6.2 7.3-12.6 10.8-19.1 2.7-5 5.2-10.1 7.8-15.1.9-1.6 2-3.1 2.8-4.8 1.3-2.6 2.2-5.5 3.7-8 .7-1.2 2.1-2 3.2-2.9l52.9.1c1.4 0 2.7-.3 4.1-.4 1.9.2 3.7.5 5.6.5 20.4.1 40.7.1 61.1.1l-11.1 19.7c-6.5 11.4-13 22.7-19.4 34.2-1.5 2.6-3.3 3.7-6.3 3.7l-116.8-.1c-1.4-.2-2.7-.9-4.1-1.3"/><path d="M247.8 191.8c-20.4 0-40.7 0-61.1-.1-1.9 0-3.7-.3-5.6-.5 0-.4 0-.8-.2-1.1-6.4-10.9-12.7-21.8-19.2-32.6-3.1-5.2-6.4-10.2-9.6-15.3-1.3-2.8-2.4-5.7-4-8.4l-26.7-46.5c-.6-1-.9-2.1-1.4-3.1 7.8-.1 15.7-.2 23.5-.2 13.1 0 26.3-.1 39.4.1 1.5 0 3.7 1.1 4.5 2.4 10.7 18.2 21.2 36.5 31.8 54.8 8.7 15 17.4 30 26 45.1 1 1.7 1.8 3.6 2.6 5.4"/></g><path fill="#0C9F5E" d="M85.8 240.1c-1.7-2.7-3.6-5.3-5.2-8.1-8.8-15.1-17.4-30.3-26.3-45.3-1.5-2.6-1.4-4.4.1-6.8 8.1-13.6 16.1-27.3 24.1-40.9 9.1-15.6 18.1-31.3 27.1-47 2.5-4.3 4.8-8.8 7.4-13.1.6-1.1 1.9-1.8 2.9-2.6.5 1 .8 2.1 1.4 3.1 8.9 15.5 17.9 30.9 26.7 46.5 1.5 2.7 2.7 5.6 4 8.4-.4.5-.9.9-1.2 1.4-6.9 11.9-13.7 23.8-20.5 35.8l-6.4 12.1c-1.1 1-2.6 1.7-3.2 2.9-1.4 2.6-2.4 5.4-3.7 8-.8 1.7-2 3.2-2.8 4.8-2.6 5-5.1 10.1-7.8 15.1-3.5 6.4-6.9 12.9-10.8 19.1-1.6 2.4-1.6 6.4-5.8 6.6"/><path fill="#3278EE" d="M85.8 240.1c4.1-.2 4.2-4.2 5.7-6.6 3.9-6.2 7.3-12.6 10.8-19.1 2.7-5 5.2-10.1 7.8-15.1.9-1.6 2-3.1 2.8-4.8 1.3-2.6 2.2-5.5 3.7-8 .7-1.2 2.1-2 3.2-2.9l52.9.1c1.4 0 2.7-.3 4.1-.4 1.9.2 3.7.5 5.6.5 20.4.1 40.7.1 61.1.1l-11.1 19.7c-6.5 11.4-13 22.7-19.4 34.2-1.5 2.6-3.3 3.7-6.3 3.7l-116.8-.1c-1.4-.2-2.7-.9-4.1-1.3"/><path fill="#F8C943" d="M243.5 183.8c-20.4 0-40.7 0-61.1-.1-1.9 0-3.7-.3-5.6-.5 0-.4 0-.8-.2-1.1-6.4-10.9-12.7-21.8-19.2-32.6-3.1-5.2-6.4-10.2-9.6-15.3-1.3-2.8-2.4-5.7-4-8.4l-26.7-46.5c-.6-1-.9-2.1-1.4-3.1 7.8-.1 15.7-.2 23.5-.2 13.1 0 26.3-.1 39.4.1 1.5 0 3.7 1.1 4.5 2.4 10.7 18.2 21.2 36.5 31.8 54.8 8.7 15 17.4 30 26 45.1 1.1 1.7 1.8 3.6 2.6 5.4"/></svg>