<svg xmlns="http://www.w3.org/2000/svg" width="262.619" height="263.444"><path fill="#EAEAEA" d="M262.619 251.444c0 6.627-5.373 12-12 12h-230.619c-6.627 0-12-5.373-12-12v-230.971c0-6.627 5.373-12 12-12h230.619c6.627 0 12 5.373 12 12v230.971z"/><path fill="#fff" d="M94.315 254.971c8.456-14.99 16.881-29.997 25.423-44.937.826-1.445 2.206-3.154 3.66-3.565 10.737-3.032 15.925-11.528 21.018-20.357 5.313-9.209 10.556-18.507 16.589-27.243 10.028-14.522 8.499-29.029.64-43.431-8.15-14.934-20.887-22.879-38.236-22.761-8.869.06-17.738.01-26.607.01h-28.723c-1.425-16.187-1.027-16.646 13.342-16.647 44.641-.004 89.282.007 133.923-.021 3.047-.002 6.093-.281 9.14-.431-2.014-2.72-4.241-3.77-6.584-4.266-43.322-9.171-86.661-18.267-129.991-27.4-24.964-5.261-54.845 14.767-60.779 41.937l15.64-14.952c0 8.692-.005 15.408.001 22.123.014 17.636 6.416 24.121 23.875 24.142 16.851.021 33.708-.247 50.552.095 14.467.294 22.909 9.914 21.318 23.435-1.477 12.548-12.426 19.918-26.026 17.044-4.752-1.004-9.256-3.186-15.424-5.381 9.174 20.937 1.953 38.099-8.283 55.114-9.333 15.514-17.661 31.632-26.417 47.493h-10.65c11.421-21.14 23.19-42.101 34.146-63.479 11.462-22.365 2.594-48.672-20.04-61.726-21.208-12.231-44.43-6.472-58.885 14.59-2.287 3.332-4.624 6.629-6.938 9.942v-141.603c0-3.421 1.36-6.521 3.561-8.804-2.396 2.309-3.892 5.545-3.892 9.135v229.58c0 7.011 5.685 12.696 12.696 12.696 0 0 236.053-1.496 238.362-3.892-2.283 2.201-5.382 3.561-8.804 3.561h-147.607v-.001z"/><path fill="#D8D8D8" d="M241.923 0h-229.227c-3.59 0-6.826 1.496-9.135 3.892-2.201 2.283-3.561 5.382-3.561 8.804v141.603c2.314-3.313 4.651-6.61 6.938-9.942 14.454-21.062 37.677-26.821 58.885-14.59 22.635 13.054 31.502 39.361 20.04 61.726-10.956 21.378-22.725 42.34-34.146 63.479h10.65c8.756-15.861 17.085-31.979 26.417-47.493 10.235-17.015 17.457-34.177 8.283-55.114 6.167 2.196 10.671 4.377 15.424 5.381 13.6 2.873 24.549-4.496 26.026-17.044 1.591-13.52-6.851-23.141-21.318-23.435-16.844-.342-33.701-.074-50.552-.095-17.459-.021-23.86-6.506-23.875-24.142-.005-6.716-.001-13.431-.001-22.123l-15.64 14.952c5.934-27.169 35.815-47.198 60.778-41.937 43.331 9.133 86.669 18.228 129.991 27.4 2.344.496 4.57 1.546 6.584 4.266-3.047.15-6.093.429-9.14.431-44.641.028-89.282.017-133.923.021-14.369.001-14.767.46-13.342 16.648h28.723c8.869 0 17.739.051 26.607-.01 17.349-.118 30.086 7.827 38.236 22.761 7.859 14.401 9.388 28.909-.64 43.431-6.032 8.735-11.275 18.033-16.589 27.243-5.094 8.829-10.282 17.325-21.018 20.357-1.455.411-2.834 2.12-3.66 3.565-8.542 14.94-16.967 29.948-25.423 44.937h147.609c3.421 0 6.521-1.36 8.804-3.561 2.396-2.309 3.892-5.545 3.892-9.135v-229.58c-.001-7.012-5.685-12.696-12.697-12.696z"/></svg>