<svg xmlns="http://www.w3.org/2000/svg" viewBox="37 62 206 151" enable-background="new 37 62 206 151"><g fill="#91BCCC"><path d="M53.4 71.9h177.6v140.7h-177.6v-140.7zM67.8 212.6c-4.4 0-8.8.1-13.1 0-4.5-.1-8-3.8-8.4-8.5v-122.2c0-4.9 2.7-8.6 7.2-9.4 2.2-.4 4.4-.1 6.7.3 3.2.6 5.2 2.8 7.5 4.5 24.8 17.6 49.5 35.4 74.2 53.1 1.4 1 2.2 1.1 3.7.1 24-17.2 48.1-34.4 72.2-51.6l1.5-.9v30.5l-60.5 43.1c-4.8 3.4-9.6 6.9-14.4 10.4l-.9.2-1.5-1.1c-.3-.1-.6-.2-.9-.4-.4-.4-.8-.9-1.3-1.3l-49.6-35.7c-7.3-5.2-14.6-10.4-21.9-15.7l-.3.1v100.5c-.2 1.3-.2 2.6-.2 4"/><path d="M144.2 161.9c4.8-3.5 9.6-7 14.4-10.4 20.1-14.4 40.3-28.8 60.5-43.1l.3.1v102.5l-.1 1.3c-.3 0-.5 0-.8-.1l-11-7.6-49.9-33.6-13.4-9.1"/><path d="M219.3 212.3l.1-1.3v-131.7c0-.4-.2-.8-.3-1.2v-.2c2.7-1.9 5.1-4.3 8.1-5.4 3-1 6.5-.8 9.4 1 2.7 1.7 4 4.2 4.3 7.3v121.7c0 5.3-2.5 8.8-7.1 9.9-.8.2-1.6.2-2.5.2h-10.6c-.4 0-.9-.2-1.4-.3"/><path d="M143.3 162.1c-1.6 1.2-3.1 2.5-4.7 3.6l-33.7 23-34.1 23.3c-.3.2-.5.4-.7.7h-2.3l.1-4c.5-.2 1.1-.4 1.6-.7 4.7-3.2 9.4-6.4 14.2-9.5l54.9-36.9c.7-.5 1.6-.5 2.4-.8.3.1.6.2.9.4.4.2.9.5 1.4.9"/><path d="M219.1 78c.1.4.3.8.3 1.2v29.2l-.3-.1v-30.3"/><path d="M68.2 108l-.3.1.3-.1"/></g><path fill="#fff" d="M45.2 63.6h177.6v140.7h-177.6v-140.7z"/><path fill="#EC4335" d="M59.5 204.3c-4.4 0-8.8.1-13.1 0-4.5-.1-8-3.8-8.4-8.5v-122.2c0-4.9 2.7-8.6 7.2-9.4 2.2-.4 4.4-.1 6.7.3 3.2.6 5.2 2.8 7.5 4.5 24.8 17.6 49.5 35.4 74.2 53.1 1.4 1 2.2 1.1 3.7.1 24-17.2 48.1-34.4 72.2-51.6l1.5-.9v30.400000000000002l-60.5 43.1c-4.8 3.4-9.6 6.9-14.4 10.4l-.9.2-1.5-1.1c-.3-.1-.6-.2-.9-.4-.4-.4-.8-.9-1.3-1.3l-49.6-35.7c-7.3-5.2-14.6-10.4-21.9-15.7l-.3.1v100.5c-.1 1.5-.2 2.8-.2 4.1"/><path fill="#CBCBBD" d="M136 153.6c4.8-3.5 9.6-7 14.4-10.4 20.1-14.4 40.3-28.8 60.5-43.1l.3.1v102.5l-.1 1.3c-.3 0-.5 0-.8-.1l-11-7.6-49.9-33.6c-4.6-3-9-6-13.4-9.1"/><path fill="#A6342B" d="M211 204l.1-1.3v-131.7c0-.4-.2-.8-.3-1.2v-.1c2.7-1.9 5.1-4.3 8.1-5.4 3-1 6.5-.8 9.5 1 2.7 1.7 4 4.2 4.3 7.3v121.7c0 5.3-2.5 8.8-7.1 9.9-.8.2-1.6.2-2.5.2h-10.6l-1.5-.4"/><path fill="#D2CBBD" d="M135 153.8c-1.6 1.2-3.1 2.5-4.7 3.6l-33.7 23-34.1 23.3c-.3.2-.5.4-.7.7h-2.3l.1-4c.5-.2 1.1-.4 1.6-.7 4.7-3.2 9.4-6.4 14.2-9.5l54.9-36.9c.7-.5 1.6-.5 2.4-.8.3.1.6.2.9.4.4.2.9.6 1.4.9"/><path fill="#E66559" d="M210.9 69.8c.1.4.3.8.3 1.2v29.2l-.3-.1c-.1-10.1 0-20.2 0-30.3"/><path fill="#D2CBBD" d="M59.9 99.7l-.3.1c.1 0 .2 0 .3-.1"/></svg>