<svg xmlns="http://www.w3.org/2000/svg" viewBox="0 0 250 333" enable-background="new 0 0 250 333"><path fill="#91bccc" d="M248.704 81l-69.704-69.704-1.296-1.296h-156.242c-6.514 0-12.462 4.751-12.462 11.319v299.289c0 6.568 5.948 12.392 12.462 12.392h216.243c6.514 0 11.295-5.824 11.295-12.392v-239.312l-.296-.296z"/><path fill="#3fa0c2" d="M182.462 71c-6.514 0-12.462-5.824-12.462-12.392v-57.312l-1.296-1.296h-156.242c-6.514 0-12.462 4.751-12.462 11.319v299.289c0 6.568 5.948 12.392 12.462 12.392h216.243c6.514 0 11.295-5.824 11.295-12.392v-239.312l-.296-.296h-57.242z"/><g fill="#fff"><path d="M182.46 71h57.24l-69.7-69.7v57.31c0 6.569 5.948 12.393 12.462 12.393"/><text transform="translate(24.805 157.29)" font-family="'Palatino-Roman'" font-size="154.86">w</text></g><g fill="#79c7e3"><path d="M25 196h191v10h-191zM25 221h191v10h-191zM25 245h191v10h-191zM25 269h191v10h-191z"/></g></svg>