<svg xmlns="http://www.w3.org/2000/svg" width="250" height="333"><g><path fill="#91BCCC" d="M248.704 81l-69.704-69.704-1.296-1.296h-156.242c-6.514 0-12.462 4.751-12.462 11.319v299.289c0 6.568 5.948 12.392 12.462 12.392h216.243c6.514 0 11.295-5.824 11.295-12.392v-239.312l-.296-.296z"/><path fill="#E74C3C" d="M182.462 71c-6.514 0-12.462-5.824-12.462-12.392v-57.312l-1.296-1.296h-156.242c-6.514 0-12.462 4.751-12.462 11.319v299.289c0 6.568 5.948 12.392 12.462 12.392h216.243c6.514 0 11.295-5.824 11.295-12.392v-239.312l-.296-.296h-57.242z"/><path fill="#fff" d="M182.462 71h57.242l-69.704-69.704v57.311c0 6.569 5.948 12.393 12.462 12.393z"/><rect x="25" y="196" fill="#fff" width="191" height="10"/><rect x="25" y="221" fill="#fff" width="191" height="10"/><rect x="25" y="245" fill="#fff" width="191" height="10"/><rect x="25" y="269" fill="#fff" width="191" height="10"/></g><path fill="#fff" d="M72.649 32.389c-.663 5.574-1.413 12.058-2.225 18.534-.143 1.144-.1 2.14.497 3.182 5.481 9.556 10.826 19.192 16.43 28.675 1.772 2.999 4.181 5.627 6.371 8.367.265.331 1.03.507 1.486.405 5.452-1.215 10.916-1.371 16.423-.419 3.083.533 5.293 2.874 5.341 5.911.04 2.542-1.132 4.492-3.167 5.992-4.811 3.544-9.871 3.755-15.017.951-2.326-1.267-4.418-2.961-6.667-4.381-.524-.331-1.318-.592-1.879-.452-12.966 3.245-25.474 7.809-37.645 13.303-.651.294-1.23.993-1.593 1.642-3.39 6.064-7.048 11.956-11.643 17.185-3.405 3.875-7.319 7.149-12.396 8.687-4.169 1.263-8.098.782-11.653-1.816-2.065-1.509-2.634-3.518-1.717-5.89 1.353-3.501 3.976-5.979 6.946-8.066 7.798-5.479 16.072-10.16 24.607-14.384.975-.482 1.599-1.094 2.031-2.109 4.294-10.079 7.659-20.471 10.364-31.072 1.691-6.625 3.094-13.322 4.662-19.978.313-1.329.108-2.514-.443-3.74-3.294-7.336-4.601-15.086-4.676-23.077-.026-2.751.586-5.381 1.721-7.884 1.29-2.844 3.677-4.121 7.331-3.941 2.496.123 4.194 1.571 5.173 4.472.269.797.519 1.62.619 2.45.255 2.16.424 4.328.719 7.453zm-16.928 72.33c5.236-2.067 10.144-4.136 15.148-5.943 4.981-1.799 10.057-3.335 15.225-5.03-7.435-8.098-13.295-17.211-18.391-26.936-2.897 12.929-6.474 25.586-11.982 37.909zm-13.295 12.586c-.682.276-1.092.399-1.46.598-4.13 2.236-8.295 4.414-12.359 6.765-1.555.9-2.971 2.103-4.282 3.346-1.503 1.425-2.306 3.228-2.056 5.394.11.952.472 1.577 1.515 1.278 1.9-.544 3.953-.86 5.633-1.815 5.547-3.152 9.063-8.225 12.149-13.628.296-.518.49-1.096.86-1.938zm21.392-79.376c.421-.702.878-1.148.959-1.654.467-2.914.946-5.834 1.186-8.771.065-.798-.533-1.779-1.087-2.466-.701-.869-1.636-.589-2.036.474-.138.368-.203.771-.251 1.164-.413 3.344-.001 6.63.728 9.89.084.372.263.723.501 1.363zm36.634 59.289l-.17.406 6.12 2.96c.496-2.965-2.204-4.292-5.95-3.366z"/></svg>