<svg xmlns="http://www.w3.org/2000/svg" width="252.72" height="253.06" viewBox="1 1 252.725 253.064" enable-background="new 1 1 252.725 253.064"><path fill="#91bccc" d="M253.72 242.06c0 6.627-5.373 12-12 12h-216.67c-6.627 0-12-5.373-12-12v-217c0-6.627 5.373-12 12-12h216.67c6.627 0 12 5.373 12 12v217"/><path fill="#4aa3ef" d="M241.667 230c0 6.627-5.373 12-12 12h-216.667c-6.627 0-12-5.373-12-12v-217c0-6.627 5.373-12 12-12h216.667c6.627 0 12 5.373 12 12v217z"/><g fill="#fff"><path d="M38.33 74.67l33.09 28.58 48.91-32.58-34.16-28.34zM122.42 70.75l34-28.42 48.06 32.23-33.06 28.69-49-32.31"/><path d="M171.42 104.56l-49.5 32.38 34.37 28.5 48.06-32.81zM71.67 165.81v8.07l49.66 30.56 50.09-30.81v-8.19l-15 9.5-35.09-29.38-34.85 28.82zM38.33 132.33l33.34-28.08 48.66 32.5-33.75 28.69z"/></g></svg>