<svg xmlns="http://www.w3.org/2000/svg" viewBox="348 0 265 263.4" enable-background="new 348 0 265 263.4"><path fill="#EAEAEA" d="M611.3 251.4c0 6.6-5.4 12-12 12h-230.6c-6.6 0-12-5.4-12-12v-231c0-6.6 5.4-12 12-12h230.6c6.6 0 12 5.4 12 12v231"/><path fill="#fff" d="M443 255c8.5-15 16.9-30 25.4-44.9.8-1.4 2.2-3.2 3.7-3.6 10.7-3 15.9-11.5 21-20.4 5.3-9.2 10.6-18.5 16.6-27.2 10-14.5 8.5-29 .6-43.4-8.1-14.9-20.9-22.9-38.2-22.8-8.9.1-17.7 0-26.6 0h-28.7c-1.4-16.2-1-16.6 13.3-16.6h133.9c3 0 6.1-.3 9.1-.4-2-2.7-4.2-3.8-6.6-4.3-43.3-9.2-86.7-18.3-130-27.4-25-5.3-54.8 14.8-60.8 41.9 5.3-5.1 9.8-9.4 15.6-15v22.1c0 17.6 6.4 24.1 23.9 24.1 16.9 0 33.7-.2 50.6.1 14.5.3 22.9 9.9 21.3 23.4-1.5 12.5-12.4 19.9-26 17-4.8-1-9.3-3.2-15.4-5.4 9.2 20.9 2 38.1-8.3 55.1-9.3 15.5-17.7 31.6-26.4 47.5h-10.6c11.4-21.1 23.2-42.1 34.1-63.5 11.5-22.4 2.6-48.7-20-61.7-21.2-12.2-44.4-6.5-58.9 14.6l-6.9 9.9v-141.4c0-3.4 1.4-6.5 3.6-8.8-2.4 2.3-3.9 5.5-3.9 9.1v229.6c0 7 5.7 12.7 12.7 12.7 0 0 236-1.5 238.4-3.9-2.3 2.2-5.4 3.6-8.8 3.6h-147.7z"/><path fill="#26AAE0" d="M590.6 0h-229.2c-3.6 0-6.8 1.5-9.1 3.9-2.2 2.3-3.6 5.4-3.6 8.8v141.6c2.3-3.3 4.7-6.6 6.9-9.9 14.5-21.1 37.7-26.8 58.9-14.6 22.6 13 31.5 39.4 20 61.7-11 21.4-22.7 42.3-34.1 63.5h10.6c8.8-15.9 17.1-32 26.4-47.5 10.2-17 17.5-34.2 8.3-55.1 6.2 2.2 10.7 4.4 15.4 5.4 13.6 2.9 24.5-4.5 26-17 1.6-13.5-6.9-23.1-21.3-23.4-16.8-.3-33.7-.1-50.6-.1-17.5 0-23.9-6.5-23.9-24.1v-22.1c-5.8 5.6-10.3 9.9-15.6 15 5.9-27.2 35.8-47.2 60.8-41.9 43.3 9.1 86.7 18.2 130 27.4 2.3.5 4.6 1.5 6.6 4.3-3 .2-6.1.4-9.1.4h-133.9c-14.4 0-14.8.5-13.3 16.6h28.7c8.9 0 17.7.1 26.6 0 17.3-.1 30.1 7.8 38.2 22.8 7.9 14.4 9.4 28.9-.6 43.4-6 8.7-11.3 18-16.6 27.2-5.1 8.8-10.3 17.3-21 20.4-1.5.4-2.8 2.1-3.7 3.6-8.5 14.9-17 29.9-25.4 44.9h147.6c3.4 0 6.5-1.4 8.8-3.6 2.4-2.3 3.9-5.5 3.9-9.1v-229.8c0-7-5.7-12.7-12.7-12.7"/></svg>