<svg xmlns="http://www.w3.org/2000/svg" viewBox="0 0 252.7 253.1" enable-background="new 0 0 252.7 253.1"><path fill="#91BCCC" d="M253.7 242.1c0 6.6-5.4 12-12 12h-216.7c-6.6 0-12-5.4-12-12v-217c0-6.6 5.4-12 12-12h216.7c6.6 0 12 5.4 12 12v217"/><path fill="#4AA3EF" d="M241.7 230c0 6.6-5.4 12-12 12h-216.7c-6.6 0-12-5.4-12-12v-217c0-6.6 5.4-12 12-12h216.7c6.6 0 12 5.4 12 12v217z"/><g fill="#fff"><path d="M38.3 74.7l33.1 28.6 48.9-32.6-34.1-28.4-47.9 32.4zM122.4 70.7l34-28.4 48.1 32.2-33.1 28.7-49-32.3"/><path d="M171.4 104.6l-49.5 32.4 34.4 28.5 48.1-32.8-33-28.1zM71.7 165.8v8.1l49.7 30.6 50.1-30.8v-8.2l-15 9.5-35.1-29.4-34.8 28.8-14.9-8.6zM38.3 132.3l33.3-28.1 48.7 32.5-33.7 28.7-48.3-33.1z"/></g></svg>