<svg xmlns="http://www.w3.org/2000/svg" width="203.102" height="149.005" viewBox="37.924 63.628 203.102 149.005" enable-background="new 37.924 63.628 203.102 149.005"><g fill="#91BCCC"><rect x="53.415" y="71.887" width="177.632" height="140.682"/><path d="M67.749 212.57c-4.377.009-8.757.111-13.131.001-4.49-.113-8.044-3.823-8.404-8.532-.025-.331-.028-.665-.028-.997-.001-40.403-.006-80.807.005-121.21.001-4.916 2.705-8.565 7.224-9.415 2.173-.408 4.368-.133 6.651.289 3.234.598 5.166 2.833 7.499 4.492 24.78 17.626 49.486 35.356 74.175 53.109 1.368.983 2.236 1.094 3.68.058 24.04-17.232 48.13-34.394 72.213-51.564.483-.344 1.026-.603 1.541-.901l-.035.15-.044 30.331c-20.158 14.374-40.321 28.742-60.472 43.127-4.819 3.44-9.6 6.934-14.398 10.403l-.939.17-1.487-1.065-.853-.357.025.012c-.441-.436-.834-.939-1.331-1.298-16.527-11.917-33.061-23.825-49.603-35.721-7.28-5.235-14.582-10.44-21.873-15.659l-.301.14c-.013.72-.038 1.44-.038 2.16-.002 31.156-.002 62.313 0 93.469 0 1.607.023 3.214.036 4.822l-.112 3.986zM144.226 161.911c4.798-3.469 9.579-6.963 14.398-10.403 20.151-14.384 40.313-28.753 60.472-43.127l.308.099c.003 34.161.007 68.322.004 102.482 0 .437-.08.875-.123 1.312l-.791-.05c-3.679-2.541-7.335-5.118-11.042-7.618-16.642-11.224-33.303-22.421-49.949-33.64-4.441-2.994-8.852-6.035-13.277-9.055zM219.286 212.275c.043-.437.123-.875.123-1.312.003-34.161-.001-68.322-.004-102.482.017-9.728.038-19.457.038-29.185 0-.415-.198-.83-.303-1.245l.035-.15c2.676-1.854 5.128-4.342 8.089-5.383 2.965-1.043 6.472-.849 9.45 1.016 2.686 1.681 4.037 4.172 4.282 7.296.039.496.029.997.029 1.495.001 40.065.002 80.131 0 120.196 0 5.263-2.545 8.826-7.093 9.882-.798.185-1.646.208-2.472.213-3.546.022-7.093.024-10.64-.005-.512-.005-1.023-.219-1.534-.336zM143.287 162.081c-1.556 1.195-3.059 2.466-4.676 3.571-11.23 7.674-22.489 15.305-33.729 22.965-11.376 7.753-22.74 15.523-34.106 23.291-.268.183-.49.434-.733.653l-2.294.008.113-3.985c.544-.228 1.142-.374 1.623-.695 4.73-3.166 9.436-6.369 14.157-9.548 18.29-12.315 36.579-24.632 54.894-36.911.677-.454 1.619-.515 2.437-.759l-.025-.012.853.357 1.486 1.065zM219.139 78.051c.106.415.303.83.303 1.245 0 9.729-.021 19.457-.038 29.185l-.309-.099c.015-10.111.03-20.221.044-30.331zM68.165 107.993l-.301.141.301-.141z"/></g><rect x="45.155" y="63.628" fill="#fff" width="177.632" height="140.682"/><path fill="#EC4335" d="M59.489 204.31c-4.377.009-8.757.111-13.131.001-4.49-.113-8.044-3.823-8.404-8.532-.025-.331-.028-.665-.028-.997-.001-40.403-.006-80.807.005-121.21.001-4.916 2.705-8.565 7.224-9.415 2.173-.408 4.368-.133 6.651.289 3.234.598 5.166 2.833 7.499 4.492 24.78 17.626 49.486 35.356 74.175 53.109 1.368.983 2.236 1.094 3.68.058 24.04-17.232 48.13-34.394 72.213-51.564.483-.344 1.026-.603 1.541-.901l-.035.15-.044 30.331c-20.158 14.374-40.321 28.742-60.472 43.127-4.819 3.44-9.6 6.934-14.398 10.403l-.939.17-1.487-1.065-.853-.357.025.012c-.441-.436-.834-.939-1.331-1.298-16.527-11.917-33.061-23.825-49.603-35.721-7.28-5.235-14.582-10.44-21.873-15.659l-.301.14c-.013.72-.038 1.44-.038 2.16-.002 31.156-.002 62.313 0 93.469 0 1.607.023 3.214.036 4.822l-.112 3.986z"/><path fill="#CBCBBD" d="M135.966 153.651c4.798-3.469 9.579-6.963 14.398-10.403 20.151-14.384 40.313-28.753 60.472-43.127l.308.099c.003 34.161.007 68.322.004 102.482 0 .437-.08.875-.123 1.312l-.791-.05c-3.679-2.541-7.335-5.118-11.042-7.618-16.642-11.224-33.303-22.421-49.949-33.64-4.441-2.994-8.852-6.035-13.277-9.055z"/><path fill="#A6342B" d="M211.026 204.015c.043-.437.123-.875.123-1.312.003-34.161-.001-68.322-.004-102.482.017-9.728.038-19.457.038-29.185 0-.415-.198-.83-.303-1.245l.035-.15c2.676-1.854 5.128-4.342 8.089-5.383 2.965-1.043 6.472-.849 9.451 1.016 2.686 1.681 4.037 4.172 4.282 7.296.039.496.029.997.029 1.495.001 40.065.002 80.131 0 120.196 0 5.263-2.545 8.826-7.093 9.882-.798.185-1.646.208-2.472.213-3.546.022-7.093.024-10.64-.005-.513-.005-1.024-.219-1.535-.336z"/><path fill="#D2CBBD" d="M135.027 153.821c-1.556 1.195-3.059 2.466-4.676 3.571-11.23 7.674-22.49 15.305-33.729 22.965-11.376 7.753-22.74 15.523-34.106 23.291-.268.183-.49.434-.733.653l-2.294.008.113-3.985c.544-.228 1.142-.374 1.623-.695 4.73-3.166 9.436-6.369 14.157-9.548 18.29-12.315 36.579-24.632 54.894-36.911.677-.454 1.619-.515 2.437-.759l-.025-.012.853.357 1.486 1.065z"/><path fill="#E66559" d="M210.879 69.791c.106.415.303.83.303 1.245 0 9.729-.021 19.457-.038 29.185l-.309-.099c.015-10.111.03-20.221.044-30.331z"/><path fill="#D2CBBD" d="M59.905 99.733l-.301.141.301-.141z"/></svg>