<svg xmlns="http://www.w3.org/2000/svg" width="203.1" height="149" viewBox="37.924 63.628 203.102 149.005" enable-background="new 37.924 63.628 203.102 149.005"><g fill="#91bccc"><path d="M53.41 71.887h177.63v140.68h-177.63zM67.749 212.57c-4.377.009-8.757.111-13.13.001-4.49-.113-8.04-3.823-8.404-8.532-.025-.331-.028-.665-.028-.997-.001-40.4-.006-80.81.005-121.21.001-4.916 2.705-8.565 7.224-9.415 2.173-.408 4.368-.133 6.651.289 3.234.598 5.166 2.833 7.499 4.492 24.78 17.626 49.49 35.36 74.18 53.11 1.368.983 2.236 1.094 3.68.058 24.04-17.232 48.13-34.394 72.21-51.564.483-.344 1.026-.603 1.541-.901l-.035.15-.044 30.331c-20.16 14.374-40.32 28.742-60.47 43.13-4.819 3.44-9.6 6.934-14.398 10.403l-.939.17-1.487-1.065-.853-.357.025.012c-.441-.436-.834-.939-1.331-1.298-16.527-11.917-33.06-23.825-49.603-35.721-7.28-5.235-14.582-10.44-21.873-15.659l-.301.14c-.013.72-.038 1.44-.038 2.16-.002 31.16-.002 62.31 0 93.47 0 1.607.023 3.214.036 4.822l-.112 3.986"/><path d="M144.23 161.91c4.798-3.469 9.579-6.963 14.398-10.403 20.15-14.384 40.31-28.753 60.47-43.13l.308.099c.003 34.16.007 68.32.004 102.48 0 .437-.08.875-.123 1.312l-.791-.05c-3.679-2.541-7.335-5.118-11.04-7.618-16.642-11.224-33.3-22.421-49.949-33.64-4.441-2.994-8.852-6.03-13.277-9.06"/><path d="M219.29 212.28c.043-.437.123-.875.123-1.312.003-34.16-.001-68.32-.004-102.48.017-9.728.038-19.457.038-29.19 0-.415-.198-.83-.303-1.245l.035-.15c2.676-1.854 5.128-4.342 8.089-5.383 2.965-1.043 6.472-.849 9.45 1.016 2.686 1.681 4.04 4.172 4.282 7.296.039.496.029.997.029 1.495.001 40.06.002 80.13 0 120.2 0 5.263-2.545 8.826-7.093 9.882-.798.185-1.646.208-2.472.213-3.546.022-7.093.024-10.64-.005-.512-.005-1.023-.219-1.534-.336"/><path d="M143.29 162.08c-1.556 1.195-3.059 2.466-4.676 3.571-11.23 7.674-22.489 15.305-33.729 22.965-11.376 7.753-22.74 15.523-34.11 23.291-.268.183-.49.434-.733.653l-2.294.008.113-3.985c.544-.228 1.142-.374 1.623-.695 4.73-3.166 9.436-6.369 14.157-9.548 18.29-12.315 36.579-24.632 54.894-36.911.677-.454 1.619-.515 2.437-.759l-.025-.012.853.357 1.486 1.065"/><path d="M219.14 78.05c.106.415.303.83.303 1.245 0 9.729-.021 19.457-.038 29.19l-.309-.099c.015-10.111.03-20.221.044-30.331"/><path d="M68.17 107.99l-.301.141.301-.141"/></g><path fill="#fff" d="M45.16 63.63h177.63v140.68h-177.63z"/><path fill="#ec4335" d="M59.49 204.31c-4.377.009-8.757.111-13.13.001-4.49-.113-8.04-3.823-8.404-8.532-.025-.331-.028-.665-.028-.997-.001-40.4-.006-80.81.005-121.21.001-4.916 2.705-8.565 7.224-9.415 2.173-.408 4.368-.133 6.651.289 3.234.598 5.166 2.833 7.499 4.492 24.78 17.626 49.49 35.36 74.17 53.11 1.368.983 2.236 1.094 3.68.058 24.04-17.232 48.13-34.394 72.21-51.564.483-.344 1.026-.603 1.541-.901l-.035.15-.044 30.331c-20.16 14.374-40.32 28.742-60.47 43.13-4.819 3.44-9.6 6.934-14.398 10.403l-.939.17-1.487-1.065-.853-.357.025.012c-.441-.436-.834-.939-1.331-1.298-16.527-11.917-33.06-23.825-49.603-35.721-7.28-5.235-14.582-10.44-21.873-15.659l-.301.14c-.013.72-.038 1.44-.038 2.16-.002 31.16-.002 62.31 0 93.47 0 1.607.023 3.214.036 4.822l-.112 3.986"/><path fill="#cbcbbd" d="M135.97 153.65c4.798-3.469 9.579-6.963 14.398-10.403 20.15-14.384 40.31-28.753 60.47-43.13l.308.099c.003 34.16.007 68.32.004 102.48 0 .437-.08.875-.123 1.312l-.791-.05c-3.679-2.541-7.335-5.118-11.04-7.618-16.642-11.224-33.3-22.421-49.949-33.64-4.441-2.994-8.852-6.04-13.277-9.06"/><path fill="#a6342b" d="M211.03 204.01c.043-.437.123-.875.123-1.312.003-34.16-.001-68.32-.004-102.48.017-9.728.038-19.457.038-29.19 0-.415-.198-.83-.303-1.245l.035-.15c2.676-1.854 5.128-4.342 8.089-5.383 2.965-1.043 6.472-.849 9.451 1.016 2.686 1.681 4.04 4.172 4.282 7.296.039.496.029.997.029 1.495.001 40.06.002 80.13 0 120.2 0 5.263-2.545 8.826-7.093 9.882-.798.185-1.646.208-2.472.213-3.546.022-7.093.024-10.64-.005-.513-.005-1.024-.219-1.535-.336"/><path fill="#d2cbbd" d="M135.03 153.82c-1.556 1.195-3.059 2.466-4.676 3.571-11.23 7.674-22.49 15.305-33.729 22.965-11.376 7.753-22.74 15.523-34.11 23.291-.268.183-.49.434-.733.653l-2.294.008.113-3.985c.544-.228 1.142-.374 1.623-.695 4.73-3.166 9.436-6.369 14.157-9.548 18.29-12.315 36.579-24.632 54.894-36.911.677-.454 1.619-.515 2.437-.759l-.025-.012.853.357 1.486 1.065"/><path fill="#e66559" d="M210.88 69.791c.106.415.303.83.303 1.245 0 9.729-.021 19.457-.038 29.19l-.309-.099c.015-10.111.03-20.221.044-30.331"/><path fill="#d2cbbd" d="M59.905 99.73l-.301.141.301-.141"/></svg>