<svg xmlns="http://www.w3.org/2000/svg" viewBox="0 0 250.9 251.3" enable-background="new 0 0 250.9 251.3"><path fill="#91BCCC" d="M250.9 239.3c0 6.6-5.4 12-12 12h-216.6c-6.6 0-12-5.4-12-12v-217c0-6.6 5.4-12 12-12h216.7c6.6 0 12 5.4 12 12v217"/><path fill="#2ECC71" d="M240.7 229c0 6.6-5.4 12-12 12h-216.7c-6.6 0-12-5.4-12-12v-217c0-6.6 5.4-12 12-12h216.7c6.6 0 12 5.4 12 12v217z"/><g fill="#2D2D2D"><path d="M148.3 173.5c-3 .5-5.8 1-8.7 1.4-5.5.9-5.9 4.8-4.7 8.9.2.7.5 1.3.8 2 .9 1.6 1.8 2.9 4 3 4.1.1 8.3 1 12.4 1 4.3 0 8.7-.1 12.4-2.7 1.8-1.3 2.7-3 2.7-5.1-.1-6.1-.1-12.1-.7-18.2-.3-3.9-1.7-7.6-4.7-10.4-2.1-1.9-4.5-2.7-7.3-3-5.5-.5-11.1-.6-16.6-1.4-3.1-.4-6.1-1.4-9-2.6-4.2-1.7-5.7-5.3-6-9.6l-.8-11.2c-.1-1.8-1.3-1.1-2.2-1.2-1.2-.1-.9.8-.9 1.5-.2 5.1-.3 10.2-.7 15.2-.3 3.7-1.3 7.4-3.2 10.7-1.3 2.3-3.3 3.7-6.1 4.2-5.4 1.1-10.6.3-15.7-1.1-7.5-2.1-15-4.5-22.4-6.9-3.3-1.1-6.7-2.3-9.9-3.7-5.1-2.2-8.2-6.4-9.4-11.7-1.3-5.4-2.1-11-3.1-16.5-.7-3.9-1.5-7.8-2.1-11.7-1-6.2-1.9-12.5-2.8-18.7-.5-3.5-.4-7 0-10.6.6-5.6 4.5-9.4 10.1-9.4 5.2-.1 10.4.1 15.6-.1 3.2-.1 6.3-.6 9.4-1.1 2.2-.4 4.6-3.2 4.6-6-.1-7.2-.2-14.3 0-21.5.1-2.3 1-4.7 1.9-6.9.8-1.9 2.8-2.8 4.7-3.2 3.5-.8 7-1.5 10.6-1.9 3.9-.4 7.9-.5 11.9-.4 4.4.1 8.8.5 12.8 2.7 3.7 2 6.7 4.8 8.1 8.9.5 1.3 1.2 1.7 2.6 1.7 6.9.1 13.8.2 20.7.7 5.3.4 10.6 1.3 15.8 2.3 4 .8 7.9 2 11.8 3.2 4.6 1.4 6.9 5.1 8.4 9.4 1.4 4 1.7 8.2 1.9 12.4.4 8.6 1 17.2 1.5 25.8.2 4.4.5 8.7.6 13.1.2 4.1.4 8.2.3 12.3-.2 5.2-.7 10.4-1.1 15.7-.4 4.7-.8 9.3-1.3 13.9-.4 3.9-1 7.8-1.6 11.7-.7 4.6-1.2 9.1-2.1 13.7-.6 3.2-1.5 6.4-2.5 9.5-1.6 4.7-3.4 9.4-5.3 14.1-2.5 6.2-7.2 9.9-13.7 11.5-8 1.9-16 1.6-24.1 1.3-4.4-.1-8.8-.7-13-1.9-4.6-1.3-8.6-3.6-10.8-8-1-2-1.2-4.4-1.5-6.7-.4-3.1-.7-6.3-.6-9.4.2-5.2.7-10.5 3.9-15 2.1-3 4.9-5 8.6-5.6 4.5-.7 9-1.3 13.6-1.1.5 0 .9 0 1.4.1 1.8.3 2 .7 1.4 2.5-1.1 3.1-.8 6.2-.2 9.3.2.2.2.5.3.8m22.5-59c-.3-2.6-.5-4.9-.9-7.1-.7-3.9-2.5-7-6.5-8.2-4.4-1.3-7.9-.5-10.3 2.9-1.3 1.8-2 3.9-2.8 6-.4 1.1-.5 2.4-.8 3.9 7.3-.6 14.3-1.1 21.3 2.5M78.4 30.9c-.1.3-.3 1-.5 1.8-1.4 5.8-.8 11.6-.7 17.5 0 2.3.1 4.5 0 6.8-.1 1.6-1.5 2.5-3.7 2.5-4.8 0-9.7-.1-14.5.1-3.2.1-6.3.7-9.5 1.1-.4.1-.9.1-1.1.1 10.1-10 20.2-20 30-29.9"/></g></svg>