<svg xmlns="http://www.w3.org/2000/svg" viewBox="0 0 100 100" enable-background="new 0 0 100 100"><path fill="#fff" d="M91.47 78.79l-15.596-15.598c4.237-6.102 6.728-13.512 6.728-21.49 0-20.844-16.962-37.799-37.805-37.799-20.844 0-37.8 16.955-37.8 37.799 0 20.849 16.956 37.803 37.8 37.803 5.744 0 11.189-1.29 16.07-3.593l16.742 16.744c1.805 1.799 4.214 2.79 6.777 2.79 2.627 0 5.106-1.032 6.979-2.901 3.82-3.821 3.867-9.996.106-13.755m-69.35-37.09c0-12.505 10.176-22.682 22.681-22.682 12.507 0 22.683 10.177 22.683 22.682 0 12.509-10.176 22.685-22.683 22.685-12.505 0-22.681-10.176-22.681-22.685"/></svg>