<?xml version="1.0" encoding="utf-8"?>
<!-- Generated by IcoMoon.io -->
<!DOCTYPE svg PUBLIC "-//W3C//DTD SVG 1.1//EN" "http://www.w3.org/Graphics/SVG/1.1/DTD/svg11.dtd">
<svg version="1.1" xmlns="http://www.w3.org/2000/svg" xmlns:xlink="http://www.w3.org/1999/xlink" width="64" height="64" viewBox="0 0 64 64">
	<path d="M56 64h-48q-3.313 0-5.656-2.344t-2.344-5.656v-6q0-1.625 1.156-2.813t2.813-1.188 2.844 1.188 1.188 2.813v2q0 1.688 1.156 2.844t2.844 1.156h40q1.625 0 2.813-1.156t1.188-2.844v-2q0-1.625 1.156-2.813t2.813-1.188 2.844 1.188 1.188 2.813v6q0 3.313-2.344 5.656t-5.656 2.344zM34.063 47.125q-0.875 0.875-2.063 0.875t-2.063-0.875l-21.313-21.563q-0.75-0.813-0.531-1.188t1.156-0.375h14.75v-20q0-1.688 1.156-2.844t2.844-1.156h8q1.688 0 2.844 1.156t1.156 2.844v20h14.688q0.938 0 1.188 0.375t-0.5 1.188z" fill="#ffffff" />
</svg>
