<?xml version="1.0" encoding="utf-8"?>
<!-- Generator: Adobe Illustrator 17.0.2, SVG Export Plug-In . SVG Version: 6.00 Build 0)  -->
<!DOCTYPE svg PUBLIC "-//W3C//DTD SVG 1.1//EN" "http://www.w3.org/Graphics/SVG/1.1/DTD/svg11.dtd">
<svg version="1.1" id="Calque_1" xmlns="http://www.w3.org/2000/svg" xmlns:xlink="http://www.w3.org/1999/xlink" x="0px" y="0px"
	 width="32px" height="32px" viewBox="0 0 32 32" enable-background="new 0 0 32 32" xml:space="preserve">
<path fill="#FFFFFF" d="M25,4H7C5.343,4,4,5.343,4,7v1h24V7C28,5.343,26.657,4,25,4z M19.76,2l0.441,3.156h-8.402L12.24,2L19.76,2
	 M20,0h-8c-0.825,0-1.593,0.668-1.708,1.486L9.707,5.671c-0.114,0.817,0.467,1.486,1.292,1.486h10c0.825,0,1.407-0.668,1.292-1.486
	l-0.585-4.185C21.592,0.669,20.823,0,19.998,0l0,0L20,0z M25.5,10h-19c-1.1,0-1.918,0.896-1.819,1.992l1.638,18.016
	C6.419,31.103,7.4,32,8.5,32h15c1.1,0,2.081-0.896,2.181-1.992l1.638-18.016C27.419,10.897,26.6,10,25.5,10z M12,28H9L8,14h4V28z
	 M18,28h-4V14h4V28z M23,28h-3V14h4L23,28z"/>
</svg>
