<svg xmlns="http://www.w3.org/2000/svg" viewBox="0 0 32 32"><path d="m31.04 11.862l-11.912-3.19-2.085-7.779c-.174-.65-.87-1.029-1.555-.845l-14.52 3.89c-.685.182-1.098.859-.925 1.509l5.166 19.283c.174.65.87 1.029 1.554.845l5.781-1.549-.789 2.941c-.174.651.238 1.326.923 1.51l12.976 3.477c.685.182 1.381-.195 1.555-.845l4.754-17.738c.174-.65-.238-1.326-.923-1.509m-28.423-6.05l12.526-3.354 4.638 17.309-12.528 3.354-4.637-17.309zm22.472 23.733l-10.904-2.982.858-3.205 6.242-1.672c.685-.184 1.099-.859.925-1.51l-2.413-9 9.514 2.61-4.221 15.763z" fill="#fff"/></svg>