<svg xmlns="http://www.w3.org/2000/svg" viewBox="0 0 130.39 130.39" enable-background="new 0 0 130.39 130.39"><path fill="#5ba0d7" d="m130.39 123.9c0 3.586-2.912 6.494-6.504 6.494h-117.39c-3.591 0-6.5-2.908-6.5-6.494v-117.41c0-3.586 2.91-6.493 6.5-6.493h117.39c3.592 0 6.503 2.908 6.503 6.493v117.41"/><g fill="#fff"><path d="m20.226 39.856l17.924 15.464 26.5-17.627-18.51-15.33z"/><path d="M65.782 37.737 84.2 22.363 110.24 39.802 92.33 55.32 65.782 37.84"/><path d="M92.33 56.03 65.51 73.55 84.14 88.969 110.17 71.22z"/><path d="m38.28 89.17v4.36l26.91 16.54 27.14-16.67v-4.431l-8.13 5.141-19.01-15.89-18.88 15.59z"/><path d="M20.226 71.06 38.28 55.863 64.65 73.45 46.37 88.969z"/></g></svg>