<?xml version="1.0" encoding="utf-8"?>
<!-- Generator: Adobe Illustrator 17.1.0, SVG Export Plug-In . SVG Version: 6.00 Build 0)  -->
<!DOCTYPE svg PUBLIC "-//W3C//DTD SVG 1.1//EN" "http://www.w3.org/Graphics/SVG/1.1/DTD/svg11.dtd">
<svg version="1.1" id="Calque_1" xmlns="http://www.w3.org/2000/svg" xmlns:xlink="http://www.w3.org/1999/xlink" x="0px" y="0px"
	 viewBox="388 0 565 560" enable-background="new 388 0 565 560" xml:space="preserve">
<path fill="#E4E4E4" d="M951,533.6c0,14.6-11.8,26.5-26.3,26.5H417.2c-14.5,0-26.2-11.8-26.2-26.5V26.5C391,11.8,402.7,0,417.2,0
	h507.5C939.3,0,951,11.8,951,26.5V533.6L951,533.6z"/>
<g>
	<path fill="#3387D3" d="M520.4,330c-1.9,5.9-0.5,10,4.5,13.6c3,2.2,6.4,3.7,10,4.8c7.9,2.5,15.9,3.2,24.1,3.2
		c5.5,0,10.9-0.3,16.3-1.4c7.8-1.5,14.6-4.7,19.9-10.8c1.8-2.1,3.2-4.4,3.9-7.1c1.6-6.1-0.8-10.6-6.9-12.5c-0.6-0.2-1.2-0.4-1.8-0.5
		c-5.5-0.6-11.1-1.5-16.7-1.8c-13.5-0.6-26.9-0.8-40.3-2.5c-2.4-0.3-3.8,0.3-5.2,2.1C525.1,321.1,522,325.1,520.4,330z"/>
	<path fill="#3387D3" d="M565.4,218.3c-4.4-4.9-10-6.9-16.5-6c-7.7,1.1-12.5,6-15.2,13.1c-1.7,4.7-2.1,9.6-2.1,16.1
		c0.2,1.7,0.3,5,0.8,8.3c1,6.8,3.1,13.1,7.6,18.4c5.3,6.3,12.1,8.3,20,6.2c7.2-1.9,11.3-7.1,13.1-14c2.2-8.6,1.9-17.3,0.1-25.9
		C571.9,228.6,569.6,223,565.4,218.3z"/>
	<path fill="#3387D3" d="M892.3,208.7c0-35.9-13.5-48.9-49.9-48.8c-57.4,0.2-114.9,0.1-172.3,0.1c-9.3,0-17.5,0.7-19.2-13.1
		c-1.8-15.1-14.9-25.9-31.1-26.3c-39.1-0.9-78.2-1-117.3-0.1c-19,0.5-32.6,17-32.7,37.3c-0.2,74.7-0.3,149.4-0.1,224.1
		c0.1,23.4,15.7,39.1,39.2,39.6c17.8,0.4,35.6,0.2,53.4,0.2c16.9,0,21.2-5.8,16.8-22.4c-0.8-2.9-3.7-5.9-3.2-8.4
		c1.3-6.9,1.9-16.3,6.4-19.7c4.5-3.3,15.6-2.8,20,0.7c4.2,3.5,5,13,4.8,19.7c-0.3,9.2-2.8,18.3-4.6,28.3c5.4,1,6.9,1.6,8.4,1.6
		c45.2,0.1,90.5,0.1,135.7,0.1c21.6,0,25.3-6,17.1-27c-0.7-1.9-2.6-4-2.2-5.5c1.8-6.4,2.6-15.7,7-18.1c5.2-2.9,15.3-2.2,20.3,1.3
		c4.1,2.9,4.6,12,5.2,18.5c0.3,3.6-3.1,7.4-3.7,11.4c-2.7,17-0.5,19.6,16.5,19.6c14.2,0,28.5,0,42.7-0.3
		c28.4-0.5,42.9-15.1,42.9-43.5C892.3,321.5,892.3,265.1,892.3,208.7z M609.1,221.3c-0.2,2.2-0.8,2.8-3.1,2.8
		c-5.4,0.1-10.8,0.1-16.2,0.2c-0.5,0-0.9,0-1.3,0c-0.1,0.2-0.1,0.3-0.1,0.3c0.1,0.2,0.1,0.3,0.2,0.5c5.8,8.3,7.1,17.6,5.1,27.3
		c-2.7,12.8-10.9,21.1-22.9,25.6c-9.6,3.6-19.5,3.9-29.4,1.5c-3.7-0.9-5.8,0.1-8,2.7c-2.1,2.5-4,5.1-4.7,8.4c-0.3,1.6,0.1,3,1,4.2
		c1.3,1.6,3,2.5,5,2.8c3.1,0.5,6.3,1,9.4,1.1c11.3,0.5,22.7,0.9,34.1,1.4c5.3,0.2,10.5,0.9,15.4,3.1c9.9,4.4,15,13,14,23.8
		c-0.6,6.2-3.2,11.5-7,16.2c-6.6,8.1-14.8,13.8-24.6,17.5c-11.4,4.3-23.2,5.2-35.3,4.1c-9.9-0.9-19.3-3.6-27.8-8.8
		c-4.4-2.7-8.3-5.9-9.8-11.1c0-1.1,0-2.1,0-3.2c1.2-5,4.1-9.1,7.3-12.9c4-4.8,8.4-9.3,12.6-13.9c0.3-0.4,0.7-0.7,1.1-1.2
		c-0.5-0.3-1-0.6-1.3-0.9c-2.1-1.5-4.3-3-6.2-4.7c-3.1-2.7-4-6.2-2.9-10.2c1-3.6,2.7-6.9,5.2-9.5c3.7-3.8,7.6-7.3,11.4-11
		c0.3-0.3,0.7-0.6,1.1-1c-0.4-0.2-0.7-0.4-1-0.6c-14.7-7.9-22-23.6-17.8-39.7c3.9-15.1,14.2-24.1,29-28.1c2.7-0.7,5.4-0.9,8.2-1.4
		c2.3,0,4.6,0,6.9,0c0.5,0.1,0.9,0.2,1.4,0.3c7.3,0.6,14.2,2.7,20.4,6.6c0.6,0.3,1.3,0.5,2,0.5c7.1,0,14.2,0,21.3,0
		c1.5,0,2.9,0,4.4,0.1c1.6,0.1,2.4,0.7,2.6,2.3C609.2,218.1,609.2,219.7,609.1,221.3z M748.1,284.1c-26.9,0-53.7,0.1-80.6-0.1
		c-8.7-0.1-18.8-0.2-18.7-12.4c0.1-11.2,9.4-11.3,17.9-11.3c54.7,0,109.5,0,164.2,0c8.5,0,17.2,0.4,16.9,12.1
		c-0.3,11.9-9.5,11.3-17.6,11.4c-27.4,0.1-54.7,0-82.1,0C748.1,284,748.1,284.1,748.1,284.1z M831.9,328.5c-27.4,0-54.8,0-82.2,0
		c-27.4,0-54.8,0-82.2,0c-8.5,0-17.5-0.3-17.9-11.4c-0.4-11,8.5-12.7,17-12.7c55.3-0.1,110.6,0,165.9,0.1c8,0,16.1,1.5,16.3,11.7
		C849.1,327.6,840.6,328.5,831.9,328.5z M832,238.5c-55.9,0.1-111.7,0.3-167.6-0.5c-5-0.1-13.4-6.7-14.2-11.3
		c-1.7-9.5,6.6-12.4,15-12.4c28.4-0.1,56.9,0,85.3,0c26.9,0,53.8,0,80.7,0.1c8.4,0,17.6,0.3,17.8,11.6
		C849.4,237.2,840.5,238.5,832,238.5z"/>
</g>
</svg>
