<?xml version="1.0" encoding="utf-8"?>
<!-- Generator: Adobe Illustrator 16.0.0, SVG Export Plug-In . SVG Version: 6.00 Build 0)  -->
<!DOCTYPE svg PUBLIC "-//W3C//DTD SVG 1.1//EN" "http://www.w3.org/Graphics/SVG/1.1/DTD/svg11.dtd">
<svg version="1.1" id="Layer_1" xmlns="http://www.w3.org/2000/svg" xmlns:xlink="http://www.w3.org/1999/xlink" x="0px" y="0px"
	 width="130.39px" height="130.39px" viewBox="0 0 130.39 130.39" enable-background="new 0 0 130.39 130.39" xml:space="preserve">
<path fill="#E4E4E4" d="M130.395,124.234c0,3.402-2.738,6.16-6.113,6.16H6.112c-3.376,0-6.112-2.758-6.112-6.16V6.16
	C0,2.757,2.735,0,6.112,0h118.169c3.375,0,6.113,2.758,6.113,6.16V124.234z"/>
<rect x="20.524" y="28.113" fill="#FFFFFF" width="88.993" height="70.482"/>
<path fill="#EB4735" d="M27.705,98.596c-2.193,0.004-4.387,0.055-6.579,0c-2.249-0.059-4.03-1.916-4.21-4.275
	c-0.013-0.166-0.014-0.332-0.014-0.5c-0.001-20.24-0.003-40.484,0.002-60.726c0.001-2.463,1.355-4.291,3.62-4.717
	c1.088-0.204,2.188-0.066,3.332,0.145c1.619,0.3,2.588,1.42,3.757,2.251c12.415,8.83,24.792,17.713,37.161,26.607
	c0.686,0.493,1.122,0.548,1.845,0.029c12.043-8.633,24.111-17.231,36.178-25.833c0.242-0.173,0.516-0.302,0.771-0.452l-0.018,0.076
	c-0.008,5.065-0.014,10.13-0.021,15.195c-10.1,7.202-20.201,14.4-30.297,21.608c-2.414,1.723-4.811,3.473-7.215,5.211
	c-0.155,0.027-0.312,0.057-0.47,0.086c-0.249-0.18-0.496-0.357-0.745-0.535c-0.142-0.061-0.285-0.119-0.427-0.178l0.012,0.006
	c-0.221-0.221-0.418-0.473-0.667-0.65c-8.279-5.972-16.562-11.937-24.851-17.897c-3.647-2.623-7.305-5.23-10.958-7.845
	c-0.05,0.024-0.101,0.047-0.151,0.07c-0.006,0.361-0.019,0.722-0.019,1.082c-0.001,15.609-0.001,31.219,0,46.828
	c0,0.805,0.012,1.609,0.018,2.416C27.743,97.264,27.724,97.93,27.705,98.596"/>
<path fill="#CAC9BC" d="M66.021,73.215c2.402-1.736,4.799-3.486,7.213-5.211c10.096-7.208,20.195-14.407,30.297-21.607
	c0.049,0.022,0.102,0.038,0.152,0.049c0.004,17.115,0.006,34.23,0.004,51.346c0,0.217-0.041,0.438-0.062,0.656
	c-0.133-0.01-0.266-0.018-0.396-0.025c-1.844-1.271-3.676-2.562-5.531-3.816c-8.338-5.623-16.686-11.232-25.023-16.854
	C70.447,76.252,68.238,74.729,66.021,73.215"/>
<path fill="#A6362B" d="M103.627,98.447c0.021-0.219,0.062-0.438,0.062-0.656c0-17.115-0.002-34.23-0.002-51.345
	c0.008-4.873,0.02-9.748,0.02-14.621c0-0.208-0.102-0.416-0.152-0.624l0.018-0.075c1.34-0.929,2.568-2.176,4.053-2.697
	c1.484-0.523,3.242-0.426,4.734,0.509c1.346,0.842,2.021,2.09,2.146,3.655c0.02,0.249,0.016,0.5,0.016,0.749
	c0,20.073,0,40.146,0,60.218c0,2.637-1.275,4.422-3.555,4.951c-0.4,0.094-0.824,0.104-1.238,0.107
	c-1.777,0.01-3.555,0.012-5.33-0.004C104.137,98.613,103.883,98.508,103.627,98.447"/>
<path fill="#D1CABC" d="M65.55,73.301c-0.779,0.6-1.533,1.234-2.343,1.789c-5.626,3.846-11.267,7.668-16.898,11.506
	c-5.698,3.885-11.393,7.777-17.087,11.668c-0.134,0.092-0.245,0.219-0.366,0.326c-0.384,0.002-0.767,0.004-1.149,0.006
	c0.019-0.666,0.037-1.332,0.056-1.996c0.273-0.115,0.572-0.188,0.813-0.35c2.37-1.586,4.728-3.189,7.093-4.783
	c9.163-6.17,18.326-12.34,27.502-18.492c0.339-0.229,0.812-0.258,1.221-0.379l-0.013-0.008c0.143,0.061,0.285,0.119,0.428,0.18
	C65.054,72.943,65.302,73.123,65.55,73.301"/>
<path fill="#E7665A" d="M103.551,31.2c0.055,0.208,0.152,0.416,0.152,0.624c0,4.874-0.01,9.748-0.02,14.621
	c-0.055-0.011-0.104-0.027-0.154-0.049C103.537,41.33,103.545,36.265,103.551,31.2"/>
<path fill="#D1CABC" d="M27.914,46.201c-0.05,0.024-0.101,0.047-0.151,0.071C27.814,46.248,27.864,46.225,27.914,46.201"/>
</svg>
