<?xml version="1.0" encoding="utf-8"?>
<!-- Generator: Adobe Illustrator 16.0.0, SVG Export Plug-In . SVG Version: 6.00 Build 0)  -->
<!DOCTYPE svg PUBLIC "-//W3C//DTD SVG 1.1//EN" "http://www.w3.org/Graphics/SVG/1.1/DTD/svg11.dtd">
<svg version="1.1" id="Layer_1" xmlns="http://www.w3.org/2000/svg" xmlns:xlink="http://www.w3.org/1999/xlink" x="0px" y="0px"
	 width="130.391px" height="130.391px" viewBox="0 0 130.391 130.391" enable-background="new 0 0 130.391 130.391"
	 xml:space="preserve">
<path fill="#E4E4E4" d="M130.395,124.233c0,3.399-2.738,6.16-6.113,6.16H6.112c-3.376,0-6.112-2.761-6.112-6.16V6.16
	C0,2.758,2.736,0,6.112,0h118.169c3.375,0,6.113,2.758,6.113,6.16L130.395,124.233L130.395,124.233z"/>
<circle fill="none" stroke="#000000" stroke-width="2" stroke-linecap="round" stroke-miterlimit="10" cx="66" cy="66" r="52.508"/>
<rect x="11.304" y="11.304" fill="none" width="109.391" height="109.391"/>
<path d="M76.794,89.032c-0.32-3.525-0.199-5.987-0.199-9.209c1.597-0.837,4.459-6.181,4.942-10.695
	c1.256-0.103,3.236-1.327,3.815-6.165c0.312-2.597-0.929-4.058-1.686-4.518c2.043-6.146,6.288-25.158-7.852-27.123
	c-1.453-2.555-5.179-3.848-10.021-3.848c-19.371,0.357-21.708,14.628-17.462,30.97c-0.754,0.459-1.997,1.92-1.687,4.518
	c0.583,4.838,2.561,6.062,3.816,6.165c0.482,4.513,3.457,9.858,5.059,10.695c0,3.222,0.121,5.684-0.199,9.209
	c-2.759,7.418-16.928,7.999-25.101,15.149c8.546,8.604,22.394,14.76,37.01,14.76c14.614,0,31.792-11.54,34.65-14.688
	C93.758,97.035,79.558,96.475,76.794,89.032z"/>
</svg>
