<svg xmlns="http://www.w3.org/2000/svg" width="130.39" height="130.39" viewBox="0 0 130.391 130.391" enable-background="new 0 0 130.391 130.391"><path fill="#e4e4e4" d="m130.4 124.23c0 3.401-2.736 6.16-6.111 6.16h-118.17c-3.376 0-6.11-2.759-6.11-6.16v-118.07c-.002-3.403 2.733-6.16 6.11-6.16h118.17c3.375 0 6.113 2.758 6.113 6.16l.001 118.07"/><g fill="#333"><path d="m66 12c-22.762 0-47.25 6.862-47.25 21.938v64.13c0 15.07 24.489 21.937 47.25 21.937 22.758 0 47.25-6.869 47.25-21.938v-64.12c0-15.08-24.495-21.938-47.25-21.938m40.5 86.06c0 8.385-18.13 15.188-40.5 15.188-22.369 0-40.5-6.803-40.5-15.188v-12.61c6.973 7.186 23.793 10.923 40.5 10.923s33.525-3.737 40.5-10.923v12.61m0-20.25h-.014c0 .033.014.072.014.105 0 8.332-18.13 15.08-40.5 15.08s-40.5-6.75-40.5-15.08c0-.033.013-.072.013-.105h-.013v-12.61c6.973 7.186 23.793 10.923 40.5 10.923s33.525-3.737 40.5-10.923v12.61m0-20.25h-.014c0 .033.014.071.014.105 0 8.332-18.13 15.08-40.5 15.08s-40.5-6.75-40.5-15.08c0-.035.013-.072.013-.105h-.013v-11.597c8.846 6.74 25.06 9.909 40.5 9.909s31.654-3.169 40.5-9.909v11.597m-40.5-8.438c-22.369 0-40.5-6.804-40.5-15.188 0-8.39 18.13-15.188 40.5-15.188 22.366 0 40.5 6.798 40.5 15.188 0 8.384-18.13 15.188-40.5 15.188"/><circle cx="96.38" cy="99.75" r="3.375"/><circle cx="96.38" cy="79.5" r="3.375"/><circle cx="96.38" cy="59.25" r="3.375"/></g></svg>