<?xml version="1.0" encoding="utf-8"?>
<!-- Generator: Adobe Illustrator 16.0.0, SVG Export Plug-In . SVG Version: 6.00 Build 0)  -->
<!DOCTYPE svg PUBLIC "-//W3C//DTD SVG 1.1//EN" "http://www.w3.org/Graphics/SVG/1.1/DTD/svg11.dtd">
<svg version="1.1" id="Layer_1" xmlns="http://www.w3.org/2000/svg" xmlns:xlink="http://www.w3.org/1999/xlink" x="0px" y="0px"
	 width="130.391px" height="130.391px" viewBox="0 0 130.391 130.391" enable-background="new 0 0 130.391 130.391"
	 xml:space="preserve">
<path fill="#E4E4E4" d="M130.395,124.234c0,3.401-2.736,6.16-6.111,6.16H6.112c-3.376,0-6.11-2.759-6.11-6.16V6.16
	C0,2.757,2.735,0,6.112,0h118.169c3.375,0,6.113,2.758,6.113,6.16L130.395,124.234L130.395,124.234z"/>
<g id="data">
	<path fill="#333333" d="M66,12c-22.762,0-47.25,6.862-47.25,21.938v64.125C18.75,113.131,43.239,120,66,120
		c22.758,0,47.25-6.869,47.25-21.938V33.938C113.25,18.863,88.755,12,66,12z M106.5,98.063c0,8.385-18.134,15.188-40.5,15.188
		c-22.369,0-40.5-6.803-40.5-15.188v-12.61c6.973,7.186,23.793,10.923,40.5,10.923s33.525-3.737,40.5-10.923V98.063z M106.5,77.813
		h-0.014c0,0.033,0.014,0.072,0.014,0.105C106.5,86.25,88.366,93,66,93s-40.5-6.75-40.5-15.082c0-0.033,0.013-0.072,0.013-0.105
		H25.5v-12.61c6.973,7.186,23.793,10.923,40.5,10.923s33.525-3.737,40.5-10.923V77.813z M106.5,57.563h-0.014
		c0,0.033,0.014,0.071,0.014,0.105C106.5,66,88.366,72.75,66,72.75S25.5,66,25.5,57.668c0-0.035,0.013-0.072,0.013-0.105H25.5
		V45.966c8.846,6.74,25.059,9.909,40.5,9.909s31.654-3.169,40.5-9.909V57.563z M66,49.125c-22.369,0-40.5-6.804-40.5-15.188
		c0-8.39,18.131-15.188,40.5-15.188c22.366,0,40.5,6.798,40.5,15.188C106.5,42.321,88.366,49.125,66,49.125z"/>
	<circle fill="#333333" cx="96.375" cy="99.75" r="3.375"/>
	<circle fill="#333333" cx="96.375" cy="79.5" r="3.375"/>
	<circle fill="#333333" cx="96.375" cy="59.25" r="3.375"/>
</g>
</svg>
