<?xml version="1.0" encoding="utf-8"?>
<!-- Generator: Adobe Illustrator 17.1.0, SVG Export Plug-In . SVG Version: 6.00 Build 0)  -->
<!DOCTYPE svg PUBLIC "-//W3C//DTD SVG 1.1//EN" "http://www.w3.org/Graphics/SVG/1.1/DTD/svg11.dtd">
<svg version="1.1" id="Calque_1" xmlns="http://www.w3.org/2000/svg" xmlns:xlink="http://www.w3.org/1999/xlink" x="0px" y="0px"
	 viewBox="191 0 578 560" enable-background="new 191 0 578 560" xml:space="preserve">
<path fill="#E4E4E4" d="M760,533.6c0,14.6-11.8,26.5-26.3,26.5H226.2c-14.5,0-26.2-11.8-26.2-26.5V26.5C200,11.8,211.7,0,226.2,0
	h507.5C748.3,0,760,11.8,760,26.5L760,533.6L760,533.6z"/>
<g id="GJHXG1.tif">
	<g>
		<g>
			<path fill="#F8C943" d="M402.6,87c2.2-0.3,4.4-0.8,6.6-0.8c47.7,0,95.4,0.1,143-0.1c5.3,0,7.8,1.5,10.4,6.3
				c12.2,22.6,24.8,44.9,37.6,67.1c15.3,26.4,31,52.4,46.4,78.7c19,32.6,37.7,65.2,56.6,97.9c0.8,1.4,1.2,2.9,1.8,4.4
				c-47.7,0-95.3-0.1-143-0.1c-4.5,0-9.1-0.3-13.6-0.5c-12.5-21.9-25-43.8-37.6-65.6c-10-17.3-20.2-34.5-30.3-51.7
				c-8.3-14-16.8-28-24.9-42.1c-7.2-12.5-13.7-25.4-20.9-37.9C424.2,123.9,413.4,105.5,402.6,87z"/>
			<path fill="#367CF3" d="M548.4,339.8c4.5,0.2,9.1,0.5,13.6,0.5c47.7,0.1,95.3,0.1,143,0.1c-15,25.7-30,51.4-44.8,77.2
				c-9.5,16.6-19,33.1-27.8,50c-3.3,6.4-7.4,8.2-14.4,8.2c-92.4-0.2-184.7-0.1-277.1-0.1c-2.2,0-4.4-0.5-6.6-0.7
				c9.1-15.8,18.2-31.6,27.5-47.2c7.6-12.8,13-26.6,22.1-38.6c8.4-11.1,14-24.3,21.1-36.4c2.5-4.4,5.6-8.5,8.5-12.7
				c35.3,0.1,70.5,0.2,105.8,0.1C528.9,340.2,538.7,339.9,548.4,339.8z"/>
			<path fill="#0CA25F" d="M413.4,340.1c-2.8,4.2-5.9,8.3-8.5,12.7c-7,12.1-12.6,25.4-21.1,36.4c-9.2,12.1-14.6,25.9-22.1,38.6
				c-9.3,15.7-18.3,31.5-27.5,47.2c-9.7-16.5-19.5-32.9-29.1-49.4c-15.5-26.8-30.9-53.7-46.5-80.5c-2.2-3.7-2.1-6.3,0-9.9
				C301.9,260.5,345,185.7,388.2,111c4.7-8.1,9.6-16,14.4-23.9c10.7,18.5,21.6,36.9,32.2,55.5c7.1,12.5,13.7,25.4,20.9,37.9
				c8.1,14.2,16.6,28.1,24.9,42.1c-14.5,25-29.1,49.9-43.5,75C429,311.6,421.3,325.9,413.4,340.1z"/>
		</g>
	</g>
</g>
</svg>
