<svg xmlns="http://www.w3.org/2000/svg" viewBox="0 0 126.4 126.4" enable-background="new 0 0 126.4 126.4"><path fill="#4fba6f" d="M125.88,119.613c0,3.462-2.812,6.268-6.277,6.268H6.276c-3.466,0-6.276-2.806-6.276-6.268V6.268
	C0,2.807,2.81,0,6.276,0h113.326c3.465,0,6.277,2.807,6.277,6.268V119.613z"/><path fill="#3d804d" d="m76.12 88.984c-1.545.259-2.992.509-4.441.742-2.82.45-3.02 2.455-2.393 4.543.105.352.264.69.436 1.017.438.84.93 1.479 2.07 1.521 2.129.076 4.252.512 6.377.494 2.186-.018 4.445-.038 6.381-1.402.92-.65 1.406-1.566 1.395-2.62-.039-3.11-.068-6.229-.336-9.326-.174-1.995-.848-3.905-2.432-5.344-1.064-.967-2.336-1.407-3.723-1.525-2.834-.244-5.684-.334-8.502-.703-1.566-.206-3.131-.716-4.602-1.321-2.135-.876-2.934-2.717-3.062-4.93-.111-1.92-.311-3.835-.417-5.755-.051-.917-.686-.585-1.143-.627-.611-.057-.473.408-.487.759-.11 2.608-.129 5.225-.366 7.82-.174 1.908-.677 3.786-1.638 5.479-.679 1.197-1.709 1.879-3.122 2.172-2.756.573-5.431.144-8.04-.573-3.871-1.063-7.69-2.32-11.511-3.558-1.717-.557-3.415-1.195-5.066-1.923-2.616-1.154-4.197-3.263-4.827-5.991-.646-2.792-1.083-5.632-1.608-8.452-.371-1.993-.773-3.982-1.094-5.983-.511-3.197-.982-6.398-1.442-9.602-.258-1.804-.212-3.608-.021-5.428.303-2.872 2.29-4.819 5.169-4.848 2.669-.028 5.342.045 8.01-.054 1.62-.06 3.239-.313 4.843-.573 1.145-.186 2.365-1.622 2.337-3.093-.072-3.672-.102-7.351.024-11.02.041-1.189.507-2.409.99-3.524.416-.959 1.426-1.432 2.407-1.654 1.794-.406 3.608-.791 5.436-.969 2.02-.195 4.063-.23 6.093-.186 2.266.051 4.537.249 6.582 1.382 1.896 1.048 3.422 2.468 4.17 4.555.246.685.598.862 1.316.875 3.537.061 7.078.087 10.602.356 2.725.207 5.438.664 8.123 1.184 2.053.397 4.07 1 6.07 1.63 2.361.739 3.525 2.638 4.293 4.828.725 2.06.867 4.211.98 6.373.229 4.422.51 8.842.758 13.264.125 2.237.242 4.477.326 6.716.078 2.11.205 4.226.131 6.331-.094 2.684-.348 5.363-.568 8.04-.199 2.387-.41 4.775-.68 7.157-.227 2.01-.529 4.02-.822 6.02-.344 2.343-.643 4.694-1.09 7.02-.316 1.644-.764 3.275-1.305 4.86-.83 2.435-1.75 4.841-2.713 7.227-1.287 3.191-3.678 5.088-7.02 5.899-4.084.991-8.211.808-12.35.669-2.281-.076-4.518-.353-6.701-.999-2.34-.693-4.434-1.829-5.54-4.099-.503-1.032-.631-2.277-.771-3.445-.193-1.594-.382-3.213-.312-4.81.118-2.684.382-5.374 1.988-7.689 1.08-1.565 2.49-2.555 4.438-2.854 2.326-.356 4.645-.658 7-.577.238.009.479-.003.711.037.939.164 1.039.382.725 1.261-.559 1.57-.389 3.171-.129 4.769.031.153.064.303.095.456m11.576-30.29c-.162-1.342-.246-2.517-.455-3.669-.355-1.982-1.27-3.588-3.35-4.19-2.252-.651-4.07-.236-5.311 1.505-.645.906-1.033 2.01-1.445 3.058-.229.586-.262 1.25-.406 2 3.745-.322 7.336-.556 10.967 1.293"/><path fill="#518f62" d="m40.26 15.8c-.048.168-.168.531-.256.901-.704 2.962-.431 5.966-.368 8.96.024 1.161.052 2.324.015 3.483-.026.8-.771 1.29-1.874 1.296-2.482.015-4.966-.05-7.444.048-1.622.063-3.234.355-4.851.542-.225.025-.454.033-.546.041 5.11-5.092 10.259-10.223 15.324-15.271"/></svg>