<svg xmlns="http://www.w3.org/2000/svg" width="130.39" height="130.39" viewBox="0 0 130.391 130.391" enable-background="new 0 0 130.391 130.391"><path fill="#e4e4e4" d="m130.4 124.23c0 3.399-2.738 6.16-6.113 6.16h-118.17c-3.376 0-6.112-2.761-6.112-6.16v-118.07c0-3.402 2.736-6.16 6.112-6.16h118.17c3.375 0 6.113 2.758 6.113 6.16l.001 118.07"/><circle fill="none" stroke="#000" stroke-width="2" stroke-linecap="round" stroke-miterlimit="10" cx="66" cy="66" r="52.51"/><path d="m76.79 89.03c-.32-3.525-.199-5.987-.199-9.209 1.597-.837 4.459-6.181 4.942-10.695 1.256-.103 3.236-1.327 3.815-6.165.312-2.597-.929-4.058-1.686-4.518 2.043-6.146 6.288-25.16-7.852-27.12-1.453-2.555-5.179-3.848-10.02-3.848-19.371.357-21.708 14.628-17.462 30.97-.754.459-1.997 1.92-1.687 4.518.583 4.838 2.561 6.06 3.816 6.165.482 4.513 3.457 9.858 5.059 10.695 0 3.222.121 5.684-.199 9.209-2.759 7.418-16.928 7.999-25.1 15.15 8.546 8.604 22.394 14.76 37.01 14.76 14.614 0 31.792-11.54 34.65-14.688-8.121-7.217-22.321-7.777-25.08-15.22"/></svg>