<?xml version="1.0" encoding="utf-8"?>
<!-- Generator: Adobe Illustrator 16.0.0, SVG Export Plug-In . SVG Version: 6.00 Build 0)  -->
<!DOCTYPE svg PUBLIC "-//W3C//DTD SVG 1.1//EN" "http://www.w3.org/Graphics/SVG/1.1/DTD/svg11.dtd">
<svg version="1.1" id="Layer_1" xmlns="http://www.w3.org/2000/svg" xmlns:xlink="http://www.w3.org/1999/xlink" x="0px" y="0px"
	 width="126.4px" height="126.4px" viewBox="0 0 126.4 126.4" enable-background="new 0 0 126.4 126.4" xml:space="preserve">
<path fill="#4FBA6F" d="M125.88,119.613c0,3.462-2.812,6.268-6.277,6.268H6.276c-3.466,0-6.276-2.806-6.276-6.268V6.268
	C0,2.807,2.81,0,6.276,0h113.326c3.465,0,6.277,2.807,6.277,6.268V119.613z"/>
<path fill="#3D804D" d="M76.121,88.984c-1.545,0.259-2.992,0.509-4.441,0.742c-2.82,0.45-3.021,2.455-2.393,4.543
	c0.105,0.352,0.264,0.69,0.436,1.017c0.438,0.84,0.93,1.479,2.07,1.521c2.129,0.076,4.252,0.512,6.377,0.494
	c2.186-0.018,4.445-0.038,6.381-1.402c0.92-0.65,1.406-1.566,1.395-2.62c-0.039-3.11-0.068-6.229-0.336-9.326
	c-0.174-1.995-0.848-3.905-2.432-5.344c-1.064-0.967-2.336-1.407-3.723-1.525c-2.834-0.244-5.684-0.334-8.502-0.703
	c-1.566-0.206-3.131-0.716-4.602-1.321c-2.135-0.876-2.934-2.717-3.062-4.93c-0.111-1.92-0.311-3.835-0.417-5.755
	c-0.051-0.917-0.686-0.585-1.143-0.627c-0.611-0.057-0.473,0.408-0.487,0.759c-0.11,2.608-0.129,5.225-0.366,7.82
	c-0.174,1.908-0.677,3.786-1.638,5.479c-0.679,1.197-1.709,1.879-3.122,2.172c-2.756,0.573-5.431,0.144-8.041-0.573
	c-3.871-1.063-7.69-2.32-11.511-3.558c-1.717-0.557-3.415-1.195-5.066-1.923c-2.616-1.154-4.197-3.263-4.827-5.991
	c-0.646-2.792-1.083-5.632-1.608-8.452c-0.371-1.993-0.773-3.982-1.094-5.983c-0.511-3.197-0.982-6.398-1.442-9.602
	c-0.258-1.804-0.212-3.608-0.021-5.428c0.303-2.872,2.29-4.819,5.169-4.848c2.669-0.028,5.342,0.045,8.007-0.054
	c1.62-0.06,3.239-0.313,4.843-0.573c1.145-0.186,2.365-1.622,2.337-3.093c-0.072-3.672-0.102-7.351,0.024-11.021
	c0.041-1.189,0.507-2.409,0.99-3.524c0.416-0.959,1.426-1.432,2.407-1.654c1.794-0.406,3.608-0.791,5.436-0.969
	c2.02-0.195,4.063-0.23,6.093-0.186c2.266,0.051,4.537,0.249,6.582,1.382c1.896,1.048,3.422,2.468,4.17,4.555
	c0.246,0.685,0.598,0.862,1.316,0.875c3.537,0.061,7.078,0.087,10.602,0.356c2.725,0.207,5.438,0.664,8.123,1.184
	c2.053,0.397,4.07,1.005,6.07,1.63c2.361,0.739,3.525,2.638,4.293,4.828c0.725,2.06,0.867,4.211,0.98,6.373
	c0.229,4.422,0.51,8.842,0.758,13.264c0.125,2.237,0.242,4.477,0.326,6.716c0.078,2.11,0.205,4.226,0.131,6.331
	c-0.094,2.684-0.348,5.363-0.568,8.041c-0.199,2.387-0.41,4.775-0.68,7.157c-0.227,2.014-0.529,4.018-0.822,6.022
	c-0.344,2.343-0.643,4.694-1.09,7.019c-0.316,1.644-0.764,3.275-1.305,4.86c-0.83,2.435-1.75,4.841-2.713,7.227
	c-1.287,3.191-3.678,5.088-7.02,5.899c-4.084,0.991-8.211,0.808-12.35,0.669c-2.281-0.076-4.518-0.353-6.701-0.999
	c-2.34-0.693-4.434-1.829-5.54-4.099c-0.503-1.032-0.631-2.277-0.771-3.445c-0.193-1.594-0.382-3.213-0.312-4.81
	c0.118-2.684,0.382-5.374,1.988-7.689c1.08-1.565,2.49-2.555,4.438-2.854c2.326-0.356,4.645-0.658,7.002-0.577
	c0.238,0.009,0.479-0.003,0.711,0.037c0.939,0.164,1.039,0.382,0.725,1.261c-0.559,1.57-0.389,3.171-0.129,4.769
	C76.057,88.681,76.09,88.831,76.121,88.984 M87.697,58.698c-0.162-1.342-0.246-2.517-0.455-3.669c-0.355-1.982-1.27-3.588-3.35-4.19
	c-2.252-0.651-4.07-0.236-5.311,1.505c-0.645,0.906-1.033,2.008-1.445,3.058c-0.229,0.586-0.262,1.25-0.406,2.003
	C80.475,57.083,84.066,56.849,87.697,58.698"/>
<path fill="#518F62" d="M40.259,15.8c-0.048,0.168-0.168,0.531-0.256,0.901c-0.704,2.962-0.431,5.966-0.368,8.96
	c0.024,1.161,0.052,2.324,0.015,3.483c-0.026,0.8-0.771,1.29-1.874,1.296c-2.482,0.015-4.966-0.05-7.444,0.048
	c-1.622,0.063-3.234,0.355-4.851,0.542c-0.225,0.025-0.454,0.033-0.546,0.041C30.045,25.979,35.194,20.848,40.259,15.8"/>
</svg>
