<?xml version="1.0" encoding="utf-8"?>
<!-- Generator: Adobe Illustrator 16.0.0, SVG Export Plug-In . SVG Version: 6.00 Build 0)  -->
<!DOCTYPE svg PUBLIC "-//W3C//DTD SVG 1.1//EN" "http://www.w3.org/Graphics/SVG/1.1/DTD/svg11.dtd">
<svg version="1.1" id="Layer_1" xmlns="http://www.w3.org/2000/svg" xmlns:xlink="http://www.w3.org/1999/xlink" x="0px" y="0px"
	 width="130.39px" height="130.39px" viewBox="0 0 130.39 130.39" enable-background="new 0 0 130.39 130.39" xml:space="preserve">
<path fill="#E4E4E4" d="M130.395,124.233c0,3.4-2.738,6.16-6.113,6.16H6.112c-3.376,0-6.112-2.76-6.112-6.16V6.16
	C0,2.758,2.736,0,6.112,0h118.169c3.375,0,6.113,2.758,6.113,6.16V124.233z"/>
<path fill="#099F5E" d="M31.971,108.177c-0.896-1.409-1.848-2.787-2.682-4.232c-4.563-7.906-9.057-15.852-13.682-23.72
	c-0.796-1.356-0.703-2.302,0.052-3.575c4.216-7.123,8.377-14.279,12.514-21.45c4.726-8.189,9.412-16.401,14.099-24.614
	c1.299-2.276,2.5-4.61,3.828-6.868c0.329-0.559,0.98-0.923,1.483-1.377c0.238,0.54,0.432,1.108,0.723,1.618
	c4.628,8.116,9.286,16.213,13.89,24.34c0.797,1.406,1.385,2.931,2.069,4.401c-0.211,0.248-0.466,0.472-0.626,0.75
	c-3.565,6.249-7.141,12.494-10.667,18.764c-1.168,2.076-2.206,4.229-3.304,6.347c-0.572,0.506-1.329,0.908-1.679,1.539
	c-0.741,1.338-1.233,2.813-1.901,4.197c-0.422,0.873-1.017,1.661-1.466,2.523c-1.369,2.631-2.658,5.307-4.065,7.917
	c-1.815,3.362-3.604,6.747-5.628,9.981C34.144,105.972,34.11,108.053,31.971,108.177"/>
<path fill="#4A74B9" d="M31.971,108.177c2.14-0.124,2.173-2.205,2.957-3.457c2.024-3.232,3.814-6.617,5.628-9.98
	c1.407-2.611,2.697-5.285,4.065-7.918c0.45-0.862,1.045-1.648,1.467-2.523c0.667-1.384,1.159-2.859,1.901-4.197
	c0.35-0.631,1.106-1.032,1.678-1.537c9.167,0.014,18.335,0.033,27.502,0.03c0.704,0,1.411-0.153,2.116-0.235
	c0.973,0.091,1.945,0.255,2.918,0.258c10.584,0.032,21.166,0.038,31.75,0.052c-1.928,3.438-3.848,6.877-5.781,10.31
	c-3.361,5.965-6.759,11.905-10.07,17.895c-0.766,1.386-1.707,1.922-3.297,1.919c-20.242-0.046-40.487-0.021-60.73-0.05
	C33.373,108.739,32.671,108.374,31.971,108.177"/>
<path fill="#FACB44" d="M113.953,78.668c-10.584-0.014-21.166-0.02-31.75-0.053c-0.973-0.003-1.945-0.167-2.918-0.255
	c-0.025-0.193,0.01-0.424-0.082-0.578c-3.307-5.695-6.601-11.4-9.954-17.067c-1.602-2.707-3.32-5.345-4.984-8.013
	c-0.685-1.47-1.272-2.995-2.069-4.401c-4.605-8.127-9.262-16.225-13.89-24.34c-0.292-0.51-0.484-1.078-0.723-1.618
	c4.068-0.043,8.135-0.111,12.203-0.122c6.828-0.018,13.656-0.039,20.482,0.062c0.797,0.011,1.932,0.577,2.315,1.237
	c5.567,9.532,11.036,19.123,16.524,28.702c4.509,7.868,9.02,15.735,13.508,23.615C113.132,76.739,113.511,77.722,113.953,78.668"/>
</svg>
