<svg xmlns="http://www.w3.org/2000/svg" width="130.39" height="130.39" viewBox="0 0 130.391 130.391" enable-background="new 0 0 130.391 130.391" xmlns:xlink="http://www.w3.org/1999/xlink"><defs><linearGradient id="5" gradientUnits="userSpaceOnUse" x1="11.382" y1="45.1" x2="28.08" y2="43.23" gradientTransform="matrix(7.2222 0 0 7.7255-69.72-326.01)"><stop stop-color="#fff"/><stop offset="1" stop-color="#ededed"/></linearGradient><linearGradient id="4" gradientUnits="userSpaceOnUse" x1="10.645" y1="45.19" x2="14.699" y2="60.921" gradientTransform="matrix(8.2742 0 0 6.4959-73.37-279.86)" xlink:href="#0"/><linearGradient id="6" gradientUnits="userSpaceOnUse" x1="14.614" y1="19.626" x2="17.324" y2="20.946" gradientTransform="matrix(5.2682 0 0-5.2748-64.65 132.2)"><stop stop-color="#fff"/><stop offset="1" stop-color="#fff" stop-opacity="0"/></linearGradient><linearGradient id="3" gradientUnits="userSpaceOnUse" x1="11.827" y1="45.31" x2="13.02" y2="45.03" gradientTransform="matrix(6.8276 0 0 7.5794-66.966-320.99)" xlink:href="#0"/><linearGradient id="1" gradientUnits="userSpaceOnUse" x1="8.264" y1="14.699" x2="8.673" y2="6.752" gradientTransform="matrix(12.9324 0 0-4.0194-91.58 85.03)"><stop stop-color="#dfe0df"/><stop offset=".238" stop-color="#a6b0a6"/><stop offset="1" stop-color="#b5beb5"/></linearGradient><linearGradient id="0" gradientUnits="userSpaceOnUse" x1="11.482" y1="27.54" x2="15.394" y2="15.479" gradientTransform="matrix(7.0778 0 0-7.9428-68.807 230.89)"><stop stop-color="#fff"/><stop offset="1" stop-color="#e2e2e2"/></linearGradient><radialGradient id="2" cx="24.22" cy="10.182" r="10.191" gradientTransform="matrix(3.3186 2.4201.779-1.3108-70.02-18.15)" gradientUnits="userSpaceOnUse"><stop stop-opacity=".129"/><stop offset="1" stop-opacity="0"/></radialGradient></defs><path fill="#e4e4e4" d="m130.4 124.23c0 3.401-2.738 6.16-6.113 6.16h-118.17c-3.376 0-6.112-2.759-6.112-6.16v-118.07c0-3.403 2.735-6.16 6.112-6.16h118.17c3.375 0 6.113 2.758 6.113 6.16l.001 118.07"/><path fill="#d1cabc" d="m27.914 46.2c-.05.024-.101.047-.15.071.05-.024.1-.047.15-.071"/><g transform="matrix(5.2682 0 0 5.2748-20.798-68.901)"><path fill="url(#0)" stroke="#888a85" stroke-width=".995" stroke-linejoin="round" d="m5.845 18.06v14.731h20.956l-.035-14.675v-.019c-.001-.003.001-.015 0-.019-.001-.004-.016-.015-.018-.019h-20.903z"/><path fill="url(#1)" d="m13.865 25.768l-7.594 6.22 7.884-5.445h5.112l7.04 5.375-6.725-6.15h-5.717"/><path fill="none" stroke="#fff" stroke-width=".995" d="m6.412 18.782c-.004.007.003.011 0 .017-.001.003-.017.015-.018.018-.001.003.001.015 0 .018-.001.002 0 .015 0 .017l.018 13.306h19.804l-.035-13.234c-.001-.002.001-.016 0-.018-.009-.027-.024-.075-.053-.125h-19.716z"/><path fill="url(#2)" d="m15.473 28c-1.356-.253-8.746-8.06-9.485-9.424-.009-.016-.023-.047-.03-.061h19.564c-.157 1.418-4.265 9.356-5.42 9.485h-.017-4.545c-.019 0-.044.004-.067 0"/><path fill="url(#3)" stroke="#989898" stroke-width=".852" stroke-linejoin="round" d="m14.03 26.917c-1.342-.222-7.273-7.07-7.741-8.258-.005-.014-.014-.041-.017-.054h20.15c-.467 1.243-6.405 8.199-7.622 8.312-.005 0-.012 0-.017 0h-4.682c-.02 0-.047.004-.069 0z"/><path fill="url(#4)" d="m13.941 26.579c-1.194-.278-7.314-7.087-7.706-7.95-.001-.003.001-.015 0-.018-.003-.009-.016-.03-.018-.037 0-.002 0-.016 0-.018.001-.001.017.001.018 0l.053-.055h20.11c-.002.014-.013.038-.018.055-.005.014-.012.04-.018.055-.523 1.236-6.523 7.804-7.564 7.968-.009.001-.028 0-.036 0h-4.747c-.016 0-.05.005-.07 0"/><path fill="none" stroke="url(#5)" stroke-width=".852" d="m14.08 26.33c-1.388-.311-6.899-6.585-7.564-7.709h19.61c-.845 1.323-6.262 7.603-7.458 7.709-.005.001-.013 0-.018 0h-4.482c-.015 0-.036.002-.053 0-.01-.001-.023.003-.035 0z"/><path fill="url(#6)" d="m14.13 26.555l-6.77 4.689 1.258.003 5.668-3.894 5-.807-5.156.009"/></g></svg>