<?xml version="1.0" encoding="utf-8"?>
<!-- Generator: Adobe Illustrator 16.0.0, SVG Export Plug-In . SVG Version: 6.00 Build 0)  -->
<!DOCTYPE svg PUBLIC "-//W3C//DTD SVG 1.1//EN" "http://www.w3.org/Graphics/SVG/1.1/DTD/svg11.dtd">
<svg version="1.1" id="Layer_1" xmlns="http://www.w3.org/2000/svg" xmlns:xlink="http://www.w3.org/1999/xlink" x="0px" y="0px"
	 width="130.391px" height="130.391px" viewBox="0 0 130.391 130.391" enable-background="new 0 0 130.391 130.391"
	 xml:space="preserve">
<path fill="#E4E4E4" d="M130.395,124.234c0,3.401-2.738,6.16-6.113,6.16H6.112c-3.376,0-6.112-2.759-6.112-6.16V6.16
	C0,2.757,2.735,0,6.112,0h118.169c3.375,0,6.113,2.758,6.113,6.16L130.395,124.234L130.395,124.234z"/>
<path fill="#D1CABC" d="M27.914,46.201c-0.05,0.024-0.101,0.047-0.15,0.071C27.814,46.248,27.864,46.225,27.914,46.201"/>
<g transform="matrix(5.2682 0 0 5.2748 -20.798 -68.901)">
	
		<linearGradient id="path12723_1_" gradientUnits="userSpaceOnUse" x1="11.4819" y1="27.5398" x2="15.3944" y2="15.479" gradientTransform="matrix(7.0778 0 0 -7.9428 -68.8066 230.8902)">
		<stop  offset="0" style="stop-color:#FFFFFF"/>
		<stop  offset="1" style="stop-color:#E2E2E2"/>
	</linearGradient>
	<path id="path12723" fill="url(#path12723_1_)" stroke="#888A85" stroke-width="0.9947" stroke-linejoin="round" d="M5.845,18.057
		v14.731h20.956l-0.035-14.675v-0.019c-0.001-0.003,0.001-0.015,0-0.019c-0.001-0.004-0.016-0.015-0.018-0.019H5.845z"/>
	
		<linearGradient id="path1634_1_" gradientUnits="userSpaceOnUse" x1="8.2641" y1="14.6991" x2="8.6729" y2="6.7517" gradientTransform="matrix(12.9324 0 0 -4.0194 -91.5783 85.0337)">
		<stop  offset="0" style="stop-color:#DFE0DF"/>
		<stop  offset="0.2381" style="stop-color:#A6B0A6"/>
		<stop  offset="1" style="stop-color:#B5BEB5"/>
	</linearGradient>
	<path id="path1634" fill="url(#path1634_1_)" d="M13.865,25.768l-7.594,6.22l7.884-5.445h5.112l7.04,5.375l-6.725-6.15H13.865
		L13.865,25.768z"/>
	<path id="path15103" fill="none" stroke="#FFFFFF" stroke-width="0.9947" d="M6.412,18.782c-0.004,0.007,0.003,0.011,0,0.017
		c-0.001,0.003-0.017,0.015-0.018,0.018c-0.001,0.003,0.001,0.015,0,0.018c-0.001,0.002,0,0.015,0,0.017l0.018,13.306h19.804
		l-0.035-13.234c-0.001-0.002,0.001-0.016,0-0.018c-0.009-0.027-0.024-0.075-0.053-0.125H6.412z"/>
	
		<radialGradient id="path2563_1_" cx="24.2174" cy="10.1823" r="10.1913" gradientTransform="matrix(3.3186 2.4201 0.779 -1.3108 -70.0217 -18.1545)" gradientUnits="userSpaceOnUse">
		<stop  offset="0" style="stop-color:#000000;stop-opacity:0.1287"/>
		<stop  offset="1" style="stop-color:#000000;stop-opacity:0"/>
	</radialGradient>
	<path id="path2563" fill="url(#path2563_1_)" d="M15.473,28c-1.356-0.253-8.746-8.064-9.485-9.424
		c-0.009-0.016-0.023-0.047-0.03-0.061h19.564c-0.157,1.418-4.265,9.356-5.42,9.485h-0.017H15.54C15.521,28,15.496,28.004,15.473,28
		L15.473,28z"/>
	
		<linearGradient id="path1613_1_" gradientUnits="userSpaceOnUse" x1="11.8267" y1="45.3108" x2="13.02" y2="45.029" gradientTransform="matrix(6.8276 0 0 7.5794 -66.9657 -320.9903)">
		<stop  offset="0" style="stop-color:#FFFFFF"/>
		<stop  offset="1" style="stop-color:#E2E2E2"/>
	</linearGradient>
	<path id="path1613" fill="url(#path1613_1_)" stroke="#989898" stroke-width="0.852" stroke-linejoin="round" d="M14.026,26.917
		c-1.342-0.222-7.273-7.067-7.741-8.258c-0.005-0.014-0.014-0.041-0.017-0.054h20.148c-0.467,1.243-6.405,8.199-7.622,8.312
		c-0.005,0-0.012,0-0.017,0h-4.682C14.075,26.917,14.048,26.921,14.026,26.917L14.026,26.917z"/>
	
		<linearGradient id="path18153_1_" gradientUnits="userSpaceOnUse" x1="10.6454" y1="45.1923" x2="14.6989" y2="60.9209" gradientTransform="matrix(8.2742 0 0 6.4959 -73.3664 -279.8637)">
		<stop  offset="0" style="stop-color:#FFFFFF"/>
		<stop  offset="1" style="stop-color:#E2E2E2"/>
	</linearGradient>
	<path id="path18153" fill="url(#path18153_1_)" d="M13.941,26.579c-1.194-0.278-7.314-7.087-7.706-7.95
		c-0.001-0.003,0.001-0.015,0-0.018c-0.003-0.009-0.016-0.03-0.018-0.037c0-0.002,0-0.016,0-0.018c0.001-0.001,0.017,0.001,0.018,0
		l0.053-0.055h20.106c-0.002,0.014-0.013,0.038-0.018,0.055c-0.005,0.014-0.012,0.04-0.018,0.055
		c-0.523,1.236-6.523,7.804-7.564,7.968c-0.009,0.001-0.028,0-0.036,0h-4.747C13.995,26.579,13.961,26.584,13.941,26.579
		L13.941,26.579z"/>
	
		<linearGradient id="path1616_1_" gradientUnits="userSpaceOnUse" x1="11.3815" y1="45.1027" x2="28.0765" y2="43.2299" gradientTransform="matrix(7.2222 0 0 7.7255 -69.7225 -326.0111)">
		<stop  offset="0" style="stop-color:#FFFFFF"/>
		<stop  offset="1" style="stop-color:#EDEDED"/>
	</linearGradient>
	<path id="path1616" fill="none" stroke="url(#path1616_1_)" stroke-width="0.852" d="M14.082,26.33
		c-1.388-0.311-6.899-6.585-7.564-7.709h19.61c-0.845,1.323-6.262,7.603-7.458,7.709c-0.005,0.001-0.013,0-0.018,0h-4.482
		c-0.015,0-0.036,0.002-0.053,0C14.107,26.329,14.094,26.333,14.082,26.33z"/>
	
		<linearGradient id="path1636_1_" gradientUnits="userSpaceOnUse" x1="14.6138" y1="19.6256" x2="17.3239" y2="20.9464" gradientTransform="matrix(5.2682 0 0 -5.2748 -64.6464 132.1999)">
		<stop  offset="0" style="stop-color:#FFFFFF"/>
		<stop  offset="1" style="stop-color:#FFFFFF;stop-opacity:0"/>
	</linearGradient>
	<path id="path1636" fill="url(#path1636_1_)" d="M14.13,26.555l-6.77,4.689l1.258,0.003l5.668-3.894l5-0.807L14.13,26.555z"/>
</g>
</svg>
