<?xml version="1.0" encoding="utf-8"?>
<!-- Generator: Adobe Illustrator 16.0.0, SVG Export Plug-In . SVG Version: 6.00 Build 0)  -->
<!DOCTYPE svg PUBLIC "-//W3C//DTD SVG 1.1//EN" "http://www.w3.org/Graphics/SVG/1.1/DTD/svg11.dtd">
<svg version="1.1" id="Layer_1" xmlns="http://www.w3.org/2000/svg" xmlns:xlink="http://www.w3.org/1999/xlink" x="0px" y="0px"
	 width="130.39px" height="130.39px" viewBox="0 0 130.39 130.39" enable-background="new 0 0 130.39 130.39" xml:space="preserve">
<path fill="#35A5C4" d="M130.395,124.233c0,3.4-2.738,6.16-6.113,6.16H6.112c-3.376,0-6.112-2.76-6.112-6.16V6.16
	C0,2.758,2.736,0,6.112,0h118.169c3.375,0,6.113,2.758,6.113,6.16V124.233z"/>
<path fill="#D3E5ED" d="M121.969,54.732v15.489c-0.289,0.47-0.689,0.904-0.851,1.415c-0.8,2.538-2.159,4.747-3.776,6.817
	c-5.201,6.652-12.062,10.028-20.416,10.117c-2.387,0.025-4.176,0.652-5.773,2.439c-2.092,2.342-4.76,3.91-7.698,4.982
	c-3.442,1.254-6.964,1.334-10.521,0.64c-1.535-0.3-2.66,0.153-3.713,1.38c-1.568,1.83-3.199,3.668-5.073,5.156
	c-3.113,2.475-6.752,3.848-10.734,4.245c-5.572,0.556-10.552-0.955-15.098-4.187c-2.448-1.742-4.194-4.093-5.881-6.513
	c-0.857-1.23-2-1.745-3.496-1.819c-6.285-0.309-11.729-2.509-15.75-7.58c-3.905-4.924-5.514-10.521-4.395-16.787
	c0.815-4.552,2.932-8.44,6.262-11.634c1.225-1.173,1.74-2.482,1.42-4.225c-0.646-3.515-0.769-7.047,0.003-10.581
	c2.657-12.164,14.844-20.256,27.029-17.946c3.995,0.758,7.51,2.53,10.667,5.056c1.866,1.492,2.678,1.552,4.725,0.378
	c1.125-0.645,2.305-1.2,3.495-1.715c7.601-3.291,16.929-1.598,22.616,4.45c2.314,2.462,4.552,3.233,7.863,2.464
	c5.095-1.184,10.133-0.324,14.855,1.934c6.381,3.051,10.904,7.893,13.42,14.591C121.34,53.81,121.692,54.256,121.969,54.732"/>
<path fill="#010101" d="M72.964,59.898c-0.213,0.064-0.438,0.21-0.635,0.181c-1.699-0.254-2.067,0.862-2.459,2.188
	c-1.115,3.758-2.251,7.518-3.573,11.209c-0.475,1.322-1.361,2.58-2.319,3.626c-1.23,1.347-2.955,1.533-4.645,1.009
	c-0.564-0.174-1.138-0.734-1.411-1.271c-0.147-0.291,0.205-1.104,0.554-1.328c0.568-0.363,1.026,0.07,1.251,0.685
	c0.514,1.392,1.904,1.698,2.792,0.466c0.816-1.13,1.511-2.414,1.958-3.736c1.316-3.893,2.472-7.839,3.715-11.756
	c0.232-0.739,0.057-1.05-0.73-1.047c-0.411,0.002-0.823-0.11-1.234-0.172c-0.021-0.144-0.043-0.287-0.064-0.432
	c0.393-0.109,0.8-0.348,1.178-0.307c1.127,0.122,1.644-0.383,2.021-1.417c0.611-1.674,1.583-3.135,3.176-4.062
	c1.51-0.881,3.461-0.699,4.537,0.45c0.445,0.476,0.89,1.091,0.275,1.657c-0.623,0.576-1.259,0.125-1.562-0.458
	c-0.948-1.838-2.612-1.618-3.566,0.374c-0.337,0.707-0.634,1.433-0.955,2.145c-0.362,0.8-0.268,1.26,0.755,1.312
	c0.326,0.019,0.629,0.442,0.944,0.682L72.964,59.898z"/>
<path fill="#010101" d="M72.97,59.893c1.083-0.312,2.157-0.829,3.255-0.89c1.939-0.112,3.599,1.144,3.975,3.069
	c0.24,1.227,0.229,2.611-0.078,3.821c-0.516,2.042-2.338,3.136-4.406,2.997c-1.998-0.136-3.492-1.466-3.965-3.492
	c-0.477-2.034,0.062-3.833,1.213-5.498L72.97,59.893z M78.452,64.064c-0.167-0.983-0.247-1.878-0.484-2.729
	c-0.257-0.927-0.867-1.585-1.914-1.571c-1.019,0.014-1.688,0.641-1.991,1.533c-0.605,1.78-0.715,3.641,0.113,5.348
	c0.301,0.623,1.19,1.308,1.821,1.316c0.627,0.009,1.494-0.664,1.841-1.277C78.268,65.921,78.274,64.914,78.452,64.064"/>
<path fill="#5B5B5B" d="M46.218,67.997c-1.14,1.096-1.772,1.056-3.252-0.245c-0.357,0.224-0.721,0.474-1.104,0.688
	c-1.247,0.693-2.557,0.495-3.192-0.47c-0.675-1.022-0.468-2.266,0.742-3.126c0.958-0.682,2.08-1.127,3.133-1.672
	c0.732-0.378,1.018-1.408,0.674-2.458c-0.299-0.909-1.056-0.957-1.723-0.715c-0.422,0.152-0.756,0.678-1.024,1.104
	c-0.226,0.361-0.185,0.965-0.472,1.194c-0.29,0.231-0.917,0.289-1.247,0.123c-0.233-0.117-0.398-0.808-0.279-1.12
	c0.627-1.638,4.115-2.951,5.595-2.084c0.413,0.242,0.806,0.851,0.854,1.328c0.157,1.556,0.158,3.128,0.205,4.692
	c0.019,0.663,0.003,1.326,0.003,2.138c0.473-0.157,0.759-0.25,1.21-0.4l-0.086,0.982L46.218,67.997z M43.073,63.708
	c-0.987,0.534-1.749,0.798-2.305,1.297c-0.361,0.322-0.712,1.133-0.549,1.463c0.227,0.453,0.955,0.92,1.445,0.899
	c0.483-0.022,1.192-0.563,1.349-1.03C43.244,65.648,43.073,64.823,43.073,63.708"/>
<path fill="#010101" d="M103.111,65.817c-0.252,1.045-0.838,1.887-1.777,2.46c-1.992,1.219-4.491,0.55-5.682-1.491
	c-1.225-2.1-0.797-5.182,0.947-6.816c2.035-1.912,5.482-1.215,6.273,1.268c0.366,1.143,0.111,1.55-1.061,1.579
	c-1.221,0.032-2.443,0.031-3.666,0.009c-0.808-0.017-1.127,0.339-1.117,1.146c0.012,1.386,0.834,2.714,2.047,3.189
	c1.218,0.479,2.071,0.187,3.199-1.076c0.161-0.179,0.364-0.32,0.549-0.476C102.919,65.681,103.016,65.75,103.111,65.817
	 M97.232,61.869c0.865,0,1.6,0.062,2.316-0.023c0.404-0.05,0.779-0.341,1.17-0.523c-0.338-0.442-0.59-1.08-1.035-1.285
	C98.74,59.605,97.783,60.317,97.232,61.869"/>
<path fill="#5B5B5B" d="M58.478,65.674c-0.013,1.755-1.88,3.304-3.788,3.179c-1.68-0.109-3-0.848-3.622-2.517
	c-0.609-1.634-0.682-3.298,0.083-4.898c0.912-1.913,2.859-2.816,4.92-2.374c1.29,0.278,2.194,1.249,2.478,2.577
	c0.165,0.773-0.091,1.159-0.874,1.167c-1.337,0.011-2.673,0.041-4.008,0.007c-0.956-0.023-1.287,0.435-1.137,1.315
	c0.238,1.392,0.774,2.59,2.217,3.105c1.368,0.49,2.367-0.098,3.205-1.15C58.073,65.933,58.265,65.836,58.478,65.674 M52.857,61.876
	c0.963,0,1.828,0.041,2.686-0.012c0.847-0.053,1.127-0.656,0.513-1.25c-0.389-0.378-1.101-0.672-1.615-0.604
	C53.625,60.122,53.066,60.754,52.857,61.876"/>
<path fill="#010101" d="M94.434,65.773c-0.314,2.451-3.324,3.871-5.58,2.632c-1.98-1.087-2.895-3.693-2.16-6.157
	c0.681-2.284,2.527-3.521,4.922-3.269c1.166,0.122,2.149,0.588,2.697,1.711c0.296,0.612,0.292,1.21-0.414,1.506
	c-0.658,0.275-1.062-0.125-1.271-0.724c-0.279-0.81-0.414-1.766-1.563-1.729c-1.187,0.038-1.858,0.805-2.307,1.828
	c-0.676,1.542-0.403,3.036,0.401,4.401c0.98,1.663,3.183,1.773,4.43,0.285c0.205-0.246,0.276-0.604,0.408-0.91
	C94.142,65.491,94.288,65.632,94.434,65.773"/>
<path fill="#5B5B5B" d="M31.513,65.164c0.283,0.671,0.472,1.085,0.634,1.51c0.335,0.884,0.928,1.585,1.886,1.392
	c0.539-0.107,1.208-0.667,1.399-1.182c0.352-0.951-0.183-1.698-1.072-2.194c-0.776-0.43-1.585-0.848-2.252-1.424
	c-1.411-1.215-1.051-3.417,0.727-3.939c1.001-0.295,2.197-0.22,3.237,0.007c1.178,0.257,1.412,1.545,0.529,2.799
	c-0.205-0.422-0.369-0.762-0.535-1.101c-0.385-0.784-0.922-1.424-1.866-1.317c-0.418,0.047-1.075,0.333-1.14,0.623
	c-0.103,0.451,0.101,1.068,0.371,1.482c0.22,0.336,0.732,0.477,1.111,0.708c0.569,0.35,1.173,0.656,1.698,1.066
	c1.863,1.456,1.502,4.079-0.731,4.893c-0.797,0.293-1.758,0.366-2.604,0.246C31.042,68.47,30.561,67.352,31.513,65.164"/>
<path fill="#5B5B5B" d="M59.909,65.419c0.175,0.42,0.362,0.836,0.524,1.261c0.336,0.883,0.934,1.582,1.887,1.383
	c0.533-0.11,1.157-0.688,1.377-1.209c0.392-0.929-0.186-1.623-1.003-2.101c-0.737-0.43-1.493-0.835-2.187-1.329
	c-1.305-0.929-1.381-2.573-0.212-3.658c0.984-0.915,3.331-1.115,4.387-0.297c0.861,0.667,0.509,1.564,0.109,2.5
	c-0.167-0.326-0.353-0.646-0.5-0.981c-0.343-0.794-0.931-1.321-1.786-1.259c-0.433,0.033-1.1,0.363-1.19,0.692
	c-0.115,0.42,0.099,1.133,0.426,1.436c0.56,0.515,1.326,0.8,1.995,1.199c1.906,1.136,2.478,2.791,1.484,4.266
	c-1.062,1.576-4.01,2.142-5.389,0.944c-0.908-0.791-0.342-1.824-0.39-2.751L59.909,65.419z"/>
<path fill="#5B5B5B" d="M46.256,67.956c0.829,0.029,1.092-0.449,1.091-1.201c-0.006-3.544,0.023-7.088-0.03-10.63
	c-0.008-0.539-0.377-1.073-0.664-1.833c0.644-0.298,1.406-0.652,2.356-1.091c0.063,0.617,0.14,1.038,0.141,1.458
	c0.009,3.693,0.02,7.387-0.004,11.08c-0.007,0.989-0.031,1.941,1.004,2.508c-1.138,0.72-3.383,0.542-3.934-0.249L46.256,67.956"/>
<path fill="#010101" d="M84.846,68.495h-4.189c1.294-1.633,1.406-6.606,0.282-8.271c1.048-1.043,2.218-1.297,2.97-0.678
	c0.527-0.223,1.025-0.565,1.548-0.611c0.399-0.036,0.916,0.215,1.212,0.509c0.184,0.18,0.197,0.844,0.024,1.004
	c-0.271,0.253-0.776,0.4-1.159,0.359c-1.56-0.167-1.836,0.033-1.855,1.61c-0.015,1.085-0.009,2.168-0.004,3.253
	c0.006,1.051-0.291,2.245,1.374,2.555L84.846,68.495z"/>
</svg>
