<svg xmlns="http://www.w3.org/2000/svg" viewBox="0 0 32 32"><path d="M26.856 16c0-1.677 1.032-3 2.584-3.909-.282-.934-.65-1.832-1.106-2.675-1.744.456-3.154-.227-4.338-1.411-1.187-1.186-1.55-2.597-1.094-4.338-.843-.456-1.738-.829-2.675-1.107-.909 1.554-2.552 2.586-4.227 2.586-1.675 0-3.317-1.032-4.227-2.586-.938.278-1.832.651-2.675 1.106.454 1.742.093 3.154-1.093 4.339-1.186 1.184-2.597 1.867-4.338 1.413-.456.842-.827 1.739-1.107 2.674 1.554.909 2.586 2.232 2.586 3.909 0 1.675-1.032 3.318-2.586 4.229.28.936.651 1.832 1.107 2.675 1.742-.456 3.152-.093 4.338 1.093s1.547 2.595 1.093 4.338c.843.456 1.739.829 2.675 1.107.91-1.555 2.552-2.586 4.227-2.586 1.675 0 3.32 1.032 4.229 2.586.938-.28 1.832-.651 2.675-1.107-.456-1.742-.094-3.152 1.094-4.338 1.184-1.184 2.594-1.867 4.338-1.413.456-.843.826-1.739 1.106-2.675-1.554-.91-2.586-2.234-2.586-3.909zm-10.856 5.845c-3.227 0-5.843-2.618-5.843-5.845s2.616-5.845 5.843-5.845c3.229 0 5.845 2.618 5.845 5.845s-2.616 5.845-5.845 5.845" fill="#fff"/></svg>