<svg xmlns="http://www.w3.org/2000/svg" viewBox="217 20 523 519" enable-background="new 217 20 523 519"><path d="M603.2 280c0-68-55.1-123.2-123.2-123.2-68 0-123.2 55.2-123.2 123.2s55.2 123.2 123.2 123.2c68.1 0 123.2-55.2 123.2-123.2z" fill="none"/><path fill="#D82525" d="M678.6 176.6l-57.7 34.7c10.1 20.8 15.9 44.1 15.9 68.7s-5.7 48-15.9 68.7l57.8 34.6c16.5-31.8 25.8-68 25.3-106.4-.6-36.2-9.7-70.2-25.4-100.3zM339.1 348.7c-10.1-20.8-15.9-44.1-15.9-68.7 0-24.7 5.7-48 15.9-68.7l-57.8-34.7c-16.6 31.8-25.8 68-25.2 106.4.5 36.2 9.6 70.3 25.3 100.3l57.7-34.6zM477 56c-36.2.5-70.3 9.6-100.4 25.3l34.6 57.8c20.8-10.2 44.1-15.9 68.7-15.9 24.7 0 48 5.7 68.8 15.8l34.7-57.8c-31.8-16.5-68-25.7-106.4-25.2zM583.4 478.7l-34.7-57.7c-20.8 10.1-44.1 15.8-68.7 15.8s-48-5.7-68.7-15.9l-34.7 57.8c31.8 16.6 68 25.8 106.4 25.2 36.2-.4 70.3-9.5 100.4-25.2z"/><path fill="#fff" d="M737.6 276.6c-1.9-142.3-118.8-256.1-261-254.2s-256 118.8-254.1 261c1.9 142.3 118.8 256 261 254.2 142.2-1.9 256-118.8 254.1-261zm-59 106.8l-57.8-34.6c10.1-20.8 15.9-44.1 15.9-68.7 0-24.7-5.7-48-15.9-68.7l57.7-34.7c15.7 30.1 24.8 64.2 25.3 100.4.6 38.3-8.6 74.5-25.2 106.3zm-422.5-100.4c-.5-38.4 8.7-74.6 25.2-106.4l57.8 34.7c-10.1 20.8-15.9 44-15.9 68.7 0 24.6 5.7 48 15.9 68.7l-57.7 34.6c-15.8-30-24.9-64.1-25.3-100.3zm223.9 120.2c-68 0-123.2-55.2-123.2-123.2s55.2-123.2 123.2-123.2c68.1 0 123.2 55.2 123.2 123.2s-55.1 123.2-123.2 123.2zm68.8-264.2c-20.8-10.1-44.1-15.8-68.8-15.8-24.6 0-48 5.7-68.7 15.9l-34.6-57.8c30-15.7 64.1-24.8 100.3-25.3 38.4-.5 74.6 8.7 106.4 25.2l-34.6 57.8zm-172.2 339.7l34.7-57.8c20.8 10.1 44.1 15.9 68.7 15.9 24.7 0 48-5.7 68.7-15.8l34.6 57.7c-30.1 15.6-64.2 24.7-100.4 25.3-38.3.5-74.5-8.7-106.3-25.3z"/></svg>