<svg xmlns="http://www.w3.org/2000/svg" width="130.39" height="130.39"><path fill="#5BA0D7" d="M130.393 123.9c0 3.586-2.912 6.494-6.504 6.494h-117.389c-3.591 0-6.5-2.908-6.5-6.494v-117.407c0-3.586 2.91-6.493 6.5-6.493h117.39c3.592 0 6.503 2.908 6.503 6.493v117.407z"/><polygon fill="#fff" points="20.226,39.856 38.15,55.322 64.654,37.693 46.142,22.363"/><polyline fill="#fff" points="65.782,37.737 84.203,22.363 110.243,39.802 92.33,55.322 65.782,37.84"/><polygon fill="#fff" points="92.33,56.033 65.511,73.549 84.135,88.969 110.175,71.215"/><polygon fill="#fff" points="38.285,89.172 38.285,93.535 65.195,110.07 92.33,93.398 92.33,88.969 84.203,94.109 65.195,78.215 46.311,93.805"/><polygon fill="#fff" points="20.226,71.058 38.285,55.863 64.654,73.447 46.369,88.969"/></svg>