<svg xmlns="http://www.w3.org/2000/svg" viewBox="0 0 130.39 130.39" enable-background="new 0 0 130.39 130.39"><path fill="#35a5c4" d="M130.395 124.233c0 3.4-2.738 6.16-6.113 6.16h-118.17c-3.376 0-6.112-2.76-6.112-6.16v-118.073c0-3.402 2.736-6.16 6.112-6.16h118.169c3.375 0 6.113 2.758 6.113 6.16v118.073z"/><path fill="#d3e5ed" d="M121.97 54.732v15.489c-.289.47-.689.904-.851 1.415-.8 2.538-2.159 4.747-3.776 6.817-5.201 6.652-12.06 10.03-20.416 10.117-2.387.025-4.176.652-5.773 2.439-2.092 2.342-4.76 3.91-7.698 4.982-3.442 1.254-6.964 1.334-10.521.64-1.535-.3-2.66.153-3.713 1.38-1.568 1.83-3.199 3.668-5.073 5.156-3.113 2.475-6.752 3.848-10.734 4.245-5.572.556-10.552-.955-15.1-4.187-2.448-1.742-4.194-4.093-5.881-6.513-.857-1.23-2-1.745-3.496-1.819-6.285-.309-11.729-2.509-15.75-7.58-3.905-4.924-5.514-10.521-4.395-16.787.815-4.552 2.932-8.44 6.262-11.634 1.225-1.173 1.74-2.482 1.42-4.225-.646-3.515-.769-7.05.003-10.581 2.657-12.164 14.844-20.256 27.03-17.946 3.995.758 7.51 2.53 10.667 5.056 1.866 1.492 2.678 1.552 4.725.378 1.125-.645 2.305-1.2 3.495-1.715 7.601-3.291 16.929-1.598 22.616 4.45 2.314 2.462 4.552 3.233 7.863 2.464 5.095-1.184 10.133-.324 14.855 1.934 6.381 3.051 10.904 7.893 13.42 14.591.191.512.543.958.82 1.434"/><g fill="#010101"><path d="M72.964 59.898c-.213.064-.438.21-.635.181-1.699-.254-2.067.862-2.459 2.188-1.115 3.758-2.251 7.518-3.573 11.209-.475 1.322-1.361 2.58-2.319 3.626-1.23 1.347-2.955 1.533-4.645 1.01-.564-.174-1.138-.734-1.411-1.271-.147-.291.205-1.104.554-1.328.568-.363 1.026.07 1.251.685.514 1.392 1.904 1.698 2.792.466.816-1.13 1.511-2.414 1.958-3.736 1.316-3.893 2.472-7.839 3.715-11.756.232-.739.057-1.05-.73-1.047-.411.002-.823-.11-1.234-.172l-.064-.432c.393-.109.8-.348 1.178-.307 1.127.122 1.644-.383 2.02-1.417.611-1.674 1.583-3.135 3.176-4.062 1.51-.881 3.461-.699 4.537.45.445.476.89 1.091.275 1.657-.623.576-1.259.125-1.562-.458-.948-1.838-2.612-1.618-3.566.374-.337.707-.634 1.433-.955 2.145-.362.8-.268 1.26.755 1.312.326.019.629.442.944.682l-.003.002"/><path d="M72.97 59.893c1.083-.312 2.157-.829 3.255-.89 1.939-.112 3.599 1.144 3.975 3.069.24 1.227.229 2.611-.078 3.821-.516 2.042-2.338 3.136-4.406 2.997-1.998-.136-3.492-1.466-3.965-3.492-.477-2.034.062-3.833 1.213-5.498l.006-.007m5.482 4.171c-.167-.983-.247-1.878-.484-2.729-.257-.927-.867-1.585-1.914-1.571-1.019.014-1.688.641-1.991 1.533-.605 1.78-.715 3.641.113 5.348.301.623 1.19 1.308 1.821 1.316.627.009 1.494-.664 1.841-1.277.43-.763.436-1.77.614-2.62"/></g><path fill="#5b5b5b" d="M46.22 67.997c-1.14 1.096-1.772 1.056-3.252-.245-.357.224-.721.474-1.104.688-1.247.693-2.557.495-3.192-.47-.675-1.022-.468-2.266.742-3.126.958-.682 2.08-1.127 3.133-1.672.732-.378 1.018-1.408.674-2.458-.299-.909-1.056-.957-1.723-.715-.422.152-.756.678-1.024 1.104-.226.361-.185.965-.472 1.194-.29.231-.917.289-1.247.123-.233-.117-.398-.808-.279-1.12.627-1.638 4.115-2.951 5.595-2.084.413.242.806.851.854 1.328.157 1.556.158 3.128.205 4.692.019.663.003 1.326.003 2.138l1.21-.4-.086.982-.037.041m-3.145-4.289c-.987.534-1.749.798-2.305 1.297-.361.322-.712 1.133-.549 1.463.227.453.955.92 1.445.899.483-.022 1.192-.563 1.349-1.03.231-.689.06-1.514.06-2.629"/><path fill="#010101" d="M103.11 65.817c-.252 1.045-.838 1.887-1.777 2.46-1.992 1.219-4.491.55-5.682-1.491-1.225-2.1-.797-5.182.947-6.816 2.035-1.912 5.482-1.215 6.273 1.268.366 1.143.111 1.55-1.061 1.579-1.221.032-2.443.031-3.666.009-.808-.017-1.127.339-1.117 1.146.012 1.386.834 2.714 2.047 3.189 1.218.479 2.071.187 3.199-1.076.161-.179.364-.32.549-.476l.288.208m-5.879-3.948c.865 0 1.6.062 2.316-.023.404-.05.779-.341 1.17-.523-.338-.442-.59-1.08-1.035-1.285-.943-.433-1.9.279-2.451 1.831"/><path fill="#5b5b5b" d="M58.48 65.67c-.013 1.755-1.88 3.304-3.788 3.179-1.68-.109-3-.848-3.622-2.517-.609-1.634-.682-3.298.083-4.898.912-1.913 2.859-2.816 4.92-2.374 1.29.278 2.194 1.249 2.478 2.577.165.773-.091 1.159-.874 1.167-1.337.011-2.673.041-4.01.007-.956-.023-1.287.435-1.137 1.315.238 1.392.774 2.59 2.217 3.105 1.368.49 2.367-.098 3.205-1.15.121-.152.313-.249.526-.411m-5.621-3.798c.963 0 1.828.041 2.686-.012.847-.053 1.127-.656.513-1.25-.389-.378-1.101-.672-1.615-.604-.816.112-1.375.744-1.584 1.866"/><path fill="#010101" d="M94.43 65.773c-.314 2.451-3.324 3.871-5.58 2.632-1.98-1.087-2.895-3.693-2.16-6.157.681-2.284 2.527-3.521 4.922-3.269 1.166.122 2.149.588 2.697 1.711.296.612.292 1.21-.414 1.506-.658.275-1.062-.125-1.271-.724-.279-.81-.414-1.766-1.563-1.729-1.187.038-1.858.805-2.307 1.828-.676 1.542-.403 3.036.401 4.401.98 1.663 3.183 1.773 4.43.285.205-.246.276-.604.408-.91l.437.426"/><g fill="#5b5b5b"><path d="M31.513 65.16c.283.671.472 1.085.634 1.51.335.884.928 1.585 1.886 1.392.539-.107 1.208-.667 1.399-1.182.352-.951-.183-1.698-1.072-2.194-.776-.43-1.585-.848-2.252-1.424-1.411-1.215-1.051-3.417.727-3.939 1-.295 2.197-.22 3.237.007 1.178.257 1.412 1.545.529 2.799l-.535-1.101c-.385-.784-.922-1.424-1.866-1.317-.418.047-1.075.333-1.14.623-.103.451.101 1.068.371 1.482.22.336.732.477 1.111.708.569.35 1.173.656 1.698 1.066 1.863 1.456 1.502 4.079-.731 4.893-.797.293-1.758.366-2.604.246-1.863-.263-2.344-1.381-1.392-3.569"/><path d="M59.909 65.42c.175.42.362.836.524 1.261.336.883.934 1.582 1.887 1.383.533-.11 1.157-.688 1.377-1.209.392-.929-.186-1.623-1-2.101-.737-.43-1.493-.835-2.187-1.329-1.305-.929-1.381-2.573-.212-3.658.984-.915 3.331-1.115 4.387-.297.861.667.509 1.564.109 2.5-.167-.326-.353-.646-.5-.981-.343-.794-.931-1.321-1.786-1.259-.433.033-1.1.363-1.19.692-.115.42.099 1.133.426 1.436.56.515 1.326.8 1.995 1.199 1.906 1.136 2.478 2.791 1.484 4.266-1.062 1.576-4.01 2.142-5.389.944-.908-.791-.342-1.824-.39-2.751l.468-.096"/><path d="M46.26 67.956c.829.029 1.092-.449 1.091-1.201-.006-3.544.023-7.088-.03-10.63-.008-.539-.377-1.073-.664-1.833l2.356-1.091c.063.617.14 1.038.141 1.458.009 3.693.02 7.387-.004 11.08-.007.989-.031 1.941 1 2.508-1.138.72-3.383.542-3.934-.249l.04-.042"/></g><path fill="#010101" d="M84.85 68.5h-4.189c1.294-1.633 1.406-6.606.282-8.271 1.048-1.043 2.218-1.297 2.97-.678.527-.223 1.025-.565 1.548-.611.399-.036.916.215 1.212.509.184.18.197.844.024 1-.271.253-.776.4-1.159.359-1.56-.167-1.836.033-1.855 1.61-.015 1.085-.009 2.168-.004 3.253.006 1.051-.291 2.245 1.374 2.555l-.203.27"/></svg>