<svg xmlns="http://www.w3.org/2000/svg" width="130.391" height="130.391"><path fill="#E4E4E4" d="M130.395 124.234c0 3.401-2.738 6.16-6.113 6.16h-118.17c-3.376 0-6.112-2.759-6.112-6.16v-118.074c0-3.403 2.735-6.16 6.112-6.16h118.169c3.375 0 6.113 2.758 6.113 6.16l.001 118.074z"/><path fill="#D1CABC" d="M27.914 46.201l-.15.071.15-.071"/><g transform="matrix(5.268 0 0 5.275 -20.798 -68.901)"><linearGradient id="a" gradientUnits="userSpaceOnUse" x1="11.482" y1="27.54" x2="15.394" y2="15.479" gradientTransform="matrix(7.078 0 0 -7.943 -68.807 230.89)"><stop offset="0" stop-color="#fff"/><stop offset="1" stop-color="#E2E2E2"/></linearGradient><path fill="url(#a)" stroke="#888A85" stroke-width=".995" stroke-linejoin="round" d="M5.845 18.057v14.731h20.956l-.035-14.675v-.038l-.018-.019h-20.903z"/><linearGradient id="b" gradientUnits="userSpaceOnUse" x1="8.264" y1="14.699" x2="8.673" y2="6.752" gradientTransform="matrix(12.932 0 0 -4.019 -91.578 85.034)"><stop offset="0" stop-color="#DFE0DF"/><stop offset=".238" stop-color="#A6B0A6"/><stop offset="1" stop-color="#B5BEB5"/></linearGradient><path fill="url(#b)" d="M13.865 25.768l-7.594 6.22 7.884-5.445h5.112l7.04 5.375-6.725-6.15h-5.717z"/><path stroke="#fff" stroke-width=".995" d="M6.412 18.782v.017l-.018.018v.035l.018 13.306h19.804l-.035-13.234v-.018l-.053-.125h-19.716z" fill="none"/><radialGradient id="c" cx="24.217" cy="10.182" r="10.191" gradientTransform="matrix(3.319 2.42 .779 -1.311 -70.022 -18.154)" gradientUnits="userSpaceOnUse"><stop offset="0" stop-opacity=".129"/><stop offset="1" stop-opacity="0"/></radialGradient><path fill="url(#c)" d="M15.473 28c-1.356-.253-8.746-8.064-9.485-9.424l-.03-.061h19.564c-.157 1.418-4.265 9.356-5.42 9.485h-4.6290000000000004z"/><linearGradient id="d" gradientUnits="userSpaceOnUse" x1="11.827" y1="45.311" x2="13.02" y2="45.029" gradientTransform="matrix(6.828 0 0 7.579 -66.966 -320.99)"><stop offset="0" stop-color="#fff"/><stop offset="1" stop-color="#E2E2E2"/></linearGradient><path fill="url(#d)" stroke="#989898" stroke-width=".852" stroke-linejoin="round" d="M14.026 26.917c-1.342-.222-7.273-7.067-7.741-8.258l-.017-.054h20.148c-.467 1.243-6.405 8.199-7.622 8.312h-4.768000000000001z"/><linearGradient id="e" gradientUnits="userSpaceOnUse" x1="10.645" y1="45.192" x2="14.699" y2="60.921" gradientTransform="matrix(8.274 0 0 6.496 -73.366 -279.864)"><stop offset="0" stop-color="#fff"/><stop offset="1" stop-color="#E2E2E2"/></linearGradient><path fill="url(#e)" d="M13.941 26.579c-1.194-.278-7.314-7.087-7.706-7.95v-.018l-.018-.037v-.018h.018l.053-.055h20.106l-.018.055-.018.055c-.523 1.236-6.523 7.804-7.564 7.968h-4.853z"/><linearGradient id="f" gradientUnits="userSpaceOnUse" x1="11.382" y1="45.103" x2="28.076" y2="43.23" gradientTransform="matrix(7.222 0 0 7.726 -69.722 -326.011)"><stop offset="0" stop-color="#fff"/><stop offset="1" stop-color="#EDEDED"/></linearGradient><path stroke="url(#f)" stroke-width=".852" d="M14.082 26.33c-1.388-.311-6.899-6.585-7.564-7.709h19.61c-.845 1.323-6.262 7.603-7.458 7.709h-4.588z" fill="none"/><linearGradient id="g" gradientUnits="userSpaceOnUse" x1="14.614" y1="19.626" x2="17.324" y2="20.946" gradientTransform="matrix(5.268 0 0 -5.275 -64.646 132.2)"><stop offset="0" stop-color="#fff"/><stop offset="1" stop-color="#fff" stop-opacity="0"/></linearGradient><path fill="url(#g)" d="M14.13 26.555l-6.77 4.689 1.258.003 5.668-3.894 5-.807-5.156.009z"/></g></svg>