<svg xmlns="http://www.w3.org/2000/svg" width="130.39" height="130.39"><path fill="#E4E4E4" d="M130.395 124.234c0 3.402-2.738 6.16-6.113 6.16h-118.17c-3.376 0-6.112-2.758-6.112-6.16v-118.074c0-3.403 2.735-6.16 6.112-6.16h118.169c3.375 0 6.113 2.758 6.113 6.16v118.074z"/><rect x="20.524" y="28.113" fill="#fff" width="88.993" height="70.482"/><path fill="#EB4735" d="M27.705 98.596c-2.193.004-4.387.055-6.579 0-2.249-.059-4.03-1.916-4.21-4.275l-.014-.5c-.001-20.24-.003-40.484.002-60.726.001-2.463 1.355-4.291 3.62-4.717 1.088-.204 2.188-.066 3.332.145 1.619.3 2.588 1.42 3.757 2.251 12.415 8.83 24.792 17.713 37.161 26.607.686.493 1.122.548 1.845.029 12.043-8.633 24.111-17.231 36.178-25.833.242-.173.516-.302.771-.452l-.018.076c-.008 5.065-.014 10.13-.021 15.195-10.1 7.202-20.201 14.4-30.297 21.608-2.414 1.723-4.811 3.473-7.215 5.211l-.47.086-.745-.535-.427-.178.012.006c-.221-.221-.418-.473-.667-.65-8.279-5.972-16.562-11.937-24.851-17.897-3.647-2.623-7.305-5.23-10.958-7.845l-.151.07-.019 1.082c-.001 15.609-.001 31.219 0 46.828 0 .805.012 1.609.018 2.416l-.054 1.998"/><path fill="#CAC9BC" d="M66.021 73.215c2.402-1.736 4.799-3.486 7.213-5.211 10.096-7.208 20.195-14.407 30.297-21.607l.152.049c.004 17.115.006 34.23.004 51.346 0 .217-.041.438-.062.656l-.396-.025c-1.844-1.271-3.676-2.562-5.531-3.816-8.338-5.623-16.686-11.232-25.023-16.854-2.228-1.501-4.437-3.024-6.654-4.538"/><path fill="#A6362B" d="M103.627 98.447c.021-.219.062-.438.062-.656l-.002-51.345c.008-4.873.02-9.748.02-14.621 0-.208-.102-.416-.152-.624l.018-.075c1.34-.929 2.568-2.176 4.053-2.697 1.484-.523 3.242-.426 4.734.509 1.346.842 2.021 2.09 2.146 3.655.02.249.016.5.016.749v60.218c0 2.637-1.275 4.422-3.555 4.951-.4.094-.824.104-1.238.107-1.777.01-3.555.012-5.33-.004-.262-.001-.516-.106-.772-.167"/><path fill="#D1CABC" d="M65.55 73.301c-.779.6-1.533 1.234-2.343 1.789-5.626 3.846-11.267 7.668-16.898 11.506-5.698 3.885-11.393 7.777-17.087 11.668-.134.092-.245.219-.366.326l-1.149.006.056-1.996c.273-.115.572-.188.813-.35 2.37-1.586 4.728-3.189 7.093-4.783 9.163-6.17 18.326-12.34 27.502-18.492.339-.229.812-.258 1.221-.379l-.013-.008.428.18.743.533"/><path fill="#E7665A" d="M103.551 31.2c.055.208.152.416.152.624 0 4.874-.01 9.748-.02 14.621l-.154-.049c.008-5.066.016-10.131.022-15.196"/><path fill="#D1CABC" d="M27.914 46.201l-.151.071.151-.071"/></svg>