<svg xmlns="http://www.w3.org/2000/svg" width="130.39" height="130.39" viewBox="0 0 130.391 130.391" enable-background="new 0 0 130.391 130.391" xmlns:xlink="http://www.w3.org/1999/xlink"><defs><linearGradient id="f" gradientUnits="userSpaceOnUse" x1="11.382" y1="45.1" x2="28.08" y2="43.23" gradientTransform="matrix(7.222 0 0 NaN)"><stop stop-color="#fff"/><stop offset="1" stop-color="#ededed"/></linearGradient><linearGradient id="e" gradientUnits="userSpaceOnUse" x1="10.645" y1="45.19" x2="14.699" y2="60.921" gradientTransform="matrix(8.274 0 0 NaN)" xlink:href="#a"/><linearGradient id="g" gradientUnits="userSpaceOnUse" x1="14.614" y1="19.626" x2="17.324" y2="20.946" gradientTransform="matrix(5.268 0 NaN 132.2)"><stop stop-color="#fff"/><stop offset="1" stop-color="#fff" stop-opacity="0"/></linearGradient><linearGradient id="d" gradientUnits="userSpaceOnUse" x1="11.827" y1="45.31" x2="13.02" y2="45.03" gradientTransform="matrix(6.828 0 0 NaN)" xlink:href="#a"/><linearGradient id="b" gradientUnits="userSpaceOnUse" x1="8.264" y1="14.699" x2="8.673" y2="6.752" gradientTransform="matrix(12.932 0 NaN 85.03)"><stop stop-color="#dfe0df"/><stop offset=".238" stop-color="#a6b0a6"/><stop offset="1" stop-color="#b5beb5"/></linearGradient><linearGradient id="a" gradientUnits="userSpaceOnUse" x1="11.482" y1="27.54" x2="15.394" y2="15.479" gradientTransform="matrix(7.078 0 NaN 230.89)"><stop stop-color="#fff"/><stop offset="1" stop-color="#e2e2e2"/></linearGradient><radialGradient id="c" cx="24.22" cy="10.182" r="10.191" gradientTransform="matrix(3.319 NaN)" gradientUnits="userSpaceOnUse"><stop stop-opacity=".129"/><stop offset="1" stop-opacity="0"/></radialGradient></defs><path fill="#e4e4e4" d="M130.4 124.23c0 3.401-2.738 6.16-6.113 6.16h-118.17c-3.376 0-6.112-2.759-6.112-6.16v-118.07c0-3.403 2.735-6.16 6.112-6.16h118.17c3.375 0 6.113 2.758 6.113 6.16l.001 118.07"/><path fill="#d1cabc" d="M27.914 46.2l-.15.071.15-.071"/><path fill="url(#a)" stroke="#888a85" stroke-width=".995" stroke-linejoin="round" d="M5.845 18.06v14.731h20.956l-.035-14.675v-.038l-.018-.019h-20.903z" transform="matrix(5.268 0 0 NaN)"/><path fill="url(#b)" d="MNaN NaNl-40.005 NaN 41.533 NaN 26.93 NaN 37.087 NaN-35.427 NaN-30.117 NaN"/><path stroke="#fff" stroke-width=".995" d="M6.412 18.782v.017l-.018.018v.035l.018 13.306h19.804l-.035-13.234v-.018l-.053-.125h-19.716z" fill="none" transform="matrix(5.268 0 0 NaN)"/><path fill="url(#c)" d="MNaN NaNl-49.967 NaN-.158 NaN 103.063 NaN-28.553 NaN-.09 NaN-23.943 NaN-.353 NaN"/><path fill="url(#d)" stroke="#989898" stroke-width=".852" stroke-linejoin="round" d="M14.03 26.917c-1.342-.222-7.273-7.07-7.741-8.258l-.017-.054h20.15c-.467 1.243-6.405 8.199-7.622 8.312h-4.768000000000001z" transform="matrix(5.268 0 0 NaN)"/><path fill="url(#e)" d="MNaN NaNl-40.595 NaNvNaNl-.095 NaNvNaNl.095 NaN.279 NaN 105.939 NaN-.095 NaN-.095 NaN-39.847 NaN-.19 NaN-25.007 NaN-.369 NaN"/><path stroke="url(#f)" stroke-width=".852" d="M14.08 26.33c-1.388-.311-6.899-6.585-7.564-7.709h19.61c-.845 1.323-6.262 7.603-7.458 7.709h-4.588z" fill="none" transform="matrix(5.268 0 0 NaN)"/><path fill="url(#g)" d="MNaN NaNl-35.664 NaN 6.627 NaN 29.859 NaN 26.34 NaN-27.162 NaN"/></svg>