<svg xmlns="http://www.w3.org/2000/svg" viewBox="191 0 578 560" enable-background="new 191 0 578 560"><path fill="#E4E4E4" d="M760 533.6c0 14.6-11.8 26.5-26.3 26.5h-507.5c-14.5 0-26.2-11.8-26.2-26.5v-507.1c0-14.7 11.7-26.5 26.2-26.5h507.5c14.6 0 26.3 11.8 26.3 26.5v507.1z"/><g><path fill="#F8C943" d="M402.6 87c2.2-.3 4.4-.8 6.6-.8 47.7 0 95.4.1 143-.1 5.3 0 7.8 1.5 10.4 6.3 12.2 22.6 24.8 44.9 37.6 67.1 15.3 26.4 31 52.4 46.4 78.7 19 32.6 37.7 65.2 56.6 97.9.8 1.4 1.2 2.9 1.8 4.4l-143-.1c-4.5 0-9.1-.3-13.6-.5-12.5-21.9-25-43.8-37.6-65.6-10-17.3-20.2-34.5-30.3-51.7-8.3-14-16.8-28-24.9-42.1l-20.9-37.9c-10.5-18.7-21.3-37.1-32.1-55.6z"/><path fill="#367CF3" d="M548.4 339.8c4.5.2 9.1.5 13.6.5 47.7.1 95.3.1 143 .1-15 25.7-30 51.4-44.8 77.2-9.5 16.6-19 33.1-27.8 50-3.3 6.4-7.4 8.2-14.4 8.2-92.4-.2-184.7-.1-277.1-.1-2.2 0-4.4-.5-6.6-.7 9.1-15.8 18.2-31.6 27.5-47.2 7.6-12.8 13-26.6 22.1-38.6 8.4-11.1 14-24.3 21.1-36.4 2.5-4.4 5.6-8.5 8.5-12.7 35.3.1 70.5.2 105.8.1 9.6 0 19.4-.3 29.1-.4z"/><path fill="#0CA25F" d="M413.4 340.1c-2.8 4.2-5.9 8.3-8.5 12.7-7 12.1-12.6 25.4-21.1 36.4-9.2 12.1-14.6 25.9-22.1 38.6-9.3 15.7-18.3 31.5-27.5 47.2-9.7-16.5-19.5-32.9-29.1-49.4-15.5-26.8-30.9-53.7-46.5-80.5-2.2-3.7-2.1-6.3 0-9.9 43.3-74.7 86.4-149.5 129.6-224.2 4.7-8.1 9.6-16 14.4-23.9 10.7 18.5 21.6 36.9 32.2 55.5 7.1 12.5 13.7 25.4 20.9 37.9 8.1 14.2 16.6 28.1 24.9 42.1-14.5 25-29.1 49.9-43.5 75-8.1 14-15.8 28.3-23.7 42.5z"/></g></svg>