<svg xmlns="http://www.w3.org/2000/svg" viewBox="388 0 565 560" enable-background="new 388 0 565 560"><path fill="#E4E4E4" d="M951 533.6c0 14.6-11.8 26.5-26.3 26.5h-507.5c-14.5 0-26.2-11.8-26.2-26.5v-507.1c0-14.7 11.7-26.5 26.2-26.5h507.5c14.6 0 26.3 11.8 26.3 26.5v507.1z"/><g fill="#3387D3"><path d="M520.4 330c-1.9 5.9-.5 10 4.5 13.6 3 2.2 6.4 3.7 10 4.8 7.9 2.5 15.9 3.2 24.1 3.2 5.5 0 10.9-.3 16.3-1.4 7.8-1.5 14.6-4.7 19.9-10.8 1.8-2.1 3.2-4.4 3.9-7.1 1.6-6.1-.8-10.6-6.9-12.5-.6-.2-1.2-.4-1.8-.5-5.5-.6-11.1-1.5-16.7-1.8-13.5-.6-26.9-.8-40.3-2.5-2.4-.3-3.8.3-5.2 2.1-3.1 4-6.2 8-7.8 12.9zM565.4 218.3c-4.4-4.9-10-6.9-16.5-6-7.7 1.1-12.5 6-15.2 13.1-1.7 4.7-2.1 9.6-2.1 16.1.2 1.7.3 5 .8 8.3 1 6.8 3.1 13.1 7.6 18.4 5.3 6.3 12.1 8.3 20 6.2 7.2-1.9 11.3-7.1 13.1-14 2.2-8.6 1.9-17.3.1-25.9-1.3-5.9-3.6-11.5-7.8-16.2zM892.3 208.7c0-35.9-13.5-48.9-49.9-48.8-57.4.2-114.9.1-172.3.1-9.3 0-17.5.7-19.2-13.1-1.8-15.1-14.9-25.9-31.1-26.3-39.1-.9-78.2-1-117.3-.1-19 .5-32.6 17-32.7 37.3-.2 74.7-.3 149.4-.1 224.1.1 23.4 15.7 39.1 39.2 39.6 17.8.4 35.6.2 53.4.2 16.9 0 21.2-5.8 16.8-22.4-.8-2.9-3.7-5.9-3.2-8.4 1.3-6.9 1.9-16.3 6.4-19.7 4.5-3.3 15.6-2.8 20 .7 4.2 3.5 5 13 4.8 19.7-.3 9.2-2.8 18.3-4.6 28.3 5.4 1 6.9 1.6 8.4 1.6 45.2.1 90.5.1 135.7.1 21.6 0 25.3-6 17.1-27-.7-1.9-2.6-4-2.2-5.5 1.8-6.4 2.6-15.7 7-18.1 5.2-2.9 15.3-2.2 20.3 1.3 4.1 2.9 4.6 12 5.2 18.5.3 3.6-3.1 7.4-3.7 11.4-2.7 17-.5 19.6 16.5 19.6 14.2 0 28.5 0 42.7-.3 28.4-.5 42.9-15.1 42.9-43.5-.1-56.5-.1-112.9-.1-169.3zm-283.2 12.6c-.2 2.2-.8 2.8-3.1 2.8l-16.2.2h-1.3c-.1.2-.1.3-.1.3l.2.5c5.8 8.3 7.1 17.6 5.1 27.3-2.7 12.8-10.9 21.1-22.9 25.6-9.6 3.6-19.5 3.9-29.4 1.5-3.7-.9-5.8.1-8 2.7-2.1 2.5-4 5.1-4.7 8.4-.3 1.6.1 3 1 4.2 1.3 1.6 3 2.5 5 2.8 3.1.5 6.3 1 9.4 1.1 11.3.5 22.7.9 34.1 1.4 5.3.2 10.5.9 15.4 3.1 9.9 4.4 15 13 14 23.8-.6 6.2-3.2 11.5-7 16.2-6.6 8.1-14.8 13.8-24.6 17.5-11.4 4.3-23.2 5.2-35.3 4.1-9.9-.9-19.3-3.6-27.8-8.8-4.4-2.7-8.3-5.9-9.8-11.1v-3.2c1.2-5 4.1-9.1 7.3-12.9 4-4.8 8.4-9.3 12.6-13.9l1.1-1.2c-.5-.3-1-.6-1.3-.9-2.1-1.5-4.3-3-6.2-4.7-3.1-2.7-4-6.2-2.9-10.2 1-3.6 2.7-6.9 5.2-9.5 3.7-3.8 7.6-7.3 11.4-11 .3-.3.7-.6 1.1-1-.4-.2-.7-.4-1-.6-14.7-7.9-22-23.6-17.8-39.7 3.9-15.1 14.2-24.1 29-28.1 2.7-.7 5.4-.9 8.2-1.4h6.9l1.4.3c7.3.6 14.2 2.7 20.4 6.6.6.3 1.3.5 2 .5h21.3c1.5 0 2.9 0 4.4.1 1.6.1 2.4.7 2.6 2.3.4 1.7.4 3.3.3 4.9zm139 62.8c-26.9 0-53.7.1-80.6-.1-8.7-.1-18.8-.2-18.7-12.4.1-11.2 9.4-11.3 17.9-11.3h164.2c8.5 0 17.2.4 16.9 12.1-.3 11.9-9.5 11.3-17.6 11.4-27.4.1-54.7 0-82.1 0v.3zm83.8 44.4h-164.4c-8.5 0-17.5-.3-17.9-11.4-.4-11 8.5-12.7 17-12.7 55.3-.1 110.6 0 165.9.1 8 0 16.1 1.5 16.3 11.7.3 11.4-8.2 12.3-16.9 12.3zm.1-90c-55.9.1-111.7.3-167.6-.5-5-.1-13.4-6.7-14.2-11.3-1.7-9.5 6.6-12.4 15-12.4 28.4-.1 56.9 0 85.3 0 26.9 0 53.8 0 80.7.1 8.4 0 17.6.3 17.8 11.6.4 11.2-8.5 12.5-17 12.5z"/></g></svg>