<svg xmlns="http://www.w3.org/2000/svg" viewBox="0 0 130.39 130.39" enable-background="new 0 0 130.39 130.39"><path fill="#5ba0d7" d="M130.39 123.9c0 3.586-2.912 6.494-6.504 6.494h-117.39c-3.591 0-6.5-2.908-6.5-6.494v-117.41c0-3.586 2.91-6.493 6.5-6.493h117.39c3.592 0 6.503 2.908 6.503 6.493v117.41"/><g fill="#fff"><path d="M20.226 39.856l17.924 15.464 26.5-17.627-18.51-15.33zM65.782 37.737l18.418-15.374 26.04 17.439-17.91 15.518-26.548-17.48"/><path d="M92.33 56.03l-26.82 17.52 18.63 15.419 26.03-17.749zM38.28 89.17v4.36l26.91 16.54 27.14-16.67v-4.431l-8.13 5.141-19.01-15.89-18.88 15.59zM20.226 71.06l18.054-15.197 26.37 17.587-18.28 15.519z"/></g></svg>