<svg xmlns="http://www.w3.org/2000/svg" width="130.39" height="130.39"><path fill="#E4E4E4" d="M130.395 124.233c0 3.4-2.738 6.16-6.113 6.16h-118.17c-3.376 0-6.112-2.76-6.112-6.16v-118.073c0-3.402 2.736-6.16 6.112-6.16h118.169c3.375 0 6.113 2.758 6.113 6.16v118.073z"/><path fill="#099F5E" d="M31.971 108.177c-.896-1.409-1.848-2.787-2.682-4.232-4.563-7.906-9.057-15.852-13.682-23.72-.796-1.356-.703-2.302.052-3.575 4.216-7.123 8.377-14.279 12.514-21.45 4.726-8.189 9.412-16.401 14.099-24.614 1.299-2.276 2.5-4.61 3.828-6.868.329-.559.98-.923 1.483-1.377.238.54.432 1.108.723 1.618 4.628 8.116 9.286 16.213 13.89 24.34.797 1.406 1.385 2.931 2.069 4.401-.211.248-.466.472-.626.75-3.565 6.249-7.141 12.494-10.667 18.764-1.168 2.076-2.206 4.229-3.304 6.347-.572.506-1.329.908-1.679 1.539-.741 1.338-1.233 2.813-1.901 4.197-.422.873-1.017 1.661-1.466 2.523-1.369 2.631-2.658 5.307-4.065 7.917-1.815 3.362-3.604 6.747-5.628 9.981-.785 1.254-.819 3.335-2.958 3.459"/><path fill="#4A74B9" d="M31.971 108.177c2.14-.124 2.173-2.205 2.957-3.457 2.024-3.232 3.814-6.617 5.628-9.98 1.407-2.611 2.697-5.285 4.065-7.918.45-.862 1.045-1.648 1.467-2.523.667-1.384 1.159-2.859 1.901-4.197.35-.631 1.106-1.032 1.678-1.537 9.167.014 18.335.033 27.502.03.704 0 1.411-.153 2.116-.235.973.091 1.945.255 2.918.258 10.584.032 21.166.038 31.75.052-1.928 3.438-3.848 6.877-5.781 10.31-3.361 5.965-6.759 11.905-10.07 17.895-.766 1.386-1.707 1.922-3.297 1.919-20.242-.046-40.487-.021-60.73-.05-.702-.005-1.404-.37-2.104-.567"/><path fill="#FACB44" d="M113.953 78.668c-10.584-.014-21.166-.02-31.75-.053-.973-.003-1.945-.167-2.918-.255-.025-.193.01-.424-.082-.578-3.307-5.695-6.601-11.4-9.954-17.067-1.602-2.707-3.32-5.345-4.984-8.013-.685-1.47-1.272-2.995-2.069-4.401-4.605-8.127-9.262-16.225-13.89-24.34-.292-.51-.484-1.078-.723-1.618 4.068-.043 8.135-.111 12.203-.122 6.828-.018 13.656-.039 20.482.062.797.011 1.932.577 2.315 1.237 5.567 9.532 11.036 19.123 16.524 28.702 4.509 7.868 9.02 15.735 13.508 23.615.517.902.896 1.885 1.338 2.831"/></svg>