<svg xmlns="http://www.w3.org/2000/svg" viewBox="282.8 -367.5 255.1 337.8" enable-background="new 282.8 -367.5 255.1 337.8"><g><path fill="#019DED" d="M520.2-31.6h-217.9c-8.9 0-16.1-7.2-16.1-16.1v-300.8c0-8.9 7.2-16.1 16.1-16.1h151.9l82 81.9v235c.1 8.9-7.1 16.1-16 16.1z"/><polygon fill="#287EA6" points="536.3,-237.6 457.5,-284.4 454.3,-364.6 536.3,-282.7"/><path fill="#A3E9F8" d="M454-364.6v72.8c0 5.2 4.2 9.5 9.5 9.5h72.8l-82.3-82.3z"/><path fill="#fff" d="M482.6-122c5.5 0 10.1-4.6 10.1-10.1v-98.4c0-5.5-4.6-10.1-10.1-10.1h-143.6c-5.5 0-10.1 4.6-10.1 10.1v98.4c0 5.5 4.6 10.1 10.1 10.1h143.6zm-128.5-4.8l56.4-39.6 56.4 39.6h-112.8zm119.5.1l-61.2-44.2 61.2-45.5v89.7zm-1.9-110.8l-61.6 43.8-60.8-43.8h122.4zm-124.4 21.8l61.2 44.6-61.2 44.4v-89z"/></g></svg>