<svg xmlns="http://www.w3.org/2000/svg" viewBox="0 0 250 333" enable-background="new 0 0 250 333" xmlns:xlink="http://www.w3.org/1999/xlink"><defs><linearGradient id="f" gradientUnits="userSpaceOnUse" x1="18.478" y1="46.746" x2="44.39" y2="49.653" gradientTransform="matrix(38.048 0 NaN 1950.41)"><stop stop-color="#fff"/><stop offset="1" stop-color="#ededed"/></linearGradient><linearGradient id="e" gradientUnits="userSpaceOnUse" x1="18.222" y1="46.612" x2="25.82" y2="17.13" gradientTransform="matrix(43.59 0 NaN 1626.57)" xlink:href="#a"/><linearGradient id="g" gradientUnits="userSpaceOnUse" x1="19.447" y1="56.09" x2="24.528" y2="53.617" gradientTransform="matrix(27.754 0 0 NaN)"><stop stop-color="#fff"/><stop offset="1" stop-color="#fff" stop-opacity="0"/></linearGradient><linearGradient id="d" gradientUnits="userSpaceOnUse" x1="18.626" y1="46.665" x2="20.863" y2="47.19" gradientTransform="matrix(35.969 0 NaN 1911.47)" xlink:href="#a"/><linearGradient id="b" gradientUnits="userSpaceOnUse" x1="17.432" y1="57.779" x2="18.198" y2="72.68" gradientTransform="matrix(68.13 0 0 NaN)"><stop stop-color="#dfe0df"/><stop offset=".238" stop-color="#a6b0a6"/><stop offset="1" stop-color="#b5beb5"/></linearGradient><linearGradient id="a" gradientUnits="userSpaceOnUse" x1="18.49" y1="53.32" x2="25.821" y2="75.918" gradientTransform="matrix(37.287 0 0 NaN)"><stop stop-color="#fff"/><stop offset="1" stop-color="#e2e2e2"/></linearGradient><radialGradient id="c" cx="23.425" cy="59.44" r="19.11" gradientTransform="matrix(17.483 NaN NaN)" gradientUnits="userSpaceOnUse"><stop stop-opacity=".129"/><stop offset="1" stop-opacity="0"/></radialGradient></defs><path fill="#6a6c6d" d="M248.704 81l-69.704-69.704-1.296-1.296h-156.242c-6.514 0-12.462 4.751-12.462 11.319v299.289c0 6.568 5.948 12.392 12.462 12.392h216.243c6.514 0 11.295-5.824 11.295-12.393v-239.311l-.296-.296z"/><path fill="#d2d7d8" d="M182.462 71c-6.515 0-12.462-5.824-12.462-12.392v-57.312l-1.296-1.296h-156.242c-6.514 0-12.462 4.751-12.462 11.319v299.289c0 6.568 5.948 12.392 12.462 12.392h216.243c6.514 0 11.295-5.824 11.295-12.393v-239.311l-.296-.296h-57.242z"/><path fill="#fff" d="M182.46 71h57.24l-69.7-69.7v57.31c0 6.569 5.947 12.393 12.462 12.393"/><text transform="translate(20.5 101.42)" fill="#6a6c6d" font-family="'MyriadPro-Semibold'" font-size="57.71">MAIL</text><path fill="#d1cabc" d="M50.12 166.68l-.282.132.282-.132"/><path fill="url(#a)" stroke="#888a85" stroke-width=".995" stroke-linejoin="round" d="M7.086 37.606v27.612h39.28l-.066-27.507v-.072l-.034-.035h-39.18v.002z" transform="matrix(5.268 0 0 NaN)"/><path fill="url(#b)" d="MNaN NaNl-74.99 NaN 77.851 NaN 50.478 NaN 69.517 NaN-66.403 NaN-56.452 NaN"/><path stroke="#fff" stroke-width=".995" d="M8.148 38.965v.032l-.034.034v.066l.034 24.941h37.12l-.065-24.806v-.034l-.1-.234h-36.957v.001z" fill="none" transform="matrix(5.268 0 0 NaN)"/><path fill="url(#c)" d="MNaN NaNl-93.66 NaN-.295 NaN 193.188 NaN-53.523 NaN-.169 NaN-44.883 NaN-.658 NaN"/><path fill="url(#d)" stroke="#989898" stroke-width=".852" stroke-linejoin="round" d="M22.421 54.21c-2.516-.417-13.633-13.247-14.511-15.479l-.032-.101h37.766c-.875 2.33-12.01 15.369-14.287 15.58h-8.936z" transform="matrix(5.268 0 0 NaN)"/><path fill="url(#e)" d="MNaN NaNl-76.091 NaNvNaNl-.179 NaNvNaNl.179 NaN.522 NaN 198.54 NaN-.179 NaN-.179 NaN-74.69 NaN-.353 NaN-46.875 NaN-.695 NaN"/><path stroke="url(#f)" stroke-width=".852" d="M22.526 53.11c-2.602-.583-12.932-12.343-14.179-14.45h36.758c-1.584 2.48-11.738 14.251-13.98 14.45h-8.599z" fill="none" transform="matrix(5.268 0 0 NaN)"/><path fill="url(#g)" d="MNaN NaNl-66.851 NaN 12.422 NaN 55.967 NaN 49.372 NaN-50.91 NaN"/></svg>