<svg xmlns="http://www.w3.org/2000/svg" width="250" height="333"><g><path fill="#6A6C6D" d="M248.704 81l-69.704-69.704-1.296-1.296h-156.242c-6.514 0-12.462 4.751-12.462 11.319v299.289c0 6.568 5.948 12.392 12.462 12.392h216.243c6.514 0 11.295-5.824 11.295-12.392v-239.312l-.296-.296z"/><path fill="#D2D7D8" d="M182.462 71c-6.514 0-12.462-5.824-12.462-12.392v-57.312l-1.296-1.296h-156.242c-6.514 0-12.462 4.751-12.462 11.319v299.289c0 6.568 5.948 12.392 12.462 12.392h216.243c6.514 0 11.295-5.824 11.295-12.392v-239.312l-.296-.296h-57.242z"/><path fill="#fff" d="M182.462 71h57.242l-69.704-69.704v57.311c0 6.569 5.948 12.393 12.462 12.393z"/></g><text transform="translate(20.499 101.416)" fill="#6A6C6D" font-family="'MyriadPro-Semibold'" font-size="57.709">MAIL</text></svg>