<svg xmlns="http://www.w3.org/2000/svg" viewBox="562.3 -0.9 252.4 333.8" enable-background="new 562.3 -0.9 252.4 333.8"><g><path fill="#2DA05C" d="M798.8 333h-217.8c-8.9 0-16.1-7.2-16.1-16.1v-300.8c0-8.9 7.2-16.1 16.1-16.1h151.9l82 81.9v235c0 8.9-7.2 16.1-16.1 16.1z"/><polygon fill="#528758" points="814.9,127.1 736.1,80.3 732.9,0 814.9,82"/><path fill="#6EAB7D" d="M732.6 0v72.8c0 5.2 4.2 9.5 9.5 9.5h72.8l-82.3-82.3z"/><rect x="592.1" y="128.5" stroke="#fff" stroke-width="9" stroke-miterlimit="10" width="196.4" height="125.8" fill="none"/><line stroke="#fff" stroke-width="9" stroke-miterlimit="10" x1="639.9" y1="128.8" x2="639.9" y2="257.5" fill="none"/><line stroke="#fff" stroke-width="9" stroke-miterlimit="10" x1="787.8" y1="169.3" x2="592.1" y2="169.3" fill="none"/><line stroke="#fff" stroke-width="9" stroke-miterlimit="10" x1="787.8" y1="214.2" x2="592.1" y2="214.2" fill="none"/></g></svg>