<svg xmlns="http://www.w3.org/2000/svg" viewBox="843.3 366.9 254.3 334.6" enable-background="new 843.3 366.9 254.3 334.6"><g><path fill="#BC4943" d="M1078.2 700.2h-217.9c-8.9 0-16.1-7.2-16.1-16.1v-300.8c0-8.9 7.2-16.1 16.1-16.1h151.9l82 81.9v235c0 8.9-7.2 16.1-16 16.1z"/><polygon fill="#7C404E" points="1094.2,494.3 1015.5,447.5 1012.3,367.2 1094.2,449.2"/><path fill="#C47A7C" d="M1012 367.2v72.8c0 5.2 4.2 9.5 9.5 9.5h72.8l-82.3-82.3z"/><rect x="875.4" y="493.2" fill="#EABBCA" stroke="#fff" stroke-width="12" stroke-miterlimit="10" width="186.5" height="119.5"/><polygon fill="#fff" points="878.9,589.6 920.8,541.9 977.4,595.3 999,575.6 1060.6,602.3 1061.9,612.7 880.1,612.7"/></g></svg>