<svg xmlns="http://www.w3.org/2000/svg" width="250" height="333"><g><path fill="#6A6C6D" d="M248.704 81l-69.704-69.704-1.296-1.296h-156.242c-6.514 0-12.462 4.751-12.462 11.319v299.289c0 6.568 5.948 12.392 12.462 12.392h216.243c6.514 0 11.295-5.824 11.295-12.393v-239.311l-.296-.296z"/><path fill="#D2D7D8" d="M182.462 71c-6.515 0-12.462-5.824-12.462-12.392v-57.312l-1.296-1.296h-156.242c-6.514 0-12.462 4.751-12.462 11.319v299.289c0 6.568 5.948 12.392 12.462 12.392h216.243c6.514 0 11.295-5.824 11.295-12.393v-239.311l-.296-.296h-57.242z"/><path fill="#fff" d="M182.462 71h57.242l-69.704-69.704v57.311c0 6.569 5.947 12.393 12.462 12.393z"/></g><text transform="translate(20.5 101.416)" fill="#6A6C6D" font-family="'MyriadPro-Semibold'" font-size="57.709">MAIL</text><path fill="#D1CABC" d="M50.12 166.681l-.282.132.282-.132"/><g transform="matrix(5.268 0 0 5.275 -20.798 -68.901)"><linearGradient id="a" gradientUnits="userSpaceOnUse" x1="18.49" y1="53.318" x2="25.821" y2="75.918" gradientTransform="matrix(37.287 0 0 41.897 -669.942 -2207.295)"><stop offset="0" stop-color="#fff"/><stop offset="1" stop-color="#E2E2E2"/></linearGradient><path fill="url(#a)" stroke="#888A85" stroke-width=".995" stroke-linejoin="round" d="M7.086 37.606v27.612h39.281l-.066-27.507v-.072l-.034-.035h-39.181v.002z"/><linearGradient id="b" gradientUnits="userSpaceOnUse" x1="17.432" y1="57.779" x2="18.198" y2="72.68" gradientTransform="matrix(68.13 0 0 21.201 -1162.827 -1172.599)"><stop offset="0" stop-color="#DFE0DF"/><stop offset=".238" stop-color="#A6B0A6"/><stop offset="1" stop-color="#B5BEB5"/></linearGradient><path fill="url(#b)" d="M22.119 52.06l-14.235 11.659 14.778-10.207h9.582l13.196 10.076-12.605-11.528h-10.716z"/><path stroke="#fff" stroke-width=".995" d="M8.148 38.965v.032l-.034.034v.066l.034 24.941h37.122l-.065-24.806v-.034l-.1-.234h-36.957v.001z" fill="none"/><radialGradient id="c" cx="23.425" cy="59.443" r="19.105" gradientTransform="matrix(17.483 12.75 -4.109 6.914 -134.898 -655.096)" gradientUnits="userSpaceOnUse"><stop offset="0" stop-opacity=".129"/><stop offset="1" stop-opacity="0"/></radialGradient><path fill="url(#c)" d="M25.133 56.244c-2.542-.474-16.394-15.116-17.779-17.665l-.056-.114h36.672c-.294 2.658-7.995 17.537-10.16 17.779h-8.677z"/><linearGradient id="d" gradientUnits="userSpaceOnUse" x1="18.626" y1="46.665" x2="20.863" y2="47.193" gradientTransform="matrix(35.969 0 0 -39.98 -648.013 1911.469)"><stop offset="0" stop-color="#fff"/><stop offset="1" stop-color="#E2E2E2"/></linearGradient><path fill="url(#d)" stroke="#989898" stroke-width=".852" stroke-linejoin="round" d="M22.421 54.214c-2.516-.417-13.633-13.247-14.511-15.479l-.032-.101h37.766c-.875 2.33-12.005 15.369-14.287 15.58h-8.936z"/><linearGradient id="e" gradientUnits="userSpaceOnUse" x1="18.222" y1="46.612" x2="25.82" y2="17.131" gradientTransform="matrix(43.59 0 0 -34.265 -770.572 1626.57)"><stop offset="0" stop-color="#fff"/><stop offset="1" stop-color="#E2E2E2"/></linearGradient><path fill="url(#e)" d="M22.261 53.58c-2.238-.521-13.709-13.284-14.444-14.902v-.034l-.034-.069v-.034h.034l.099-.103h37.688l-.034.103-.034.103c-.98 2.317-12.227 14.628-14.178 14.935h-8.965l-.132.001z"/><linearGradient id="f" gradientUnits="userSpaceOnUse" x1="18.478" y1="46.746" x2="44.391" y2="49.653" gradientTransform="matrix(38.048 0 0 -40.751 -682.451 1950.407)"><stop offset="0" stop-color="#fff"/><stop offset="1" stop-color="#EDEDED"/></linearGradient><path stroke="url(#f)" stroke-width=".852" d="M22.526 53.113c-2.602-.583-12.932-12.343-14.179-14.45h36.758c-1.584 2.48-11.738 14.251-13.98 14.45h-8.599z" fill="none"/><linearGradient id="g" gradientUnits="userSpaceOnUse" x1="19.447" y1="56.093" x2="24.528" y2="53.617" gradientTransform="matrix(27.754 0 0 27.823 -520.474 -1503.183)"><stop offset="0" stop-color="#fff"/><stop offset="1" stop-color="#fff" stop-opacity="0"/></linearGradient><path fill="url(#g)" d="M22.615 53.535l-12.69 8.789 2.358.006 10.624-7.299 9.372-1.513-9.664.017z"/></g></svg>