<svg xmlns="http://www.w3.org/2000/svg" width="206.171" height="273.999"><g fill="#0098FF"><path d="M5.999 0h134.983c-.037 15.448-.115 30.897-.095 46.345.01 7.584 4.13 11.61 11.695 11.655 13.951.082 27.902.132 41.852.258 1.7.015 3.775-.75 4.811 1.525-.072 24.635-.186 49.27-.208 73.905-.036 40.286.006 80.572-.026 120.858-.007 8.992-3.304 12.482-11.717 12.483-59.763.005-119.527-.016-179.29-.029-3.066-2.282-5.961-4.733-8.006-8.032.002-84.323.002-168.646.002-252.969 1.867-2.133 3.262-4.737 5.999-5.999zm115.947 182.731c-.505-4.605.15-9.197-3.272-13.532-10.309-13.059-20.137-26.502-29.967-39.932-2.086-2.85-4.534-4.664-7.78-5.844-10.009-3.637-19.966-7.417-29.937-11.156-2.504-.939-5.164-2.378-7.232.477-2.118 2.925-.372 5.21 1.663 7.462 7.593 8.401 15.097 16.883 22.635 25.334 3.997 4.481 3.992 4.46-1.926 6.221-14.672 4.366-29.328 8.784-44.011 13.109-4.154 1.223-8.041 2.727-8.973 7.561-.981 5.088.329 9.266 4.665 12.68 11.584 9.122 22.932 18.544 34.435 27.77 2.93 2.35 6.215 3.694 10.062 2.065 17.832-7.551 35.684-15.054 53.498-22.647 4.103-1.747 7.112-4.403 6.14-9.568zM26.779 170.841c7.399-2.371 13.537-4.321 19.659-6.318 1.058-.345 1.951-.172 2.831.403 10.704 6.995 21.408 13.991 33.076 21.617-7.657 2.872-14.41 5.379-21.138 7.949-1.336.51-2.258-.128-3.193-.81-10.066-7.348-20.121-14.711-31.235-22.841zM108.491 176.639c-6.959 2.631-13.152 4.97-19.343 7.314-.998.378-1.981.339-2.869-.238-10.694-6.947-21.379-13.909-32.685-21.269 6.666-2.161 12.499-4.043 18.324-5.948 1.007-.329 1.912-.314 2.855.244 10.99 6.5 21.991 12.981 33.718 19.897zM51.26 200.453c-.087 1.649-.025 3.74-2.113 3.854-2.2.12-2.258-1.959-2.258-3.621 0-1.661.047-3.657 2.282-3.604 1.847.044 1.983 1.861 2.089 3.371zM44.732 62.109c.761-2.411-1.817-6.465 3.753-6.168 5.6.298 8.625 2.45 8.524 6.828-.093 4.044-2.848 5.892-7.904 6.287-6.526.509-3.513-4.284-4.373-6.947z"/></g><path fill="#8FB8C9" d="M199.246 59.783c5.347 3.739 6.957 8.679 6.925 15.315-.29 60.948-.19 121.898-.239 182.848-.012 15.078-.902 16.034-15.706 16.04-56.786.024-113.572-.069-170.358.013-5.593.008-9.788-1.473-11.862-6.999 59.764.013 119.527.035 179.29.03 8.412-.001 11.71-3.491 11.717-12.483.031-40.286-.01-80.572.026-120.858.021-24.636.135-49.271.207-73.906z"/><path fill="#FDFCFA" d="M121.946 182.731c.972 5.164-2.038 7.82-6.139 9.569-17.814 7.593-35.666 15.096-53.498 22.647-3.847 1.629-7.132.285-10.062-2.065-11.503-9.226-22.851-18.648-34.435-27.77-4.336-3.414-5.647-7.593-4.665-12.68.932-4.834 4.82-6.337 8.973-7.561 14.684-4.325 29.34-8.743 44.011-13.109 5.918-1.761 5.923-1.74 1.926-6.221-7.538-8.451-15.042-16.932-22.635-25.334-2.035-2.252-3.782-4.537-1.663-7.462 2.067-2.855 4.728-1.416 7.232-.477 9.971 3.739 19.928 7.52 29.937 11.156 3.246 1.179 5.694 2.994 7.78 5.844 9.83 13.429 19.658 26.872 29.967 39.932 3.422 4.335 2.766 8.927 3.271 13.531zm-95.167-11.89c11.114 8.13 21.169 15.493 31.236 22.84.934.682 1.857 1.32 3.193.81 6.728-2.571 13.481-5.077 21.138-7.949-11.668-7.626-22.372-14.622-33.076-21.617-.88-.575-1.773-.748-2.831-.403-6.123 1.998-12.261 3.948-19.66 6.319zm81.712 5.798c-11.727-6.916-22.728-13.397-33.718-19.898-.942-.557-1.848-.573-2.855-.244-5.825 1.906-11.658 3.787-18.324 5.948 11.305 7.36 21.99 14.322 32.685 21.269.888.577 1.871.615 2.869.238 6.191-2.343 12.384-4.683 19.343-7.313zm-57.232 23.809c-.105-1.505-.241-3.322-2.088-3.365-2.234-.053-2.282 1.943-2.282 3.604s.057 3.74 2.258 3.621c2.088-.114 2.026-2.206 2.112-3.86z"/><g fill="#fff"><path d="M24.693 56.244v33.702h-6.15v-33.702h6.15zM60.194 76.195c-.2-4.35-.45-9.601-.4-14.151h-.15c-1.1 4.101-2.5 8.651-4 12.901l-4.9 14.601h-4.75l-4.5-14.401c-1.3-4.3-2.5-8.901-3.4-13.101h-.1c-.15 4.4-.35 9.751-.6 14.351l-.75 13.551h-5.75l2.25-33.702h8.101l4.4 13.551c1.2 3.95 2.25 7.951 3.1 11.701h.15c.9-3.65 2.05-7.8 3.35-11.75l4.65-13.501h8l1.95 33.702h-6l-.651-13.752zM100.093 88.396c-2.15.8-6.35 1.9-10.851 1.9-5.7 0-10-1.45-13.201-4.5-3-2.85-4.75-7.3-4.7-12.4 0-10.651 7.6-17.501 18.751-17.501 4.15 0 7.4.85 8.951 1.6l-1.35 4.951c-1.85-.8-4.101-1.45-7.65-1.45-7.201 0-12.251 4.25-12.251 12.101 0 7.65 4.7 12.201 11.701 12.201 2.2 0 3.85-.3 4.65-.7v-8.401h-5.95v-4.85h11.9v17.049z"/></g></svg>