<svg xmlns="http://www.w3.org/2000/svg" viewBox="285.2 370.7 250.9 335.3" enable-background="new 285.2 370.7 250.9 335.3"><g><path fill="#019DED" d="M520.1 703.7h-217.9c-8.9 0-16.1-7.2-16.1-16.1v-300.8c0-8.9 7.2-16.1 16.1-16.1h151.9l82 81.9v235c0 8.9-7.2 16.1-16 16.1z"/><polygon fill="#287EA6" points="536.1,497.8 457.4,451 454.2,370.7 536.1,452.7"/><path fill="#A3E9F8" d="M453.9 370.7v72.8c0 5.2 4.2 9.5 9.5 9.5h72.8l-82.3-82.3z"/><g fill="#fff"><path d="M326 559.3v-10.8l62.2-26.3v11.5l-49.3 20.3 49.4 20.4v11.5l-62.3-26.6zM395.5 602l27.2-97.2h9.2l-27.1 97.2h-9.3zM501.4 559.3l-62.2 26.6v-11.5l49.3-20.4-49.3-20.3v-11.5l62.2 26.3v10.8z"/></g></g></svg>