<svg xmlns="http://www.w3.org/2000/svg" width="97.017" height="129.232" viewBox="13.092 -0.553 97.017 129.232" enable-background="new 13.092 -0.553 97.017 129.232"><path fill="#F4B401" d="M103.859 128.679h-84.519c-3.454 0-6.248-2.795-6.248-6.248v-116.729c0-3.454 2.794-6.248 6.248-6.248h58.946l31.822 31.783v91.188c0 3.455-2.795 6.249-6.248 6.249"/><path fill="#DBA749" d="M110.109 48.771l-30.579-18.159-1.242-31.16 31.821 31.821v17.501"/><path fill="#FFCF64" d="M78.169-.551v28.25c0 2.02 1.631 3.687 3.688 3.687h28.25l-31.94-31.939"/><path fill="#F4B401" d="M48.557 67.749h45.637v28.02h-45.637v-28.02"/><g fill="#fff"><path d="M61.6 43.766c-14.358 0-26 11.642-26 26 0 14.359 11.641 26 26 26 14.358 0 25.999-11.641 25.999-26 0-14.358-11.639-26-25.999-26m0 47.27c-11.748 0-21.272-9.523-21.272-21.271 0-11.749 9.524-21.272 21.272-21.272 11.749 0 21.271 9.523 21.271 21.272.002 11.746-9.522 21.271-21.271 21.271M71.22 63.37c-.924-.923-2.42-.923-3.344 0l-8.356 8.355-3.343-3.342c-.923-.924-2.419-.924-3.342 0-.923.922-.923 2.42 0 3.344l5.01 5.01c.923.925 2.421.925 3.344 0l10.029-10.029c.924-.923.926-2.42.002-3.344"/></g></svg>