<svg xmlns="http://www.w3.org/2000/svg" width="100" height="100"><path fill="#C4C4C4" d="M15 99h-12v-12c0-27 .039-54-.065-81-.01-2.5.565-3.073 3.065-3.065 30 .1 60 .1 90 0 2.5-.008 3.073.565 3.065 3.065-.1 30-.1 60 0 90 .008 2.5-.547 3.272-3.07 3.059-2.979-.251-5.995-.059-8.995-.059-1.349-16.982-8.953-29.957-24.799-37.912 1.681-1.594 3.205-2.83 4.48-4.286 5.719-6.531 7.55-13.976 4.474-22.211-3.002-8.035-8.927-12.744-17.505-13.579-9.027-.879-16.306 2.076-20.969 10.356-5.192 9.219-3.545 19.539 4.539 27.206 1.355 1.285 3.885 2.261.312 4.079-14.83 7.546-21.078 20.476-22.532 36.347z"/></svg>