<svg xmlns="http://www.w3.org/2000/svg" viewBox="287.4 -0.9 250.2 333.1" enable-background="new 287.4 -0.9 250.2 333.1"><g><path fill="#019DED" d="M521.2 333h-217.8c-8.9 0-16.1-7.2-16.1-16.1v-300.8c0-8.9 7.2-16.1 16.1-16.1h151.9l82 81.9v235c0 8.9-7.2 16.1-16.1 16.1z"/><polygon fill="#287EA6" points="537.3,127.1 458.5,80.3 455.3,0 537.3,82"/><path fill="#A3E9F8" d="M455 0v72.8c0 5.2 4.2 9.5 9.5 9.5h72.8l-82.3-82.3z"/><rect x="318.9" y="125.2" fill="#fff" width="183" height="17.7"/><rect x="318.9" y="167.4" fill="#fff" width="183" height="17.7"/><rect x="318.9" y="210.6" fill="#fff" width="183" height="17.7"/><rect x="318.9" y="252.8" fill="#fff" width="77.6" height="17.7"/></g></svg>