<svg xmlns="http://www.w3.org/2000/svg" viewBox="287.4 -0.9 250.2 333.1" enable-background="new 287.4 -0.9 250.2 333.1"><path fill="#019ded" d="M521.2 333h-217.8c-8.9 0-16.1-7.2-16.1-16.1v-300.8c0-8.9 7.2-16.1 16.1-16.1h151.9l82 81.9v235c0 8.9-7.2 16.1-16.1 16.1"/><path fill="#287ea6" d="M537.3 127.1l-78.8-46.8-3.2-80.3 82 82z"/><path fill="#a3e9f8" d="M455 0v72.8c0 5.2 4.2 9.5 9.5 9.5h72.8l-82.3-82.3z"/><g fill="#fff"><path d="M318.9 125.2h183v17.7h-183zM318.9 167.4h183v17.7h-183zM318.9 210.6h183v17.7h-183zM318.9 252.8h77.6v17.7h-77.6z"/></g></svg>