<svg xmlns="http://www.w3.org/2000/svg" viewBox="843.3 366.9 254.3 334.6" enable-background="new 843.3 366.9 254.3 334.6"><path fill="#bc4943" d="M1078.2 700.2h-217.9c-8.9 0-16.1-7.2-16.1-16.1v-300.8c0-8.9 7.2-16.1 16.1-16.1h151.9l82 81.9v235c0 8.9-7.2 16.1-16 16.1"/><path fill="#7c404e" d="M1094.2 494.3l-78.7-46.8-3.2-80.3 81.9 82z"/><path fill="#c47a7c" d="M1012 367.2v72.8c0 5.2 4.2 9.5 9.5 9.5h72.8l-82.3-82.3"/><path fill="#eabbca" stroke="#fff" stroke-width="12" stroke-miterlimit="10" d="M875.4 493.2h186.5v119.5h-186.5z"/><path fill="#fff" d="M878.9 589.6l41.9-47.7 56.6 53.4 21.6-19.7 61.6 26.7 1.3 10.4h-181.8z"/></svg>