<svg xmlns="http://www.w3.org/2000/svg" viewBox="562.3 -0.9 252.4 333.8" enable-background="new 562.3 -0.9 252.4 333.8"><path fill="#2da05c" d="M798.8 333h-217.8c-8.9 0-16.1-7.2-16.1-16.1v-300.8c0-8.9 7.2-16.1 16.1-16.1h151.9l82 81.9v235c0 8.9-7.2 16.1-16.1 16.1"/><path fill="#528758" d="M814.9 127.1l-78.8-46.8-3.2-80.3 82 82z"/><path fill="#6eab7d" d="M732.6 0v72.8c0 5.2 4.2 9.5 9.5 9.5h72.8l-82.3-82.3z"/><g stroke="#fff" stroke-width="9" stroke-miterlimit="10" fill="none"><path d="M592.1 128.5h196.4v125.8h-196.4zM639.9 128.8v128.7M787.8 169.3h-195.7M787.8 214.2h-195.7"/></g></svg>