<svg xmlns="http://www.w3.org/2000/svg" width="64.875" height="64.697"><g><line stroke="#929497" stroke-width="4" stroke-miterlimit="10" x1="26.08" y1="8.962" x2="50.08" y2="8.962" fill="none"/><line stroke="#929497" stroke-width="4" stroke-miterlimit="10" x1="26.08" y1="22.962" x2="50.08" y2="22.962" fill="none"/><line stroke="#929497" stroke-width="4" stroke-miterlimit="10" x1="26.08" y1="36.962" x2="50.08" y2="36.962" fill="none"/><line stroke="#929497" stroke-width="4" stroke-miterlimit="10" x1="26.08" y1="50.962" x2="50.08" y2="50.962" fill="none"/><path fill="#A6A8AB" d="M13.968 13.029c.297-.348.57-.604.782-.707l4.662-2.358c1.08-.553 2.407-.121 2.957.972l5.017 9.908c.549 1.084.113 2.407-.975 2.952l-4.657 2.362c-.557.289-1.643.176-3.21-.142-.72 3.744 1.681 8.104 6.413 13.07 3.84 4.025 9.674 9.75 15.278 8.51-1.568-2.188-1.064-3.668-.486-4.414l3.258-4.222c.753-.98 2.161-1.164 3.137-.406l8.983 6.914c.98.762 1.164 2.169.407 3.154l-3.254 4.217c-.159.21-.519.435-.996.662l.024.05c-13.49 6.781-26.128-1.872-32.674-9.481-9.402-10.943-10.922-18.192-7.07-26.635.649-1.428 1.457-2.89 2.404-4.406z"/><path fill="#4875B3" d="M14.019 11.306c.297-.348.57-.604.782-.707l4.662-2.358c1.08-.553 2.407-.121 2.957.972l5.017 9.908c.549 1.084.113 2.407-.975 2.952l-4.657 2.362c-.557.289-1.643.176-3.21-.142-.72 3.744 1.681 8.104 6.413 13.07 3.84 4.025 9.674 9.75 15.278 8.51-1.568-2.188-1.064-3.668-.486-4.414l3.258-4.222c.753-.98 2.161-1.164 3.137-.406l8.983 6.914c.98.762 1.164 2.169.407 3.154l-3.254 4.217c-.159.21-.519.435-.996.662l.024.05c-13.49 6.781-26.128-1.872-32.674-9.481-9.402-10.943-10.922-18.192-7.07-26.635.649-1.429 1.457-2.891 2.404-4.406z"/></g></svg>