<svg xmlns="http://www.w3.org/2000/svg" viewBox="-4.2 -0.9 255.3 336" enable-background="new -4.2 -0.9 255.3 336"><g><path fill="#F4B401" d="M233.9 333h-217.8c-8.9 0-16.1-7.2-16.1-16.1v-300.8c0-8.9 7.2-16.1 16.1-16.1h151.9l82 81.9v235c0 8.9-7.2 16.1-16.1 16.1z"/><polygon fill="#DBA749" points="250,127.1 171.2,80.3 168,0 250,82"/><path fill="#FFCF64" d="M167.7 0v72.8c0 5.2 4.2 9.5 9.5 9.5h72.8l-82.3-82.3z"/><path fill="#fff" d="M153.6 134.6v58.2h-103.6v-58.2h103.6m8.8-14h-121.2c-2.9 0-5.2 2.3-5.2 5.2v75.7c0 2.9 2.3 5.2 5.2 5.2h121.2c2.9 0 5.2-2.3 5.2-5.2v-75.7c0-2.9-2.3-5.2-5.2-5.2z"/><rect x="91.4" y="176" fill="#F4B401" width="117.6" height="72.2"/><path fill="#fff" d="M202.1 183v58.2h-103.7v-58.2h103.7m8.7-14h-121.1c-2.9 0-5.2 2.3-5.2 5.2v75.8c0 2.9 2.3 5.2 5.2 5.2h121.2c2.9 0 5.2-2.3 5.2-5.2v-75.7c0-2.9-2.4-5.3-5.3-5.3z"/></g></svg>