<svg xmlns="http://www.w3.org/2000/svg" width="206.171" height="273.999"><g fill="#FFE000"><path d="M5.999 0h134.983c-.037 15.448-.115 30.897-.095 46.345.01 7.584 4.13 11.61 11.695 11.655 13.951.082 27.902.132 41.852.258 1.7.015 3.775-.75 4.811 1.525-.072 24.635-.186 49.27-.208 73.905-.036 40.286.006 80.572-.026 120.858-.007 8.992-3.304 12.482-11.717 12.483-59.763.005-119.527-.016-179.29-.029-3.066-2.282-5.961-4.733-8.006-8.032.002-84.323.002-168.646.002-252.969 1.867-2.133 3.262-4.737 5.999-5.999zM44.732 62.109c.761-2.411-1.817-6.465 3.753-6.168 5.6.298 8.625 2.45 8.524 6.828-.093 4.044-2.848 5.892-7.904 6.287-6.526.509-3.513-4.284-4.373-6.947z"/></g><path fill="#C6B394" d="M199.246 59.783c5.347 3.739 6.957 8.679 6.925 15.315-.29 60.948-.19 121.898-.239 182.848-.012 15.078-.902 16.034-15.706 16.04-56.786.024-113.572-.069-170.358.013-5.593.008-9.788-1.473-11.862-6.999 59.764.013 119.527.035 179.29.03 8.412-.001 11.71-3.491 11.717-12.483.031-40.286-.01-80.572.026-120.858.021-24.636.135-49.271.207-73.906z"/><g fill="#fff"><path d="M18.543 89.946v-33.702h7l8.7 14.451c2.25 3.75 4.201 7.65 5.75 11.3h.1c-.4-4.5-.55-8.851-.55-14v-11.751h5.701v33.702h-6.351l-8.8-14.801c-2.15-3.7-4.4-7.851-6.05-11.651l-.15.05c.25 4.351.3 8.801.3 14.351v12.051h-5.65zM82.244 72.745c0 11.301-6.851 17.751-16.151 17.751-9.501 0-15.501-7.25-15.501-17.151 0-10.351 6.5-17.651 16.001-17.651 9.85 0 15.651 7.45 15.651 17.051zm-25.152.5c0 6.851 3.45 12.301 9.351 12.301 5.951 0 9.301-5.5 9.301-12.551 0-6.35-3.15-12.351-9.301-12.351-6.101 0-9.351 5.651-9.351 12.601zM92.642 61.394h-9.601v-5.15h25.452v5.15h-9.701v28.552h-6.15v-28.552zM131.292 74.995h-12.701v9.9h14.201v5.05h-20.352v-33.701h19.602v5.05h-13.451v8.701h12.701v5z"/></g><path fill="#ADA26C" d="M74.116 153.181c10.991-.638 22.936 2.477 30.442-9.589 5.607-9.014 19.169-12.712 17.164-26.921l3.037-2.043c9.781 10.995 19.562 21.99 29.641 33.321-17.027 2.278-23.485 17.856-34.845 27.215-1.418 1.168-1.515 4.342-1.622 6.615-.231 4.923-.071 9.864-.071 14.798l-2.223 1.322-42.599-42.599 1.076-2.119z"/><path fill="#fff" d="M88.705 177.72l4.992 4.775c-14.471 12.706-25.661 28.408-41.622 38.914l-1.833-1.295c.881-2.236 1.188-5.034 2.736-6.62 11.687-11.974 23.618-23.711 35.727-35.774z"/></svg>