<svg xmlns="http://www.w3.org/2000/svg" width="250" height="333"><g><path fill="#DF995E" d="M248.704 81l-69.704-69.704-1.296-1.296h-156.242c-6.514 0-12.462 4.751-12.462 11.319v299.289c0 6.568 5.948 12.392 12.462 12.392h216.243c6.514 0 11.295-5.824 11.295-12.392v-239.312l-.296-.296z"/><path fill="#E55900" d="M182.462 71c-6.514 0-12.462-5.824-12.462-12.392v-57.312l-1.296-1.296h-156.242c-6.514 0-12.462 4.751-12.462 11.319v299.289c0 6.568 5.948 12.392 12.462 12.392h216.243c6.514 0 11.295-5.824 11.295-12.392v-239.312l-.296-.296h-57.242z"/><path fill="#fff" d="M182.462 71h57.242l-69.704-69.704v57.311c0 6.569 5.948 12.393 12.462 12.393z"/><g fill="#fff"><rect x="127.742" y="175.383" width="98.516" height="55.492"/><rect x="17.742" y="175.383" width="98.516" height="55.492"/><rect x="127.742" y="242.383" width="98.516" height="55.492"/><rect x="17.742" y="242.383" width="98.516" height="55.492"/></g></g><text transform="translate(20.947 129.576)" fill="#fff" font-family="'Palatino-Bold'" font-size="133.699">P</text></svg>