<svg xmlns="http://www.w3.org/2000/svg" width="206.171" height="273.999"><g fill="#D3D3D3"><path d="M5.999 0h134.983c-.037 15.448-.115 30.897-.095 46.345.01 7.584 4.13 11.61 11.695 11.655 13.951.082 27.902.132 41.852.258 1.7.015 3.775-.75 4.811 1.525-.072 24.635-.186 49.27-.208 73.905-.036 40.286.006 80.572-.026 120.858-.007 8.992-3.304 12.482-11.717 12.483-59.763.005-119.527-.016-179.29-.029-3.066-2.282-5.961-4.733-8.006-8.032.002-84.323.002-168.646.002-252.969 1.867-2.133 3.262-4.737 5.999-5.999zM44.732 62.109c.761-2.411-1.817-6.465 3.753-6.168 5.6.298 8.625 2.45 8.524 6.828-.093 4.044-2.848 5.892-7.904 6.287-6.526.509-3.513-4.284-4.373-6.947z"/></g><path fill="#6D6D6D" d="M199.246 59.783c5.347 3.739 6.957 8.679 6.925 15.315-.29 60.948-.19 121.898-.239 182.848-.012 15.078-.902 16.034-15.706 16.04-56.786.024-113.572-.069-170.358.013-5.593.008-9.788-1.473-11.862-6.999 59.764.013 119.527.035 179.29.03 8.412-.001 11.71-3.491 11.717-12.483.031-40.286-.01-80.572.026-120.858.021-24.636.135-49.271.207-73.906z"/><g fill="#fff"><path d="M18.543 56.244h19.451v5.05h-13.301v9.301h12.401v5.05h-12.401v14.301h-6.15v-33.702zM50.142 56.244v33.702h-6.15v-33.702h6.15zM57.192 56.244h6.15v28.552h13.851v5.15h-20.001v-33.702zM100.692 74.995h-12.7v9.9h14.201v5.05h-20.352v-33.701h19.602v5.05h-13.452v8.701h12.7v5z"/></g><line stroke="#fff" stroke-width="10" stroke-miterlimit="10" x1="17.509" y1="133.515" x2="178.19" y2="133.515" fill="none"/><line stroke="#fff" stroke-width="10" stroke-miterlimit="10" x1="17.509" y1="163.515" x2="178.19" y2="163.515" fill="none"/><line stroke="#fff" stroke-width="10" stroke-miterlimit="10" x1="17.509" y1="193.515" x2="178.19" y2="193.515" fill="none"/><line stroke="#fff" stroke-width="10" stroke-miterlimit="10" x1="17.509" y1="223.515" x2="178.19" y2="223.515" fill="none"/></svg>