<svg xmlns="http://www.w3.org/2000/svg" height="263.44" viewBox="0 0 262.619 263.443" enable-background="new 0 0 262.619 263.443"><path fill="#2a9ad6" d="M241.92 0h-229.23c-3.59 0-6.826 1.496-9.135 3.892-2.201 2.283-3.561 5.382-3.561 8.804v141.6c2.314-3.313 4.651-6.61 6.938-9.942 14.454-21.06 37.677-26.82 58.885-14.59 22.635 13.05 31.502 39.36 20.04 61.727-10.956 21.378-22.725 42.34-34.15 63.48h10.65c8.756-15.861 17.09-31.979 26.417-47.49 10.235-17.01 17.457-34.18 8.283-55.11 6.167 2.195 10.671 4.377 15.424 5.381 13.6 2.873 24.549-4.496 26.03-17.04 1.592-13.521-6.851-23.14-21.317-23.436-16.844-.342-33.701-.074-50.552-.095-17.459-.021-23.86-6.506-23.875-24.14-.005-6.717-.001-13.432-.001-22.12-5.845 5.588-10.34 9.885-15.64 14.951 5.934-27.17 35.815-47.2 60.778-41.937 43.33 9.133 86.67 18.228 129.99 27.4 2.345.495 4.57 1.546 6.584 4.266-3.047.149-6.092.429-9.139.431-44.642.028-89.28.018-133.92.021-14.369.001-14.767.46-13.342 16.647h28.723c8.869 0 17.739.052 26.607-.01 17.349-.118 30.09 7.827 38.24 22.761 7.858 14.401 9.388 28.909-.641 43.43-6.03 8.734-11.275 18.03-16.589 27.24-5.095 8.829-10.282 17.325-21.02 20.357-1.455.411-2.834 2.12-3.66 3.565-8.542 14.939-16.967 29.947-25.423 44.937h147.61c3.421 0 6.521-1.36 8.804-3.561 2.396-2.31 3.893-5.545 3.893-9.136v-229.58c0-7.01-5.684-12.696-12.696-12.696"/></svg>