<svg xmlns="http://www.w3.org/2000/svg" width="262.619" height="263.443"><path fill="#fff" d="M241.923 0h-229.227c-3.59 0-6.826 1.496-9.135 3.892-2.201 2.283-3.561 5.382-3.561 8.804v141.604c2.314-3.313 4.651-6.61 6.938-9.942 14.454-21.062 37.677-26.82 58.885-14.59 22.635 13.054 31.502 39.361 20.04 61.727-10.956 21.378-22.725 42.34-34.146 63.479h10.65c8.756-15.861 17.085-31.979 26.417-47.493 10.235-17.015 17.457-34.177 8.283-55.113 6.167 2.195 10.671 4.377 15.424 5.381 13.6 2.873 24.549-4.496 26.025-17.044 1.592-13.521-6.851-23.142-21.317-23.436-16.844-.342-33.701-.074-50.552-.095-17.459-.021-23.86-6.506-23.875-24.142-.005-6.717-.001-13.432-.001-22.123-5.845 5.588-10.34 9.885-15.64 14.951 5.934-27.169 35.815-47.197 60.778-41.937 43.331 9.133 86.669 18.228 129.99 27.4 2.345.495 4.57 1.546 6.584 4.266-3.047.149-6.092.429-9.139.431-44.642.028-89.283.018-133.924.021-14.369.001-14.767.46-13.342 16.647h28.723c8.869 0 17.739.052 26.607-.01 17.349-.118 30.086 7.827 38.236 22.761 7.858 14.401 9.388 28.909-.641 43.432-6.031 8.734-11.275 18.032-16.589 27.242-5.095 8.829-10.282 17.325-21.018 20.357-1.455.411-2.834 2.12-3.66 3.565-8.542 14.939-16.967 29.947-25.423 44.937h147.609c3.421 0 6.521-1.36 8.804-3.561 2.396-2.31 3.893-5.545 3.893-9.136v-229.579c0-7.012-5.684-12.696-12.696-12.696z"/></svg>