<svg xmlns="http://www.w3.org/2000/svg" viewBox="348 0 256 253" enable-background="new 348 0 256 253"><path fill="#2A9AD6" d="M590.6 0h-229.2c-3.6 0-6.8 1.5-9.1 3.9-2.2 2.3-3.6 5.4-3.6 8.8v141.6c2.3-3.3 4.7-6.6 6.9-9.9 14.5-21.1 37.7-26.8 58.9-14.6 22.6 13 31.5 39.4 20 61.7-11 21.4-22.7 42.3-34.1 63.5h10.6c8.8-15.9 17.1-32 26.4-47.5 10.2-17 17.5-34.2 8.3-55.1 6.2 2.2 10.7 4.4 15.4 5.4 13.6 2.9 24.5-4.5 26-17 1.6-13.5-6.9-23.1-21.3-23.4-16.8-.3-33.7-.1-50.6-.1-17.5 0-23.9-6.5-23.9-24.1v-22.1c-5.8 5.6-10.3 9.9-15.6 15 5.9-27.2 35.8-47.2 60.8-41.9 43.3 9.1 86.7 18.2 130 27.4 2.3.5 4.6 1.5 6.6 4.3-3 .1-6.1.4-9.1.4h-133.9c-14.4 0-14.8.5-13.3 16.6h28.7c8.9 0 17.7.1 26.6 0 17.3-.1 30.1 7.8 38.2 22.8 7.9 14.4 9.4 28.9-.6 43.4-6 8.7-11.3 18-16.6 27.2-5.1 8.8-10.3 17.3-21 20.4-1.5.4-2.8 2.1-3.7 3.6-8.5 14.9-17 29.9-25.4 44.9h147.6c3.4 0 6.5-1.4 8.8-3.6 2.4-2.3 3.9-5.5 3.9-9.1v-229.8c0-7-5.7-12.7-12.7-12.7"/></svg>