<?xml version="1.0" encoding="utf-8"?>
<!-- Generator: Adobe Illustrator 17.0.2, SVG Export Plug-In . SVG Version: 6.00 Build 0)  -->
<!DOCTYPE svg PUBLIC "-//W3C//DTD SVG 1.1//EN" "http://www.w3.org/Graphics/SVG/1.1/DTD/svg11.dtd">
<svg version="1.1" id="Calque_1" xmlns="http://www.w3.org/2000/svg" xmlns:xlink="http://www.w3.org/1999/xlink" x="0px" y="0px"
	 width="831.81px" height="263.443px" viewBox="0 0 831.81 263.443" enable-background="new 0 0 831.81 263.443"
	 xml:space="preserve">
<g>
	<path fill="#FFFFFF" d="M241.923,0H12.696C9.106,0,5.87,1.496,3.561,3.892C1.36,6.175,0,9.274,0,12.696V154.3
		c2.314-3.313,4.651-6.61,6.938-9.942c14.454-21.062,37.677-26.82,58.885-14.59c22.635,13.054,31.502,39.361,20.04,61.727
		c-10.956,21.378-22.725,42.34-34.146,63.479h10.65c8.756-15.861,17.085-31.979,26.417-47.493
		c10.235-17.015,17.457-34.177,8.283-55.113c6.167,2.195,10.671,4.377,15.424,5.381c13.6,2.873,24.549-4.496,26.025-17.044
		c1.592-13.521-6.851-23.142-21.317-23.436c-16.844-0.342-33.701-0.074-50.552-0.095c-17.459-0.021-23.86-6.506-23.875-24.142
		c-0.005-6.717-0.001-13.432-0.001-22.123c-5.845,5.588-10.34,9.885-15.64,14.951c5.934-27.169,35.815-47.197,60.778-41.937
		c43.331,9.133,86.669,18.228,129.99,27.4c2.345,0.495,4.57,1.546,6.584,4.266c-3.047,0.149-6.092,0.429-9.139,0.431
		c-44.642,0.028-89.283,0.018-133.924,0.021c-14.369,0.001-14.767,0.46-13.342,16.647c9.458,0,19.091,0,28.723,0
		c8.869,0,17.739,0.052,26.607-0.01c17.349-0.118,30.086,7.827,38.236,22.761c7.858,14.401,9.388,28.909-0.641,43.432
		c-6.031,8.734-11.275,18.032-16.589,27.242c-5.095,8.829-10.282,17.325-21.018,20.357c-1.455,0.411-2.834,2.12-3.66,3.565
		c-8.542,14.939-16.967,29.947-25.423,44.937h147.609c3.421,0,6.521-1.36,8.804-3.561c2.396-2.31,3.893-5.545,3.893-9.136V12.696
		C254.619,5.684,248.935,0,241.923,0z"/>
</g>
<text transform="matrix(1 0 0 1 297.7654 188.2858)"><tspan x="0" y="0" fill="#FFFFFF" font-family="'MyriadPro-Regular'" font-size="130">any</tspan><tspan x="196.037" y="0" fill="#FFFFFF" font-family="'MyriadPro-Bold'" font-size="130">Fetc</tspan><tspan x="439.523" y="0" fill="#FFFFFF" font-family="'MyriadPro-Bold'" font-size="130" letter-spacing="-2">h</tspan></text>
</svg>
