<svg xmlns="http://www.w3.org/2000/svg" height="263.44" viewBox="0 0 831.81 263.443" enable-background="new 0 0 831.81 263.443"><g fill="#fff"><path d="m241.92 0h-229.23c-3.59 0-6.826 1.496-9.135 3.892-2.201 2.283-3.561 5.382-3.561 8.804v141.6c2.314-3.313 4.651-6.61 6.938-9.942 14.454-21.06 37.677-26.82 58.885-14.59 22.635 13.05 31.502 39.36 20.04 61.727-10.956 21.378-22.725 42.34-34.15 63.48h10.65c8.756-15.861 17.09-31.979 26.417-47.49 10.235-17.01 17.457-34.18 8.283-55.11 6.167 2.195 10.671 4.377 15.424 5.381 13.6 2.873 24.549-4.496 26.03-17.04 1.592-13.521-6.851-23.14-21.317-23.436-16.844-.342-33.701-.074-50.552-.095-17.459-.021-23.86-6.506-23.875-24.14-.005-6.717-.001-13.432-.001-22.12-5.845 5.588-10.34 9.885-15.64 14.951 5.934-27.17 35.815-47.2 60.778-41.937 43.33 9.133 86.67 18.228 129.99 27.4 2.345.495 4.57 1.546 6.584 4.266-3.047.149-6.092.429-9.139.431-44.642.028-89.28.018-133.92.021-14.369.001-14.767.46-13.342 16.647 9.458 0 19.09 0 28.723 0 8.869 0 17.739.052 26.607-.01 17.349-.118 30.09 7.827 38.24 22.761 7.858 14.401 9.388 28.909-.641 43.43-6.03 8.734-11.275 18.03-16.589 27.24-5.095 8.829-10.282 17.325-21.02 20.357-1.455.411-2.834 2.12-3.66 3.565-8.542 14.939-16.967 29.947-25.423 44.937h147.61c3.421 0 6.521-1.36 8.804-3.561 2.396-2.31 3.893-5.545 3.893-9.136v-229.58c0-7.01-5.684-12.696-12.696-12.696"/><g enable-background="new    "><path d="m342.1 188.29l-.91-7.931h-.39c-3.51 4.94-10.271 9.36-19.241 9.36-12.741 0-19.241-8.97-19.241-18.07 0-15.211 13.521-23.531 37.832-23.4v-1.301c0-5.2-1.43-14.561-14.301-14.561-5.85 0-11.96 1.82-16.381 4.681l-2.6-7.54c5.2-3.381 12.74-5.591 20.67-5.591 19.241 0 23.921 13.13 23.921 25.741v23.531c0 5.46.26 10.79 1.04 15.08h-10.399m-1.69-32.11c-12.48-.26-26.651 1.95-26.651 14.171 0 7.41 4.94 10.92 10.791 10.92 8.19 0 13.39-5.2 15.21-10.53.39-1.17.65-2.47.65-3.64v-10.921"/><path d="m369.92 142.39c0-6.5-.13-11.831-.52-17.03h10.141l.65 10.4h.26c3.12-5.98 10.4-11.831 20.801-11.831 8.71 0 22.23 5.2 22.23 26.781v37.571h-11.441v-36.27c0-10.141-3.77-18.591-14.561-18.591-7.54 0-13.39 5.33-15.34 11.7-.52 1.431-.78 3.381-.78 5.331v37.831h-11.44v-45.891z"/><path d="m444.54 125.36l13.781 37.18c1.43 4.16 2.989 9.101 4.03 12.871h.261c1.17-3.771 2.47-8.581 4.03-13.13l12.48-36.921h12.09l-17.16 44.852c-8.19 21.58-13.781 32.631-21.581 39.39-5.59 4.94-11.181 6.891-14.04 7.411l-2.859-9.621c2.859-.909 6.63-2.729 10.01-5.59 3.12-2.47 7.02-6.891 9.621-12.74.52-1.17.909-2.08.909-2.73 0-.649-.26-1.56-.779-2.99l-23.271-57.981h12.48z"/><path d="m502.38 100.66h53.56v16.25h-33.671v20.02h31.461v16.12h-31.461v35.23h-19.892v-87.62"/><path d="m582.07 162.81c.65 8.189 8.71 12.09 17.94 12.09 6.761 0 12.221-.91 17.551-2.6l2.601 13.391c-6.501 2.6-14.431 3.899-23.01 3.899-21.581 0-33.932-12.48-33.932-32.371 0-16.12 10.01-33.931 32.11-33.931 20.541 0 28.341 15.99 28.341 31.721 0 3.38-.39 6.37-.649 7.801h-40.952m23.27-13.521c0-4.81-2.08-12.87-11.18-12.87-8.32 0-11.701 7.54-12.221 12.87h23.401"/><path d="m657.6 106.51v18.201h14.171v14.561h-14.171v23.01c0 7.67 1.82 11.181 7.801 11.181 2.47 0 4.42-.26 5.85-.521l.131 14.951c-2.601 1.04-7.281 1.689-12.871 1.689-6.37 0-11.7-2.21-14.82-5.46-3.641-3.771-5.46-9.881-5.46-18.851v-26h-8.45v-14.561h8.45v-13.78l19.369-4.42"/><path d="m730.28 186.72c-3.511 1.561-10.141 2.86-17.682 2.86-20.54 0-33.671-12.48-33.671-32.501 0-18.591 12.741-33.801 36.401-33.801 5.2 0 10.92.909 15.08 2.47l-3.119 14.69c-2.34-1.04-5.851-1.95-11.05-1.95-10.4 0-17.16 7.41-17.03 17.811 0 11.7 7.801 17.811 17.422 17.811 4.68 0 8.32-.779 11.31-1.95l2.341 14.56"/></g></g><g enable-background="new    "><path fill="#fff" d="m745.22 95.98h19.761v36.27h.261c2.08-2.729 4.68-4.81 7.8-6.5 2.86-1.561 6.631-2.47 10.271-2.47 12.61 0 22.23 8.71 22.23 27.82v37.18h-19.762v-34.972c0-8.32-2.859-14.04-10.27-14.04-5.2 0-8.451 3.38-9.881 6.891-.52 1.3-.65 2.989-.65 4.42v37.701h-19.761v-92.3"/></g></svg>