<?xml version="1.0" encoding="utf-8"?>
<!-- Generator: Adobe Illustrator 17.1.0, SVG Export Plug-In . SVG Version: 6.00 Build 0)  -->
<!DOCTYPE svg PUBLIC "-//W3C//DTD SVG 1.1//EN" "http://www.w3.org/Graphics/SVG/1.1/DTD/svg11.dtd">
<svg version="1.1" id="Calque_1" xmlns="http://www.w3.org/2000/svg" xmlns:xlink="http://www.w3.org/1999/xlink" x="0px" y="0px"
	 viewBox="348 0 256 253" enable-background="new 348 0 256 253" xml:space="preserve">
<path fill="#2A9AD6" d="M590.6,0H361.4c-3.6,0-6.8,1.5-9.1,3.9c-2.2,2.3-3.6,5.4-3.6,8.8v141.6c2.3-3.3,4.7-6.6,6.9-9.9
	c14.5-21.1,37.7-26.8,58.9-14.6c22.6,13,31.5,39.4,20,61.7c-11,21.4-22.7,42.3-34.1,63.5H411c8.8-15.9,17.1-32,26.4-47.5
	c10.2-17,17.5-34.2,8.3-55.1c6.2,2.2,10.7,4.4,15.4,5.4c13.6,2.9,24.5-4.5,26-17c1.6-13.5-6.9-23.1-21.3-23.4
	c-16.8-0.3-33.7-0.1-50.6-0.1c-17.5,0-23.9-6.5-23.9-24.1c0-6.7,0-13.4,0-22.1c-5.8,5.6-10.3,9.9-15.6,15
	c5.9-27.2,35.8-47.2,60.8-41.9c43.3,9.1,86.7,18.2,130,27.4c2.3,0.5,4.6,1.5,6.6,4.3c-3,0.1-6.1,0.4-9.1,0.4c-44.6,0-89.3,0-133.9,0
	c-14.4,0-14.8,0.5-13.3,16.6c9.5,0,19.1,0,28.7,0c8.9,0,17.7,0.1,26.6,0c17.3-0.1,30.1,7.8,38.2,22.8c7.9,14.4,9.4,28.9-0.6,43.4
	c-6,8.7-11.3,18-16.6,27.2c-5.1,8.8-10.3,17.3-21,20.4c-1.5,0.4-2.8,2.1-3.7,3.6c-8.5,14.9-17,29.9-25.4,44.9h147.6
	c3.4,0,6.5-1.4,8.8-3.6c2.4-2.3,3.9-5.5,3.9-9.1V12.7C603.3,5.7,597.6,0,590.6,0"/>
</svg>
