<?xml version="1.0" encoding="utf-8"?>
<!-- Generator: Adobe Illustrator 17.0.2, SVG Export Plug-In . SVG Version: 6.00 Build 0)  -->
<!DOCTYPE svg PUBLIC "-//W3C//DTD SVG 1.1//EN" "http://www.w3.org/Graphics/SVG/1.1/DTD/svg11.dtd">
<svg version="1.1" id="Calque_1" xmlns="http://www.w3.org/2000/svg" xmlns:xlink="http://www.w3.org/1999/xlink" x="0px" y="0px"
	 width="831.81px" height="263.443px" viewBox="0 0 831.81 263.443" enable-background="new 0 0 831.81 263.443"
	 xml:space="preserve">
<g>
	<path fill="#FFFFFF" d="M241.923,0H12.696C9.106,0,5.87,1.496,3.561,3.892C1.36,6.175,0,9.274,0,12.696V154.3
		c2.314-3.313,4.651-6.61,6.938-9.942c14.454-21.062,37.677-26.82,58.885-14.59c22.635,13.054,31.502,39.361,20.04,61.727
		c-10.956,21.378-22.725,42.34-34.146,63.479h10.65c8.756-15.861,17.085-31.979,26.417-47.493
		c10.235-17.015,17.457-34.177,8.283-55.113c6.167,2.195,10.671,4.377,15.424,5.381c13.6,2.873,24.549-4.496,26.025-17.044
		c1.592-13.521-6.851-23.142-21.317-23.436c-16.844-0.342-33.701-0.074-50.552-0.095c-17.459-0.021-23.86-6.506-23.875-24.142
		c-0.005-6.717-0.001-13.432-0.001-22.123c-5.845,5.588-10.34,9.885-15.64,14.951c5.934-27.169,35.815-47.197,60.778-41.937
		c43.331,9.133,86.669,18.228,129.99,27.4c2.345,0.495,4.57,1.546,6.584,4.266c-3.047,0.149-6.092,0.429-9.139,0.431
		c-44.642,0.028-89.283,0.018-133.924,0.021c-14.369,0.001-14.767,0.46-13.342,16.647c9.458,0,19.091,0,28.723,0
		c8.869,0,17.739,0.052,26.607-0.01c17.349-0.118,30.086,7.827,38.236,22.761c7.858,14.401,9.388,28.909-0.641,43.432
		c-6.031,8.734-11.275,18.032-16.589,27.242c-5.095,8.829-10.282,17.325-21.018,20.357c-1.455,0.411-2.834,2.12-3.66,3.565
		c-8.542,14.939-16.967,29.947-25.423,44.937h147.609c3.421,0,6.521-1.36,8.804-3.561c2.396-2.31,3.893-5.545,3.893-9.136V12.696
		C254.619,5.684,248.935,0,241.923,0z"/>
</g>
<g enable-background="new    ">
	<path fill="#FFFFFF" d="M342.097,188.286l-0.91-7.931h-0.39c-3.51,4.94-10.271,9.36-19.241,9.36
		c-12.741,0-19.241-8.97-19.241-18.07c0-15.211,13.521-23.531,37.832-23.4v-1.301c0-5.2-1.43-14.561-14.301-14.561
		c-5.85,0-11.96,1.82-16.381,4.681l-2.6-7.54c5.2-3.381,12.74-5.591,20.67-5.591c19.241,0,23.921,13.131,23.921,25.741v23.531
		c0,5.46,0.26,10.79,1.04,15.08H342.097z M340.407,156.175c-12.48-0.26-26.651,1.95-26.651,14.171c0,7.41,4.94,10.92,10.791,10.92
		c8.19,0,13.39-5.2,15.21-10.53c0.39-1.17,0.65-2.47,0.65-3.64V156.175z"/>
	<path fill="#FFFFFF" d="M369.915,142.394c0-6.5-0.13-11.831-0.52-17.03h10.141l0.65,10.4h0.26c3.12-5.98,10.4-11.831,20.801-11.831
		c8.71,0,22.231,5.2,22.231,26.781v37.571h-11.441v-36.271c0-10.141-3.77-18.591-14.561-18.591c-7.54,0-13.39,5.33-15.34,11.7
		c-0.52,1.431-0.78,3.381-0.78,5.331v37.831h-11.44V142.394z"/>
	<path fill="#FFFFFF" d="M444.536,125.364l13.781,37.181c1.43,4.16,2.989,9.101,4.029,12.871h0.261
		c1.17-3.771,2.47-8.581,4.03-13.131l12.48-36.921h12.09l-17.16,44.852c-8.19,21.58-13.781,32.631-21.581,39.391
		c-5.59,4.94-11.181,6.891-14.041,7.411l-2.859-9.621c2.859-0.909,6.63-2.729,10.01-5.59c3.12-2.47,7.021-6.891,9.621-12.74
		c0.52-1.17,0.909-2.08,0.909-2.73c0-0.649-0.26-1.56-0.779-2.99l-23.271-57.981H444.536z"/>
</g>
<g enable-background="new    ">
	<path fill="#FFFFFF" d="M502.383,100.663h53.563v16.25h-33.671v20.021h31.461v16.12h-31.461v35.231h-19.892V100.663z"/>
	<path fill="#FFFFFF" d="M582.074,162.805c0.65,8.189,8.71,12.09,17.94,12.09c6.761,0,12.221-0.91,17.551-2.6l2.601,13.391
		c-6.501,2.6-14.431,3.899-23.011,3.899c-21.581,0-33.932-12.48-33.932-32.371c0-16.12,10.011-33.931,32.111-33.931
		c20.541,0,28.341,15.99,28.341,31.721c0,3.38-0.39,6.37-0.649,7.801H582.074z M605.344,149.284c0-4.81-2.08-12.87-11.18-12.87
		c-8.32,0-11.701,7.54-12.221,12.87H605.344z"/>
	<path fill="#FFFFFF" d="M657.604,106.513v18.201h14.171v14.561h-14.171v23.011c0,7.67,1.82,11.181,7.801,11.181
		c2.47,0,4.42-0.26,5.85-0.521l0.131,14.951c-2.601,1.04-7.281,1.689-12.871,1.689c-6.37,0-11.7-2.21-14.82-5.46
		c-3.641-3.771-5.46-9.881-5.46-18.851v-26.001h-8.45v-14.561h8.45v-13.78L657.604,106.513z"/>
	<path fill="#FFFFFF" d="M730.276,186.725c-3.511,1.561-10.141,2.86-17.682,2.86c-20.54,0-33.671-12.48-33.671-32.501
		c0-18.591,12.741-33.801,36.401-33.801c5.2,0,10.92,0.909,15.08,2.47l-3.119,14.69c-2.34-1.04-5.851-1.95-11.051-1.95
		c-10.4,0-17.16,7.41-17.031,17.811c0,11.7,7.801,17.811,17.422,17.811c4.68,0,8.32-0.779,11.31-1.95L730.276,186.725z"/>
</g>
<g enable-background="new    ">
	<path fill="#FFFFFF" d="M745.219,95.982h19.761v36.271h0.261c2.08-2.729,4.68-4.81,7.8-6.5c2.86-1.561,6.631-2.47,10.271-2.47
		c12.61,0,22.23,8.71,22.23,27.82v37.182H785.78v-34.972c0-8.32-2.859-14.04-10.27-14.04c-5.2,0-8.451,3.38-9.881,6.891
		c-0.52,1.3-0.65,2.989-0.65,4.42v37.701h-19.761V95.982z"/>
</g>
</svg>
