<?xml version="1.0" encoding="utf-8"?>
<!-- Generator: Adobe Illustrator 17.1.0, SVG Export Plug-In . SVG Version: 6.00 Build 0)  -->
<!DOCTYPE svg PUBLIC "-//W3C//DTD SVG 1.1//EN" "http://www.w3.org/Graphics/SVG/1.1/DTD/svg11.dtd">
<svg version="1.1" id="Calque_1" xmlns="http://www.w3.org/2000/svg" xmlns:xlink="http://www.w3.org/1999/xlink" x="0px" y="0px"
	 viewBox="63 0 807 255" enable-background="new 63 0 807 255" xml:space="preserve">
<g>
	<path fill="#FFFFFF" d="M306,0H76.8c-3.6,0-6.8,1.5-9.1,3.9c-2.2,2.3-3.6,5.4-3.6,8.8v141.6c2.3-3.3,4.7-6.6,6.9-9.9
		c14.5-21.1,37.7-26.8,58.9-14.6c22.6,13,31.5,39.4,20,61.7c-11,21.4-22.7,42.3-34.1,63.5h10.6c8.8-15.9,17.1-32,26.4-47.5
		c10.2-17,17.5-34.2,8.3-55.1c6.2,2.2,10.7,4.4,15.4,5.4c13.6,2.9,24.5-4.5,26-17c1.6-13.5-6.9-23.1-21.3-23.4
		c-16.8-0.3-33.7-0.1-50.6-0.1c-17.5,0-23.9-6.5-23.9-24.1c0-6.7,0-13.4,0-22.1c-5.8,5.6-10.3,9.9-15.6,15
		C97.2,58.7,127,38.7,152,43.9c43.3,9.1,86.7,18.2,130,27.4c2.3,0.5,4.6,1.5,6.6,4.3c-3,0.1-6.1,0.4-9.1,0.4c-44.6,0-89.3,0-133.9,0
		c-14.4,0-14.8,0.5-13.3,16.6c9.5,0,19.1,0,28.7,0c8.9,0,17.7,0.1,26.6,0c17.3-0.1,30.1,7.8,38.2,22.8c7.9,14.4,9.4,28.9-0.6,43.4
		c-6,8.7-11.3,18-16.6,27.2c-5.1,8.8-10.3,17.3-21,20.4c-1.5,0.4-2.8,2.1-3.7,3.6c-8.5,14.9-17,29.9-25.4,44.9H306
		c3.4,0,6.5-1.4,8.8-3.6c2.4-2.3,3.9-5.5,3.9-9.1V12.7C318.7,5.7,313,0,306,0"/>
	<g enable-background="new    ">
		<path fill="#FFFFFF" d="M406.2,188.3l-0.9-7.9h-0.4c-3.5,4.9-10.3,9.4-19.2,9.4c-12.7,0-19.2-9-19.2-18.1
			c0-15.2,13.5-23.5,37.8-23.4v-1.3c0-5.2-1.4-14.6-14.3-14.6c-5.8,0-12,1.8-16.4,4.7l-2.6-7.5c5.2-3.4,12.7-5.6,20.7-5.6
			c19.2,0,23.9,13.1,23.9,25.7v23.5c0,5.5,0.3,10.8,1,15.1L406.2,188.3 M404.5,156.2c-12.5-0.3-26.7,1.9-26.7,14.2
			c0,7.4,4.9,10.9,10.8,10.9c8.2,0,13.4-5.2,15.2-10.5c0.4-1.2,0.6-2.5,0.6-3.6L404.5,156.2"/>
		<path fill="#FFFFFF" d="M434,142.4c0-6.5-0.1-11.8-0.5-17h10.1l0.6,10.4h0.3c3.1-6,10.4-11.8,20.8-11.8c8.7,0,22.2,5.2,22.2,26.8
			v37.6h-11.4V152c0-10.1-3.8-18.6-14.6-18.6c-7.5,0-13.4,5.3-15.3,11.7c-0.5,1.4-0.8,3.4-0.8,5.3v37.8H434V142.4L434,142.4z"/>
		<path fill="#FFFFFF" d="M508.6,125.4l13.8,37.2c1.4,4.2,3,9.1,4,12.9h0.3c1.2-3.8,2.5-8.6,4-13.1l12.5-36.9h12.1l-17.2,44.9
			c-8.2,21.6-13.8,32.6-21.6,39.4c-5.6,4.9-11.2,6.9-14,7.4l-2.9-9.6c2.9-0.9,6.6-2.7,10-5.6c3.1-2.5,7-6.9,9.6-12.7
			c0.5-1.2,0.9-2.1,0.9-2.7c0-0.6-0.3-1.6-0.8-3l-23.3-58L508.6,125.4L508.6,125.4z"/>
		<path fill="#FFFFFF" d="M566.5,100.7H620v16.2h-33.7v20h31.5V153h-31.5v35.2h-19.9L566.5,100.7"/>
		<path fill="#FFFFFF" d="M646.2,162.8c0.7,8.2,8.7,12.1,17.9,12.1c6.8,0,12.2-0.9,17.6-2.6l2.6,13.4c-6.5,2.6-14.4,3.9-23,3.9
			c-21.6,0-33.9-12.5-33.9-32.4c0-16.1,10-33.9,32.1-33.9c20.5,0,28.3,16,28.3,31.7c0,3.4-0.4,6.4-0.6,7.8H646.2 M669.4,149.3
			c0-4.8-2.1-12.9-11.2-12.9c-8.3,0-11.7,7.5-12.2,12.9H669.4"/>
		<path fill="#FFFFFF" d="M721.7,106.5v18.2h14.2v14.6h-14.2v23c0,7.7,1.8,11.2,7.8,11.2c2.5,0,4.4-0.3,5.8-0.5l0.1,15
			c-2.6,1-7.3,1.7-12.9,1.7c-6.4,0-11.7-2.2-14.8-5.5c-3.6-3.8-5.5-9.9-5.5-18.9v-26h-8.4v-14.6h8.4v-13.8L721.7,106.5"/>
		<path fill="#FFFFFF" d="M794.4,186.7c-3.5,1.6-10.1,2.9-17.7,2.9c-20.5,0-33.7-12.5-33.7-32.5c0-18.6,12.7-33.8,36.4-33.8
			c5.2,0,10.9,0.9,15.1,2.5l-3.1,14.7c-2.3-1-5.9-1.9-11-1.9c-10.4,0-17.2,7.4-17,17.8c0,11.7,7.8,17.8,17.4,17.8
			c4.7,0,8.3-0.8,11.3-1.9L794.4,186.7"/>
	</g>
</g>
<g enable-background="new    ">
	<path fill="#FFFFFF" d="M809.3,96h19.8v36.3h0.3c2.1-2.7,4.7-4.8,7.8-6.5c2.9-1.6,6.6-2.5,10.3-2.5c12.6,0,22.2,8.7,22.2,27.8v37.2
		h-19.8v-35c0-8.3-2.9-14-10.3-14c-5.2,0-8.5,3.4-9.9,6.9c-0.5,1.3-0.6,3-0.6,4.4v37.7h-19.8L809.3,96"/>
</g>
</svg>
