<?xml version="1.0" encoding="utf-8"?>
<!-- Generator: Adobe Illustrator 17.0.0, SVG Export Plug-In . SVG Version: 6.00 Build 0)  -->
<!DOCTYPE svg PUBLIC "-//W3C//DTD SVG 1.1//EN" "http://www.w3.org/Graphics/SVG/1.1/DTD/svg11.dtd">
<svg version="1.1" id="Calque_1" xmlns="http://www.w3.org/2000/svg" xmlns:xlink="http://www.w3.org/1999/xlink" x="0px" y="0px"
	 width="262.619px" height="263.444px" viewBox="0 0 262.619 263.444" enable-background="new 0 0 262.619 263.444"
	 xml:space="preserve">
<g>
	<path fill="#EAEAEA" d="M262.619,251.444c0,6.627-5.373,12-12,12H20c-6.627,0-12-5.373-12-12V20.473c0-6.627,5.373-12,12-12
		h230.619c6.627,0,12,5.373,12,12V251.444z"/>
	<path fill="#FFFFFF" d="M94.315,254.971c8.456-14.99,16.881-29.997,25.423-44.937c0.826-1.445,2.206-3.154,3.66-3.565
		c10.737-3.032,15.925-11.528,21.018-20.357c5.313-9.209,10.556-18.507,16.589-27.243c10.028-14.522,8.499-29.029,0.64-43.431
		c-8.15-14.934-20.887-22.879-38.236-22.761c-8.869,0.06-17.738,0.01-26.607,0.01c-9.633,0-19.266,0-28.723,0
		C66.654,76.5,67.052,76.041,81.421,76.04c44.641-0.004,89.282,0.007,133.923-0.021c3.047-0.002,6.093-0.281,9.14-0.431
		c-2.014-2.72-4.241-3.77-6.584-4.266c-43.322-9.171-86.661-18.267-129.991-27.4C62.945,38.661,33.064,58.689,27.13,85.859
		c5.3-5.067,9.795-9.364,15.64-14.952c0,8.692-0.005,15.408,0.001,22.123c0.014,17.636,6.416,24.121,23.875,24.142
		c16.851,0.021,33.708-0.247,50.552,0.095c14.467,0.294,22.909,9.914,21.318,23.435c-1.477,12.548-12.426,19.918-26.026,17.044
		c-4.752-1.004-9.256-3.186-15.424-5.381c9.174,20.937,1.953,38.099-8.283,55.114c-9.333,15.514-17.661,31.632-26.417,47.493h-10.65
		c11.421-21.14,23.19-42.101,34.146-63.479c11.462-22.365,2.594-48.672-20.04-61.726c-21.208-12.231-44.43-6.472-58.885,14.59
		c-2.287,3.332-4.624,6.629-6.938,9.942V12.696c0-3.421,1.36-6.521,3.561-8.804c-2.396,2.309-3.892,5.545-3.892,9.135v229.58
		c0,7.011,5.685,12.696,12.696,12.696c0,0,236.053-1.496,238.362-3.892c-2.283,2.201-5.382,3.561-8.804,3.561H94.315z"/>
	<path fill="#26AAE0" d="M241.923,0H12.696C9.106,0,5.87,1.496,3.561,3.892C1.36,6.175,0,9.274,0,12.696v141.603
		c2.314-3.313,4.651-6.61,6.938-9.942c14.454-21.062,37.677-26.821,58.885-14.59c22.635,13.054,31.502,39.361,20.04,61.726
		c-10.956,21.378-22.725,42.34-34.146,63.479h10.65c8.756-15.861,17.085-31.979,26.417-47.493
		c10.235-17.015,17.457-34.177,8.283-55.114c6.167,2.196,10.671,4.377,15.424,5.381c13.6,2.873,24.549-4.496,26.026-17.044
		c1.591-13.52-6.851-23.141-21.318-23.435c-16.844-0.342-33.701-0.074-50.552-0.095c-17.459-0.021-23.86-6.506-23.875-24.142
		c-0.005-6.716-0.001-13.431-0.001-22.123c-5.845,5.588-10.34,9.885-15.64,14.952c5.934-27.169,35.815-47.198,60.778-41.937
		c43.331,9.133,86.669,18.228,129.991,27.4c2.344,0.496,4.57,1.546,6.584,4.266c-3.047,0.15-6.093,0.429-9.14,0.431
		c-44.641,0.028-89.282,0.017-133.923,0.021c-14.369,0.001-14.767,0.46-13.342,16.648c9.458,0,19.091,0,28.723,0
		c8.869,0,17.739,0.051,26.607-0.01c17.349-0.118,30.086,7.827,38.236,22.761c7.859,14.401,9.388,28.909-0.64,43.431
		c-6.032,8.735-11.275,18.033-16.589,27.243c-5.094,8.829-10.282,17.325-21.018,20.357c-1.455,0.411-2.834,2.12-3.66,3.565
		c-8.542,14.94-16.967,29.948-25.423,44.937h147.609c3.421,0,6.521-1.36,8.804-3.561c2.396-2.309,3.892-5.545,3.892-9.135V12.696
		C254.619,5.684,248.935,0,241.923,0z"/>
</g>
</svg>
