<svg xmlns="http://www.w3.org/2000/svg" width="194.53" height="173.26" viewBox="30.287 43.006 194.527 173.257" enable-background="new 30.287 43.006 194.527 173.257"><g fill="#91bccc"><path d="m67.11 215.09c-1.725-2.69-3.553-5.32-5.159-8.08-8.778-15.09-17.422-30.25-26.318-45.27-1.532-2.587-1.352-4.391.098-6.822 8.111-13.595 16.12-27.25 24.07-40.941 9.09-15.63 18.11-31.3 27.12-46.976 2.499-4.345 4.808-8.799 7.364-13.11.632-1.065 1.885-1.762 2.853-2.628.459 1.032.831 2.114 1.391 3.089 8.902 15.488 17.861 30.943 26.72 46.46 1.532 2.682 2.663 5.593 3.979 8.398-.405.476-.896.902-1.202 1.434-6.86 11.926-13.737 23.843-20.521 35.813-2.247 3.965-4.244 8.07-6.355 12.12-1.101.965-2.558 1.731-3.23 2.935-1.427 2.554-2.373 5.371-3.658 8.01-.812 1.667-1.956 3.17-2.819 4.816-2.634 5.02-5.113 10.129-7.821 15.11-3.489 6.418-6.932 12.879-10.827 19.05-1.508 2.39-1.57 6.362-5.688 6.6"/><path d="m67.11 215.09c4.118-.238 4.18-4.211 5.687-6.599 3.895-6.17 7.338-12.631 10.827-19.05 2.708-4.982 5.187-10.09 7.821-15.11.863-1.646 2.01-3.148 2.819-4.816 1.285-2.64 2.231-5.457 3.658-8.01.673-1.204 2.129-1.971 3.229-2.934 17.633.027 35.27.063 52.902.058 1.357 0 2.714-.292 4.071-.448 1.871.171 3.742.486 5.613.491 20.359.061 40.718.073 61.08.099-3.706 6.559-7.402 13.13-11.122 19.676-6.463 11.381-13 22.722-19.371 34.15-1.472 2.642-3.284 3.666-6.34 3.659-38.941-.085-77.883-.04-116.82-.094-1.35-.003-2.698-.701-4.047-1.075"/><path d="m224.81 158.77c-20.359-.026-40.718-.038-61.08-.099-1.872-.006-3.742-.32-5.614-.489-.047-.37.019-.807-.155-1.104-6.363-10.871-12.699-21.758-19.15-32.576-3.081-5.167-6.385-10.201-9.588-15.295-1.316-2.805-2.447-5.716-3.979-8.398-8.859-15.513-17.817-30.968-26.72-46.46-.56-.974-.931-2.057-1.391-3.089 7.825-.081 15.65-.212 23.475-.232 13.13-.034 26.27-.075 39.4.117 1.53.022 3.715 1.102 4.457 2.362 10.709 18.19 21.23 36.497 31.784 54.779 8.673 15.02 17.35 30.03 25.985 45.07.992 1.725 1.722 3.601 2.574 5.407"/></g><path fill="#0c9f5e" d="m62.836 207.09c-1.725-2.69-3.553-5.32-5.159-8.08-8.778-15.09-17.422-30.25-26.318-45.27-1.532-2.587-1.352-4.391.098-6.822 8.111-13.595 16.12-27.25 24.07-40.941 9.09-15.63 18.1-31.3 27.12-46.976 2.499-4.345 4.808-8.799 7.364-13.11.632-1.065 1.885-1.762 2.853-2.628.459 1.032.831 2.114 1.391 3.089 8.902 15.488 17.861 30.943 26.72 46.46 1.532 2.682 2.663 5.593 3.979 8.398-.405.476-.896.902-1.202 1.434-6.86 11.926-13.737 23.843-20.521 35.813-2.247 3.965-4.244 8.07-6.355 12.12-1.101.965-2.558 1.731-3.23 2.935-1.427 2.554-2.373 5.371-3.658 8.01-.812 1.667-1.956 3.17-2.819 4.816-2.634 5.02-5.113 10.129-7.821 15.11-3.489 6.418-6.932 12.879-10.827 19.05-1.508 2.39-1.57 6.362-5.688 6.6"/><path fill="#3278ee" d="m62.836 207.09c4.118-.238 4.18-4.211 5.687-6.599 3.895-6.17 7.338-12.631 10.827-19.05 2.708-4.982 5.187-10.09 7.821-15.11.863-1.646 2.01-3.148 2.819-4.816 1.285-2.64 2.231-5.457 3.658-8.01.673-1.204 2.129-1.971 3.229-2.934 17.633.027 35.27.063 52.902.058 1.357 0 2.714-.292 4.071-.448 1.871.171 3.742.486 5.613.491 20.359.061 40.718.073 61.08.099-3.706 6.559-7.402 13.13-11.122 19.676-6.463 11.381-13 22.722-19.371 34.15-1.472 2.642-3.284 3.666-6.34 3.659-38.941-.085-77.883-.04-116.82-.094-1.35-.003-2.698-.701-4.047-1.075"/><path fill="#f8c943" d="m220.54 150.77c-20.359-.026-40.718-.038-61.08-.099-1.872-.006-3.742-.32-5.614-.489-.047-.37.019-.807-.155-1.104-6.363-10.871-12.699-21.758-19.15-32.576-3.081-5.167-6.385-10.201-9.588-15.295-1.316-2.805-2.447-5.716-3.979-8.398-8.859-15.513-17.817-30.968-26.72-46.46-.56-.974-.931-2.057-1.391-3.089 7.825-.081 15.65-.212 23.475-.232 13.13-.034 26.27-.075 39.4.117 1.53.022 3.715 1.102 4.457 2.362 10.709 18.19 21.23 36.497 31.784 54.779 8.673 15.02 17.35 30.03 25.985 45.07.992 1.725 1.722 3.601 2.574 5.407"/></svg>