<?xml version="1.0" encoding="utf-8"?>
<!-- Generator: Adobe Illustrator 17.1.0, SVG Export Plug-In . SVG Version: 6.00 Build 0)  -->
<!DOCTYPE svg PUBLIC "-//W3C//DTD SVG 1.1//EN" "http://www.w3.org/Graphics/SVG/1.1/DTD/svg11.dtd">
<svg version="1.1" id="Calque_1" xmlns="http://www.w3.org/2000/svg" xmlns:xlink="http://www.w3.org/1999/xlink" x="0px" y="0px"
	 viewBox="51 75 197 175" enable-background="new 51 75 197 175" xml:space="preserve">
<g>
	<path fill="#91BCCC" d="M90.1,248.1c-1.7-2.7-3.6-5.3-5.2-8.1c-8.8-15.1-17.4-30.3-26.3-45.3c-1.5-2.6-1.4-4.4,0.1-6.8
		c8.1-13.6,16.1-27.3,24.1-40.9c9.1-15.6,18.1-31.3,27.1-47c2.5-4.3,4.8-8.8,7.4-13.1c0.6-1.1,1.9-1.8,2.9-2.6
		c0.5,1,0.8,2.1,1.4,3.1c8.9,15.5,17.9,30.9,26.7,46.5c1.5,2.7,2.7,5.6,4,8.4c-0.4,0.5-0.9,0.9-1.2,1.4
		c-6.9,11.9-13.7,23.8-20.5,35.8c-2.2,4-4.2,8.1-6.4,12.1c-1.1,1-2.6,1.7-3.2,2.9c-1.4,2.6-2.4,5.4-3.7,8c-0.8,1.7-2,3.2-2.8,4.8
		c-2.6,5-5.1,10.1-7.8,15.1c-3.5,6.4-6.9,12.9-10.8,19.1C94.3,243.9,94.2,247.9,90.1,248.1"/>
	<path fill="#91BCCC" d="M90.1,248.1c4.1-0.2,4.2-4.2,5.7-6.6c3.9-6.2,7.3-12.6,10.8-19.1c2.7-5,5.2-10.1,7.8-15.1
		c0.9-1.6,2-3.1,2.8-4.8c1.3-2.6,2.2-5.5,3.7-8c0.7-1.2,2.1-2,3.2-2.9c17.6,0,35.3,0.1,52.9,0.1c1.4,0,2.7-0.3,4.1-0.4
		c1.9,0.2,3.7,0.5,5.6,0.5c20.4,0.1,40.7,0.1,61.1,0.1c-3.7,6.6-7.4,13.1-11.1,19.7c-6.5,11.4-13,22.7-19.4,34.2
		c-1.5,2.6-3.3,3.7-6.3,3.7c-38.9-0.1-77.9,0-116.8-0.1C92.8,249.2,91.5,248.5,90.1,248.1"/>
	<path fill="#91BCCC" d="M247.8,191.8c-20.4,0-40.7,0-61.1-0.1c-1.9,0-3.7-0.3-5.6-0.5c0-0.4,0-0.8-0.2-1.1
		c-6.4-10.9-12.7-21.8-19.2-32.6c-3.1-5.2-6.4-10.2-9.6-15.3c-1.3-2.8-2.4-5.7-4-8.4c-8.9-15.5-17.8-31-26.7-46.5
		c-0.6-1-0.9-2.1-1.4-3.1c7.8-0.1,15.7-0.2,23.5-0.2c13.1,0,26.3-0.1,39.4,0.1c1.5,0,3.7,1.1,4.5,2.4c10.7,18.2,21.2,36.5,31.8,54.8
		c8.7,15,17.4,30,26,45.1C246.2,188.1,247,190,247.8,191.8"/>
</g>
<path fill="#0C9F5E" d="M85.8,240.1c-1.7-2.7-3.6-5.3-5.2-8.1c-8.8-15.1-17.4-30.3-26.3-45.3c-1.5-2.6-1.4-4.4,0.1-6.8
	c8.1-13.6,16.1-27.3,24.1-40.9c9.1-15.6,18.1-31.3,27.1-47c2.5-4.3,4.8-8.8,7.4-13.1c0.6-1.1,1.9-1.8,2.9-2.6c0.5,1,0.8,2.1,1.4,3.1
	c8.9,15.5,17.9,30.9,26.7,46.5c1.5,2.7,2.7,5.6,4,8.4c-0.4,0.5-0.9,0.9-1.2,1.4c-6.9,11.9-13.7,23.8-20.5,35.8
	c-2.2,4-4.2,8.1-6.4,12.1c-1.1,1-2.6,1.7-3.2,2.9c-1.4,2.6-2.4,5.4-3.7,8c-0.8,1.7-2,3.2-2.8,4.8c-2.6,5-5.1,10.1-7.8,15.1
	c-3.5,6.4-6.9,12.9-10.8,19.1C90,235.9,90,239.9,85.8,240.1"/>
<path fill="#3278EE" d="M85.8,240.1c4.1-0.2,4.2-4.2,5.7-6.6c3.9-6.2,7.3-12.6,10.8-19.1c2.7-5,5.2-10.1,7.8-15.1
	c0.9-1.6,2-3.1,2.8-4.8c1.3-2.6,2.2-5.5,3.7-8c0.7-1.2,2.1-2,3.2-2.9c17.6,0,35.3,0.1,52.9,0.1c1.4,0,2.7-0.3,4.1-0.4
	c1.9,0.2,3.7,0.5,5.6,0.5c20.4,0.1,40.7,0.1,61.1,0.1c-3.7,6.6-7.4,13.1-11.1,19.7c-6.5,11.4-13,22.7-19.4,34.2
	c-1.5,2.6-3.3,3.7-6.3,3.7c-38.9-0.1-77.9,0-116.8-0.1C88.5,241.2,87.2,240.5,85.8,240.1"/>
<path fill="#F8C943" d="M243.5,183.8c-20.4,0-40.7,0-61.1-0.1c-1.9,0-3.7-0.3-5.6-0.5c0-0.4,0-0.8-0.2-1.1
	c-6.4-10.9-12.7-21.8-19.2-32.6c-3.1-5.2-6.4-10.2-9.6-15.3c-1.3-2.8-2.4-5.7-4-8.4c-8.9-15.5-17.8-31-26.7-46.5
	c-0.6-1-0.9-2.1-1.4-3.1c7.8-0.1,15.7-0.2,23.5-0.2c13.1,0,26.3-0.1,39.4,0.1c1.5,0,3.7,1.1,4.5,2.4c10.7,18.2,21.2,36.5,31.8,54.8
	c8.7,15,17.4,30,26,45.1C242,180.1,242.7,182,243.5,183.8"/>
</svg>
