<?xml version="1.0" encoding="utf-8"?>
<!-- Generator: Adobe Illustrator 17.0.0, SVG Export Plug-In . SVG Version: 6.00 Build 0)  -->
<!DOCTYPE svg PUBLIC "-//W3C//DTD SVG 1.1//EN" "http://www.w3.org/Graphics/SVG/1.1/DTD/svg11.dtd">
<svg version="1.1" xmlns="http://www.w3.org/2000/svg" xmlns:xlink="http://www.w3.org/1999/xlink" x="0px" y="0px"
	 width="194.527px" height="173.257px" viewBox="30.287 43.006 194.527 173.257"
	 enable-background="new 30.287 43.006 194.527 173.257" xml:space="preserve">
<g id="Calque_2">
	<g>
		<path fill="#91BCCC" d="M67.11,215.094c-1.725-2.69-3.553-5.32-5.159-8.08c-8.778-15.088-17.422-30.254-26.318-45.271
			c-1.532-2.587-1.352-4.391,0.098-6.822c8.111-13.595,16.116-27.255,24.074-40.941c9.089-15.63,18.105-31.303,27.119-46.976
			c2.499-4.345,4.808-8.799,7.364-13.109c0.632-1.065,1.885-1.762,2.853-2.628c0.459,1.032,0.831,2.114,1.391,3.089
			c8.902,15.488,17.861,30.943,26.72,46.456c1.532,2.682,2.663,5.593,3.979,8.398c-0.405,0.476-0.896,0.902-1.202,1.434
			c-6.86,11.926-13.737,23.843-20.521,35.813c-2.247,3.965-4.244,8.073-6.355,12.115c-1.101,0.965-2.558,1.731-3.23,2.935
			c-1.427,2.554-2.373,5.371-3.658,8.011c-0.812,1.667-1.956,3.17-2.819,4.816c-2.634,5.023-5.113,10.129-7.821,15.111
			c-3.489,6.418-6.932,12.879-10.827,19.049C71.29,210.884,71.228,214.856,67.11,215.094z"/>
		<path fill="#91BCCC" d="M67.11,215.094c4.118-0.238,4.18-4.211,5.687-6.599c3.895-6.17,7.338-12.631,10.827-19.049
			c2.708-4.982,5.187-10.088,7.821-15.111c0.863-1.646,2.008-3.148,2.819-4.816c1.285-2.64,2.231-5.457,3.658-8.011
			c0.673-1.204,2.129-1.971,3.229-2.934c17.633,0.027,35.268,0.063,52.902,0.058c1.357,0,2.714-0.292,4.071-0.448
			c1.871,0.171,3.742,0.486,5.613,0.491c20.359,0.061,40.718,0.073,61.077,0.099c-3.706,6.559-7.402,13.125-11.122,19.676
			c-6.463,11.381-13,22.722-19.371,34.154c-1.472,2.642-3.284,3.666-6.34,3.659c-38.941-0.085-77.883-0.04-116.824-0.094
			C69.807,216.166,68.459,215.468,67.11,215.094z"/>
		<path fill="#91BCCC" d="M224.814,158.773c-20.359-0.026-40.718-0.038-61.077-0.099c-1.872-0.006-3.742-0.32-5.614-0.489
			c-0.047-0.37,0.019-0.807-0.155-1.104c-6.363-10.871-12.699-21.758-19.15-32.576c-3.081-5.167-6.385-10.201-9.588-15.295
			c-1.316-2.805-2.447-5.716-3.979-8.398c-8.859-15.513-17.817-30.968-26.72-46.456c-0.56-0.974-0.931-2.057-1.391-3.089
			c7.825-0.081,15.65-0.212,23.475-0.232c13.133-0.034,26.268-0.075,39.399,0.117c1.53,0.022,3.715,1.102,4.457,2.362
			c10.709,18.192,21.227,36.497,31.784,54.779c8.673,15.018,17.35,30.033,25.985,45.073
			C223.232,155.091,223.962,156.967,224.814,158.773z"/>
	</g>
</g>
<g id="drawing">
	<g>
		<path fill="#0C9F5E" d="M62.836,207.094c-1.725-2.69-3.553-5.32-5.159-8.08c-8.778-15.088-17.422-30.254-26.318-45.271
			c-1.532-2.587-1.352-4.391,0.098-6.822c8.111-13.595,16.116-27.255,24.074-40.941C64.62,90.35,73.636,74.677,82.65,59.004
			c2.499-4.345,4.808-8.799,7.364-13.109c0.632-1.065,1.885-1.762,2.853-2.628c0.459,1.032,0.831,2.114,1.391,3.089
			c8.902,15.488,17.861,30.943,26.72,46.456c1.532,2.682,2.663,5.593,3.979,8.398c-0.405,0.476-0.896,0.902-1.202,1.434
			c-6.86,11.926-13.737,23.843-20.521,35.813c-2.247,3.965-4.244,8.073-6.355,12.115c-1.101,0.965-2.558,1.731-3.23,2.935
			c-1.427,2.554-2.373,5.371-3.658,8.011c-0.812,1.667-1.956,3.17-2.819,4.816c-2.634,5.023-5.113,10.129-7.821,15.111
			c-3.489,6.418-6.932,12.879-10.827,19.049C67.016,202.884,66.954,206.856,62.836,207.094z"/>
		<path fill="#3278EE" d="M62.836,207.094c4.118-0.238,4.18-4.211,5.687-6.599c3.895-6.17,7.338-12.631,10.827-19.049
			c2.708-4.982,5.187-10.088,7.821-15.111c0.863-1.646,2.008-3.148,2.819-4.816c1.285-2.64,2.231-5.457,3.658-8.011
			c0.673-1.204,2.129-1.971,3.229-2.934c17.633,0.027,35.268,0.063,52.902,0.058c1.357,0,2.714-0.292,4.071-0.448
			c1.871,0.171,3.742,0.486,5.613,0.491c20.359,0.061,40.718,0.073,61.077,0.099c-3.706,6.559-7.402,13.125-11.122,19.676
			c-6.463,11.381-13,22.722-19.371,34.154c-1.472,2.642-3.284,3.666-6.34,3.659c-38.941-0.085-77.883-0.04-116.824-0.094
			C65.533,208.166,64.185,207.468,62.836,207.094z"/>
		<path fill="#F8C943" d="M220.54,150.773c-20.359-0.026-40.718-0.038-61.077-0.099c-1.872-0.006-3.742-0.32-5.614-0.489
			c-0.047-0.37,0.019-0.807-0.155-1.104c-6.363-10.871-12.699-21.758-19.15-32.576c-3.081-5.167-6.385-10.201-9.588-15.295
			c-1.316-2.805-2.447-5.716-3.979-8.398c-8.859-15.513-17.817-30.968-26.72-46.456c-0.56-0.974-0.931-2.057-1.391-3.089
			c7.825-0.081,15.65-0.212,23.475-0.232c13.133-0.034,26.268-0.075,39.399,0.117c1.53,0.022,3.715,1.102,4.457,2.362
			c10.709,18.192,21.227,36.497,31.784,54.779c8.673,15.018,17.35,30.033,25.985,45.073
			C218.958,147.091,219.688,148.967,220.54,150.773z"/>
	</g>
</g>
</svg>
