<?xml version="1.0" encoding="utf-8"?>
<!-- Generator: Adobe Illustrator 17.1.0, SVG Export Plug-In . SVG Version: 6.00 Build 0)  -->
<!DOCTYPE svg PUBLIC "-//W3C//DTD SVG 1.1//EN" "http://www.w3.org/Graphics/SVG/1.1/DTD/svg11.dtd">
<svg version="1.1" id="Calque_1" xmlns="http://www.w3.org/2000/svg" xmlns:xlink="http://www.w3.org/1999/xlink" x="0px" y="0px"
	 viewBox="0 0 252.7 253.1" enable-background="new 0 0 252.7 253.1" xml:space="preserve">
<path fill="#91BCCC" d="M253.7,242.1c0,6.6-5.4,12-12,12H25c-6.6,0-12-5.4-12-12v-217c0-6.6,5.4-12,12-12h216.7c6.6,0,12,5.4,12,12
	V242.1"/>
<path fill="#4AA3EF" d="M241.7,230c0,6.6-5.4,12-12,12H13c-6.6,0-12-5.4-12-12V13C1,6.4,6.4,1,13,1h216.7c6.6,0,12,5.4,12,12V230z"
	/>
<g>
	<path fill="#FFFFFF" d="M38.3,74.7l33.1,28.6l48.9-32.6L86.2,42.3L38.3,74.7z"/>
	<path fill="#FFFFFF" d="M122.4,70.7l34-28.4l48.1,32.2l-33.1,28.7l-49-32.3"/>
	<path fill="#FFFFFF" d="M171.4,104.6l-49.5,32.4l34.4,28.5l48.1-32.8L171.4,104.6z"/>
	<path fill="#FFFFFF" d="M71.7,165.8v8.1l49.7,30.6l50.1-30.8v-8.2l-15,9.5l-35.1-29.4l-34.8,28.8L71.7,165.8z"/>
	<path fill="#FFFFFF" d="M38.3,132.3l33.3-28.1l48.7,32.5l-33.7,28.7L38.3,132.3z"/>
</g>
</svg>
