<?xml version="1.0" encoding="utf-8"?>
<!-- Generator: Adobe Illustrator 17.1.0, SVG Export Plug-In . SVG Version: 6.00 Build 0)  -->
<!DOCTYPE svg PUBLIC "-//W3C//DTD SVG 1.1//EN" "http://www.w3.org/Graphics/SVG/1.1/DTD/svg11.dtd">
<svg version="1.1" id="Calque_1" xmlns="http://www.w3.org/2000/svg" xmlns:xlink="http://www.w3.org/1999/xlink" x="0px" y="0px"
	 viewBox="0 0 250.9 251.3" enable-background="new 0 0 250.9 251.3" xml:space="preserve">
<path fill="#91BCCC" d="M250.9,239.3c0,6.6-5.4,12-12,12H22.3c-6.6,0-12-5.4-12-12v-217c0-6.6,5.4-12,12-12h216.7
	c6.6,0,12,5.4,12,12V239.3"/>
<path fill="#2ECC71" d="M240.7,229c0,6.6-5.4,12-12,12H12c-6.6,0-12-5.4-12-12V12C0,5.4,5.4,0,12,0h216.7c6.6,0,12,5.4,12,12V229z"
	/>
<g>
	<path fill="#2D2D2D" d="M148.3,173.5c-3,0.5-5.8,1-8.7,1.4c-5.5,0.9-5.9,4.8-4.7,8.9c0.2,0.7,0.5,1.3,0.8,2c0.9,1.6,1.8,2.9,4,3
		c4.1,0.1,8.3,1,12.4,1c4.3,0,8.7-0.1,12.4-2.7c1.8-1.3,2.7-3,2.7-5.1c-0.1-6.1-0.1-12.1-0.7-18.2c-0.3-3.9-1.7-7.6-4.7-10.4
		c-2.1-1.9-4.5-2.7-7.3-3c-5.5-0.5-11.1-0.6-16.6-1.4c-3.1-0.4-6.1-1.4-9-2.6c-4.2-1.7-5.7-5.3-6-9.6c-0.2-3.7-0.6-7.5-0.8-11.2
		c-0.1-1.8-1.3-1.1-2.2-1.2c-1.2-0.1-0.9,0.8-0.9,1.5c-0.2,5.1-0.3,10.2-0.7,15.2c-0.3,3.7-1.3,7.4-3.2,10.7
		c-1.3,2.3-3.3,3.7-6.1,4.2c-5.4,1.1-10.6,0.3-15.7-1.1c-7.5-2.1-15-4.5-22.4-6.9c-3.3-1.1-6.7-2.3-9.9-3.7
		c-5.1-2.2-8.2-6.4-9.4-11.7c-1.3-5.4-2.1-11-3.1-16.5c-0.7-3.9-1.5-7.8-2.1-11.7c-1-6.2-1.9-12.5-2.8-18.7c-0.5-3.5-0.4-7,0-10.6
		c0.6-5.6,4.5-9.4,10.1-9.4c5.2-0.1,10.4,0.1,15.6-0.1c3.2-0.1,6.3-0.6,9.4-1.1c2.2-0.4,4.6-3.2,4.6-6c-0.1-7.2-0.2-14.3,0-21.5
		c0.1-2.3,1-4.7,1.9-6.9c0.8-1.9,2.8-2.8,4.7-3.2c3.5-0.8,7-1.5,10.6-1.9c3.9-0.4,7.9-0.5,11.9-0.4c4.4,0.1,8.8,0.5,12.8,2.7
		c3.7,2,6.7,4.8,8.1,8.9c0.5,1.3,1.2,1.7,2.6,1.7c6.9,0.1,13.8,0.2,20.7,0.7c5.3,0.4,10.6,1.3,15.8,2.3c4,0.8,7.9,2,11.8,3.2
		c4.6,1.4,6.9,5.1,8.4,9.4c1.4,4,1.7,8.2,1.9,12.4c0.4,8.6,1,17.2,1.5,25.8c0.2,4.4,0.5,8.7,0.6,13.1c0.2,4.1,0.4,8.2,0.3,12.3
		c-0.2,5.2-0.7,10.4-1.1,15.7c-0.4,4.7-0.8,9.3-1.3,13.9c-0.4,3.9-1,7.8-1.6,11.7c-0.7,4.6-1.2,9.1-2.1,13.7
		c-0.6,3.2-1.5,6.4-2.5,9.5c-1.6,4.7-3.4,9.4-5.3,14.1c-2.5,6.2-7.2,9.9-13.7,11.5c-8,1.9-16,1.6-24.1,1.3c-4.4-0.1-8.8-0.7-13-1.9
		c-4.6-1.3-8.6-3.6-10.8-8c-1-2-1.2-4.4-1.5-6.7c-0.4-3.1-0.7-6.3-0.6-9.4c0.2-5.2,0.7-10.5,3.9-15c2.1-3,4.9-5,8.6-5.6
		c4.5-0.7,9-1.3,13.6-1.1c0.5,0,0.9,0,1.4,0.1c1.8,0.3,2,0.7,1.4,2.5c-1.1,3.1-0.8,6.2-0.2,9.3C148.2,172.9,148.2,173.2,148.3,173.5
		 M170.8,114.5c-0.3-2.6-0.5-4.9-0.9-7.1c-0.7-3.9-2.5-7-6.5-8.2c-4.4-1.3-7.9-0.5-10.3,2.9c-1.3,1.8-2,3.9-2.8,6
		c-0.4,1.1-0.5,2.4-0.8,3.9C156.8,111.4,163.8,110.9,170.8,114.5"/>
	<path fill="#2D2D2D" d="M78.4,30.9c-0.1,0.3-0.3,1-0.5,1.8c-1.4,5.8-0.8,11.6-0.7,17.5c0,2.3,0.1,4.5,0,6.8
		c-0.1,1.6-1.5,2.5-3.7,2.5c-4.8,0-9.7-0.1-14.5,0.1c-3.2,0.1-6.3,0.7-9.5,1.1c-0.4,0.1-0.9,0.1-1.1,0.1
		C58.5,50.8,68.6,40.8,78.4,30.9"/>
</g>
</svg>
