<?xml version="1.0" encoding="utf-8"?>
<!-- Generator: Adobe Illustrator 17.0.0, SVG Export Plug-In . SVG Version: 6.00 Build 0)  -->
<!DOCTYPE svg PUBLIC "-//W3C//DTD SVG 1.1//EN" "http://www.w3.org/Graphics/SVG/1.1/DTD/svg11.dtd">
<svg version="1.1" id="drawing" xmlns="http://www.w3.org/2000/svg" xmlns:xlink="http://www.w3.org/1999/xlink" x="0px" y="0px"
	 width="250.933px" height="251.266px" viewBox="0 0 250.933 251.266" enable-background="new 0 0 250.933 251.266"
	 xml:space="preserve">
<path fill="#91BCCC" d="M250.933,239.266c0,6.627-5.373,12-12,12H22.266c-6.627,0-12-5.373-12-12v-217c0-6.627,5.373-12,12-12
	h216.667c6.627,0,12,5.373,12,12V239.266z"/>
<path fill="#2ECC71" d="M240.667,229c0,6.627-5.373,12-12,12H12c-6.627,0-12-5.373-12-12V12C0,5.373,5.373,0,12,0h216.667
	c6.627,0,12,5.373,12,12V229z"/>
<g>
	<path fill="#2D2D2D" d="M148.292,173.518c-3.012,0.504-5.83,0.992-8.654,1.444c-5.492,0.878-5.883,4.785-4.66,8.851
		c0.206,0.684,0.516,1.345,0.847,1.98c0.854,1.638,1.812,2.883,4.038,2.963c4.147,0.15,8.283,0.998,12.418,0.964
		c4.261-0.035,8.663-0.075,12.432-2.732c1.794-1.265,2.743-3.05,2.718-5.102c-0.076-6.061-0.131-12.139-0.655-18.17
		c-0.338-3.887-1.652-7.61-4.738-10.411c-2.074-1.883-4.549-2.741-7.252-2.973c-5.519-0.473-11.074-0.649-16.559-1.368
		c-3.054-0.401-6.102-1.395-8.967-2.573c-4.158-1.709-5.713-5.294-5.964-9.605c-0.218-3.74-0.609-7.471-0.814-11.211
		c-0.098-1.786-1.335-1.14-2.225-1.222c-1.189-0.109-0.921,0.795-0.95,1.48c-0.216,5.08-0.252,10.176-0.713,15.233
		c-0.339,3.718-1.319,7.377-3.19,10.673c-1.324,2.333-3.332,3.662-6.083,4.233c-5.369,1.115-10.581,0.278-15.665-1.119
		c-7.541-2.072-14.981-4.52-22.424-6.931c-3.344-1.084-6.653-2.327-9.868-3.745c-5.096-2.247-8.178-6.358-9.405-11.672
		c-1.256-5.439-2.11-10.971-3.132-16.464c-0.722-3.883-1.505-7.757-2.13-11.657C45.7,98.158,44.783,91.92,43.888,85.68
		c-0.504-3.516-0.414-7.029-0.04-10.575c0.59-5.594,4.46-9.388,10.069-9.445c5.201-0.052,10.407,0.089,15.601-0.104
		c3.155-0.117,6.309-0.611,9.434-1.117c2.23-0.361,4.607-3.158,4.552-6.024c-0.139-7.155-0.198-14.32,0.049-21.469
		c0.08-2.317,0.988-4.694,1.929-6.865c0.811-1.871,2.777-2.79,4.687-3.222c3.497-0.79,7.032-1.541,10.591-1.887
		c3.933-0.382,7.915-0.451,11.869-0.363c4.413,0.099,8.837,0.487,12.825,2.693c3.691,2.042,6.663,4.808,8.122,8.872
		c0.48,1.336,1.164,1.679,2.563,1.704c6.889,0.121,13.792,0.171,20.655,0.695c5.304,0.405,10.592,1.294,15.821,2.306
		c3.999,0.774,7.932,1.958,11.827,3.177c4.603,1.44,6.869,5.137,8.366,9.405c1.407,4.013,1.686,8.205,1.905,12.416
		c0.448,8.615,0.997,17.225,1.479,25.839c0.244,4.36,0.473,8.722,0.635,13.086c0.152,4.11,0.4,8.231,0.257,12.334
		c-0.183,5.228-0.679,10.446-1.11,15.663c-0.384,4.652-0.798,9.304-1.321,13.943c-0.442,3.922-1.034,7.828-1.605,11.734
		c-0.667,4.563-1.25,9.145-2.121,13.67c-0.617,3.203-1.486,6.383-2.542,9.471c-1.62,4.742-3.411,9.43-5.286,14.078
		c-2.507,6.216-7.163,9.912-13.676,11.492c-7.956,1.931-15.994,1.574-24.058,1.303c-4.443-0.149-8.799-0.687-13.054-1.947
		c-4.558-1.35-8.635-3.562-10.791-7.984c-0.98-2.009-1.23-4.437-1.505-6.711c-0.376-3.106-0.742-6.259-0.605-9.37
		c0.229-5.227,0.745-10.468,3.869-14.982c2.109-3.048,4.856-4.973,8.647-5.558c4.531-0.698,9.049-1.284,13.641-1.126
		c0.463,0.016,0.934-0.006,1.387,0.073c1.829,0.319,2.022,0.742,1.411,2.456c-1.09,3.06-0.759,6.177-0.249,9.29
		C148.164,172.925,148.232,173.216,148.292,173.518z M170.843,114.515c-0.314-2.614-0.478-4.903-0.883-7.149
		c-0.696-3.862-2.477-6.99-6.531-8.162c-4.385-1.268-7.929-0.46-10.342,2.933c-1.255,1.765-2.017,3.911-2.815,5.957
		c-0.446,1.143-0.509,2.436-0.791,3.902C156.774,111.369,163.768,110.914,170.843,114.515z"/>
	<path fill="#2D2D2D" d="M78.429,30.946c-0.094,0.327-0.328,1.034-0.499,1.755c-1.371,5.772-0.84,11.622-0.716,17.456
		c0.048,2.262,0.102,4.527,0.029,6.786c-0.05,1.558-1.503,2.513-3.651,2.525c-4.834,0.029-9.674-0.096-14.501,0.094
		c-3.159,0.124-6.301,0.693-9.451,1.056c-0.439,0.051-0.883,0.066-1.065,0.079C58.531,50.776,68.561,40.78,78.429,30.946z"/>
</g>
</svg>
