<svg xmlns="http://www.w3.org/2000/svg" viewBox="0 0 250 333" enable-background="new 0 0 250 333"><path fill="#91bccc" d="M248.704,81L179,11.296L177.704,10H21.462C14.948,10,9,14.751,9,21.319v299.289
		C9,327.176,14.948,333,21.462,333h216.243c6.514,0,11.295-5.824,11.295-12.392V81.296L248.704,81z"/><path fill="#27ae60" d="M182.462,71C175.948,71,170,65.176,170,58.608V1.296L168.704,0H12.462C5.948,0,0,4.751,0,11.319v299.289
			C0,317.176,5.948,323,12.462,323h216.243c6.514,0,11.295-5.824,11.295-12.392V71.296L239.704,71H182.462z"/><g fill="#fff"><path d="m182.46 71h57.24l-69.7-69.7v57.31c0 6.569 5.948 12.393 12.462 12.393"/><path d="m19.19 274.77h58.61v21.84h-58.61z"/><path d="m92.28 274.77h58.61v21.84h-58.61z"/><path d="m167.64 274.77h58.61v21.84h-58.61z"/><path d="m19.19 242.28h58.61v21.84h-58.61z"/><path d="m92.28 242.28h58.61v21.84h-58.61z"/><path d="m167.64 242.28h58.61v21.84h-58.61z"/><path d="m19.19 208.71h58.61v21.84h-58.61z"/><path d="m92.28 208.71h58.61v21.84h-58.61z"/><path d="m167.64 208.71h58.61v21.84h-58.61z"/><path d="m19.19 176.22h58.61v21.84h-58.61z"/><path d="m92.28 176.22h58.61v21.84h-58.61z"/><path d="m167.64 176.22h58.61v21.84h-58.61z"/><text transform="translate(20.947 129.58)" font-family="&apos;Palatino-Bold&apos;" font-size="133.7">X</text></g></svg>