<?xml version="1.0" encoding="utf-8"?>
<!-- Generator: Adobe Illustrator 17.1.0, SVG Export Plug-In . SVG Version: 6.00 Build 0)  -->
<!DOCTYPE svg PUBLIC "-//W3C//DTD SVG 1.1//EN" "http://www.w3.org/Graphics/SVG/1.1/DTD/svg11.dtd">
<svg version="1.1" id="Calque_1" xmlns="http://www.w3.org/2000/svg" xmlns:xlink="http://www.w3.org/1999/xlink" x="0px" y="0px"
	 viewBox="237 21 491 513" enable-background="new 237 21 491 513" xml:space="preserve">
<path fill="#FFFFFF" d="M712.2,441.2l-87.3-87.3c23.7-34.2,37.7-75.7,37.7-120.3c0-116.7-95-211.7-211.7-211.7
	c-116.7,0-211.7,94.9-211.7,211.7c0,116.8,95,211.7,211.7,211.7c32.2,0,62.7-7.2,90-20.1l93.8,93.8c10.1,10.1,23.6,15.6,38,15.6
	c14.7,0,28.6-5.8,39.1-16.2C733,496.9,733.3,462.3,712.2,441.2 M323.9,233.5c0-70,57-127,127-127c70,0,127,57,127,127
	c0,70.1-57,127-127,127C380.9,360.6,323.9,303.6,323.9,233.5"/>
</svg>
