<?xml version="1.0" encoding="utf-8"?>
<!-- Generator: Adobe Illustrator 17.0.0, SVG Export Plug-In . SVG Version: 6.00 Build 0)  -->
<!DOCTYPE svg PUBLIC "-//W3C//DTD SVG 1.1//EN" "http://www.w3.org/Graphics/SVG/1.1/DTD/svg11.dtd">
<svg version="1.1" id="drawing" xmlns="http://www.w3.org/2000/svg" xmlns:xlink="http://www.w3.org/1999/xlink" x="0px" y="0px"
	 width="203.102px" height="149.005px" viewBox="37.924 63.628 203.102 149.005"
	 enable-background="new 37.924 63.628 203.102 149.005" xml:space="preserve">
<g>
	<rect x="53.415" y="71.887" fill="#91BCCC" width="177.632" height="140.682"/>
	<g>
		<path fill="#91BCCC" d="M67.749,212.57c-4.377,0.009-8.757,0.111-13.131,0.001c-4.49-0.113-8.044-3.823-8.404-8.532
			c-0.025-0.331-0.028-0.665-0.028-0.997c-0.001-40.403-0.006-80.807,0.005-121.21c0.001-4.916,2.705-8.565,7.224-9.415
			c2.173-0.408,4.368-0.133,6.651,0.289c3.234,0.598,5.166,2.833,7.499,4.492c24.78,17.626,49.486,35.356,74.175,53.109
			c1.368,0.983,2.236,1.094,3.68,0.058c24.04-17.232,48.13-34.394,72.213-51.564c0.483-0.344,1.026-0.603,1.541-0.901
			c-0.001,0-0.035,0.15-0.035,0.15c-0.015,10.11-0.029,20.22-0.044,30.331c-20.158,14.374-40.321,28.742-60.472,43.127
			c-4.819,3.44-9.6,6.934-14.398,10.403c-0.313,0.057-0.626,0.113-0.939,0.17c-0.496-0.355-0.991-0.71-1.487-1.065
			c-0.284-0.119-0.569-0.238-0.853-0.357l0.025,0.012c-0.441-0.436-0.834-0.939-1.331-1.298
			c-16.527-11.917-33.061-23.825-49.603-35.721c-7.28-5.235-14.582-10.44-21.873-15.659c-0.1,0.047-0.201,0.093-0.301,0.14
			c-0.013,0.72-0.038,1.44-0.038,2.16c-0.002,31.156-0.002,62.313,0,93.469c0,1.607,0.023,3.214,0.036,4.822
			C67.824,209.913,67.786,211.241,67.749,212.57z"/>
		<path fill="#91BCCC" d="M144.226,161.911c4.798-3.469,9.579-6.963,14.398-10.403c20.151-14.384,40.313-28.753,60.472-43.127
			c0.099,0.044,0.202,0.077,0.308,0.099c0.003,34.161,0.007,68.322,0.004,102.482c0,0.437-0.08,0.875-0.123,1.312
			c-0.264-0.017-0.527-0.033-0.791-0.05c-3.679-2.541-7.335-5.118-11.042-7.618c-16.642-11.224-33.303-22.421-49.949-33.64
			C153.062,167.972,148.651,164.931,144.226,161.911z"/>
		<path fill="#91BCCC" d="M219.286,212.275c0.043-0.437,0.123-0.875,0.123-1.312c0.003-34.161-0.001-68.322-0.004-102.482
			c0.017-9.728,0.038-19.457,0.038-29.185c0-0.415-0.198-0.83-0.303-1.245c0,0,0.034-0.15,0.035-0.15
			c2.676-1.854,5.128-4.342,8.089-5.383c2.965-1.043,6.472-0.849,9.45,1.016c2.686,1.681,4.037,4.172,4.282,7.296
			c0.039,0.496,0.029,0.997,0.029,1.495c0.001,40.065,0.002,80.131,0,120.196c0,5.263-2.545,8.826-7.093,9.882
			c-0.798,0.185-1.646,0.208-2.472,0.213c-3.546,0.022-7.093,0.024-10.64-0.005C220.308,212.606,219.797,212.392,219.286,212.275z"
			/>
		<path fill="#91BCCC" d="M143.287,162.081c-1.556,1.195-3.059,2.466-4.676,3.571c-11.23,7.674-22.489,15.305-33.729,22.965
			c-11.376,7.753-22.74,15.523-34.106,23.291c-0.268,0.183-0.49,0.434-0.733,0.653c-0.765,0.003-1.529,0.005-2.294,0.008
			c0.038-1.328,0.075-2.657,0.113-3.985c0.544-0.228,1.142-0.374,1.623-0.695c4.73-3.166,9.436-6.369,14.157-9.548
			c18.29-12.315,36.579-24.632,54.894-36.911c0.677-0.454,1.619-0.515,2.437-0.759c0,0-0.025-0.012-0.025-0.012
			c0.284,0.119,0.569,0.238,0.853,0.357C142.296,161.371,142.791,161.726,143.287,162.081z"/>
		<path fill="#91BCCC" d="M219.139,78.051c0.106,0.415,0.303,0.83,0.303,1.245c0,9.729-0.021,19.457-0.038,29.185
			c-0.107-0.022-0.209-0.055-0.309-0.099C219.11,98.271,219.125,88.161,219.139,78.051z"/>
		<path fill="#91BCCC" d="M68.165,107.993c-0.1,0.047-0.201,0.094-0.301,0.141C67.964,108.086,68.065,108.04,68.165,107.993z"/>
	</g>
</g>
<g>
	<rect x="45.155" y="63.628" fill="#FFFFFF" width="177.632" height="140.682"/>
	<g>
		<path fill="#EC4335" d="M59.489,204.31c-4.377,0.009-8.757,0.111-13.131,0.001c-4.49-0.113-8.044-3.823-8.404-8.532
			c-0.025-0.331-0.028-0.665-0.028-0.997c-0.001-40.403-0.006-80.807,0.005-121.21c0.001-4.916,2.705-8.565,7.224-9.415
			c2.173-0.408,4.368-0.133,6.651,0.289c3.234,0.598,5.166,2.833,7.499,4.492c24.78,17.626,49.486,35.356,74.175,53.109
			c1.368,0.983,2.236,1.094,3.68,0.058c24.04-17.232,48.13-34.394,72.213-51.564c0.483-0.344,1.026-0.603,1.541-0.901
			c-0.001,0-0.035,0.15-0.035,0.15c-0.015,10.11-0.029,20.22-0.044,30.331c-20.158,14.374-40.321,28.742-60.472,43.127
			c-4.819,3.44-9.6,6.934-14.398,10.403c-0.313,0.057-0.626,0.113-0.939,0.17c-0.496-0.355-0.991-0.71-1.487-1.065
			c-0.284-0.119-0.569-0.238-0.853-0.357l0.025,0.012c-0.441-0.436-0.834-0.939-1.331-1.298
			c-16.527-11.917-33.061-23.825-49.603-35.721c-7.28-5.235-14.582-10.44-21.873-15.659c-0.1,0.047-0.201,0.093-0.301,0.14
			c-0.013,0.72-0.038,1.44-0.038,2.16c-0.002,31.156-0.002,62.313,0,93.469c0,1.607,0.023,3.214,0.036,4.822
			C59.564,201.653,59.526,202.982,59.489,204.31z"/>
		<path fill="#CBCBBD" d="M135.966,153.651c4.798-3.469,9.579-6.963,14.398-10.403c20.151-14.384,40.313-28.753,60.472-43.127
			c0.099,0.044,0.202,0.077,0.308,0.099c0.003,34.161,0.007,68.322,0.004,102.482c0,0.437-0.08,0.875-0.123,1.312
			c-0.264-0.017-0.527-0.033-0.791-0.05c-3.679-2.541-7.335-5.118-11.042-7.618c-16.642-11.224-33.303-22.421-49.949-33.64
			C144.802,159.712,140.391,156.671,135.966,153.651z"/>
		<path fill="#A6342B" d="M211.026,204.015c0.043-0.437,0.123-0.875,0.123-1.312c0.003-34.161-0.001-68.322-0.004-102.482
			c0.017-9.728,0.038-19.457,0.038-29.185c0-0.415-0.198-0.83-0.303-1.245c0,0,0.034-0.15,0.035-0.15
			c2.676-1.854,5.128-4.342,8.089-5.383c2.965-1.043,6.472-0.849,9.451,1.016c2.686,1.681,4.037,4.172,4.282,7.296
			c0.039,0.496,0.029,0.997,0.029,1.495c0.001,40.065,0.002,80.131,0,120.196c0,5.263-2.545,8.826-7.093,9.882
			c-0.798,0.185-1.646,0.208-2.472,0.213c-3.546,0.022-7.093,0.024-10.64-0.005C212.048,204.346,211.537,204.132,211.026,204.015z"
			/>
		<path fill="#D2CBBD" d="M135.027,153.821c-1.556,1.195-3.059,2.466-4.676,3.571c-11.23,7.674-22.49,15.305-33.729,22.965
			c-11.376,7.753-22.74,15.523-34.106,23.291c-0.268,0.183-0.49,0.434-0.733,0.653c-0.765,0.003-1.529,0.005-2.294,0.008
			c0.038-1.328,0.075-2.657,0.113-3.985c0.544-0.228,1.142-0.374,1.623-0.695c4.73-3.166,9.436-6.369,14.157-9.548
			c18.29-12.315,36.579-24.632,54.894-36.911c0.677-0.454,1.619-0.515,2.437-0.759c0,0-0.025-0.012-0.025-0.012
			c0.284,0.119,0.569,0.238,0.853,0.357C134.036,153.111,134.531,153.466,135.027,153.821z"/>
		<path fill="#E66559" d="M210.879,69.791c0.106,0.415,0.303,0.83,0.303,1.245c0,9.729-0.021,19.457-0.038,29.185
			c-0.107-0.022-0.209-0.055-0.309-0.099C210.85,90.011,210.865,79.901,210.879,69.791z"/>
		<path fill="#D2CBBD" d="M59.905,99.733c-0.1,0.047-0.201,0.094-0.301,0.141C59.705,99.827,59.805,99.78,59.905,99.733z"/>
	</g>
</g>
</svg>
