<?xml version="1.0" encoding="utf-8"?>
<!-- Generator: Adobe Illustrator 17.1.0, SVG Export Plug-In . SVG Version: 6.00 Build 0)  -->
<!DOCTYPE svg PUBLIC "-//W3C//DTD SVG 1.1//EN" "http://www.w3.org/Graphics/SVG/1.1/DTD/svg11.dtd">
<svg version="1.1" id="Calque_1" xmlns="http://www.w3.org/2000/svg" xmlns:xlink="http://www.w3.org/1999/xlink" x="0px" y="0px"
	 viewBox="37 62 206 151" enable-background="new 37 62 206 151" xml:space="preserve">
<g>
	<path fill="#91BCCC" d="M53.4,71.9H231v140.7H53.4L53.4,71.9z"/>
	<path fill="#91BCCC" d="M67.8,212.6c-4.4,0-8.8,0.1-13.1,0c-4.5-0.1-8-3.8-8.4-8.5c0-0.3,0-0.7,0-1c0-40.4,0-80.8,0-121.2
		c0-4.9,2.7-8.6,7.2-9.4c2.2-0.4,4.4-0.1,6.7,0.3c3.2,0.6,5.2,2.8,7.5,4.5c24.8,17.6,49.5,35.4,74.2,53.1c1.4,1,2.2,1.1,3.7,0.1
		c24-17.2,48.1-34.4,72.2-51.6c0.5-0.3,1-0.6,1.5-0.9c0,0,0,0.2,0,0.2c0,10.1,0,20.2,0,30.3c-20.2,14.4-40.3,28.7-60.5,43.1
		c-4.8,3.4-9.6,6.9-14.4,10.4c-0.3,0.1-0.6,0.1-0.9,0.2c-0.5-0.4-1-0.7-1.5-1.1c-0.3-0.1-0.6-0.2-0.9-0.4l0,0
		c-0.4-0.4-0.8-0.9-1.3-1.3c-16.5-11.9-33.1-23.8-49.6-35.7c-7.3-5.2-14.6-10.4-21.9-15.7c-0.1,0-0.2,0.1-0.3,0.1c0,0.7,0,1.4,0,2.2
		c0,31.2,0,62.3,0,93.5c0,1.6,0,3.2,0,4.8C67.8,209.9,67.8,211.2,67.8,212.6"/>
	<path fill="#91BCCC" d="M144.2,161.9c4.8-3.5,9.6-7,14.4-10.4c20.1-14.4,40.3-28.8,60.5-43.1c0.1,0,0.2,0.1,0.3,0.1
		c0,34.2,0,68.3,0,102.5c0,0.4-0.1,0.9-0.1,1.3c-0.3,0-0.5,0-0.8-0.1c-3.7-2.5-7.3-5.1-11-7.6c-16.6-11.2-33.3-22.4-49.9-33.6
		C153.1,168,148.7,164.9,144.2,161.9"/>
	<path fill="#91BCCC" d="M219.3,212.3c0-0.4,0.1-0.9,0.1-1.3c0-34.2,0-68.3,0-102.5c0-9.7,0-19.5,0-29.2c0-0.4-0.2-0.8-0.3-1.2
		c0,0,0-0.2,0-0.2c2.7-1.9,5.1-4.3,8.1-5.4c3-1,6.5-0.8,9.4,1c2.7,1.7,4,4.2,4.3,7.3c0,0.5,0,1,0,1.5c0,40.1,0,80.1,0,120.2
		c0,5.3-2.5,8.8-7.1,9.9c-0.8,0.2-1.6,0.2-2.5,0.2c-3.5,0-7.1,0-10.6,0C220.3,212.6,219.8,212.4,219.3,212.3"/>
	<path fill="#91BCCC" d="M143.3,162.1c-1.6,1.2-3.1,2.5-4.7,3.6c-11.2,7.7-22.5,15.3-33.7,23c-11.4,7.8-22.7,15.5-34.1,23.3
		c-0.3,0.2-0.5,0.4-0.7,0.7c-0.8,0-1.5,0-2.3,0c0-1.3,0.1-2.7,0.1-4c0.5-0.2,1.1-0.4,1.6-0.7c4.7-3.2,9.4-6.4,14.2-9.5
		c18.3-12.3,36.6-24.6,54.9-36.9c0.7-0.5,1.6-0.5,2.4-0.8l0,0c0.3,0.1,0.6,0.2,0.9,0.4C142.3,161.4,142.8,161.7,143.3,162.1"/>
	<path fill="#91BCCC" d="M219.1,78c0.1,0.4,0.3,0.8,0.3,1.2c0,9.7,0,19.5,0,29.2c-0.1,0-0.2-0.1-0.3-0.1
		C219.1,98.3,219.1,88.2,219.1,78"/>
	<path fill="#91BCCC" d="M68.2,108c-0.1,0-0.2,0.1-0.3,0.1C68,108.1,68.1,108,68.2,108"/>
</g>
<path fill="#FFFFFF" d="M45.2,63.6h177.6v140.7H45.2L45.2,63.6z"/>
<path fill="#EC4335" d="M59.5,204.3c-4.4,0-8.8,0.1-13.1,0c-4.5-0.1-8-3.8-8.4-8.5c0-0.3,0-0.7,0-1c0-40.4,0-80.8,0-121.2
	c0-4.9,2.7-8.6,7.2-9.4c2.2-0.4,4.4-0.1,6.7,0.3c3.2,0.6,5.2,2.8,7.5,4.5c24.8,17.6,49.5,35.4,74.2,53.1c1.4,1,2.2,1.1,3.7,0.1
	c24-17.2,48.1-34.4,72.2-51.6c0.5-0.3,1-0.6,1.5-0.9c0,0,0,0.1,0,0.1c0,10.1,0,20.2,0,30.3c-20.2,14.4-40.3,28.7-60.5,43.1
	c-4.8,3.4-9.6,6.9-14.4,10.4c-0.3,0.1-0.6,0.1-0.9,0.2c-0.5-0.4-1-0.7-1.5-1.1c-0.3-0.1-0.6-0.2-0.9-0.4l0,0
	c-0.4-0.4-0.8-0.9-1.3-1.3c-16.5-11.9-33.1-23.8-49.6-35.7c-7.3-5.2-14.6-10.4-21.9-15.7c-0.1,0-0.2,0.1-0.3,0.1c0,0.7,0,1.4,0,2.2
	c0,31.2,0,62.3,0,93.5c0,1.6,0,3.2,0,4.8C59.6,201.7,59.5,203,59.5,204.3"/>
<path fill="#CBCBBD" d="M136,153.6c4.8-3.5,9.6-7,14.4-10.4c20.1-14.4,40.3-28.8,60.5-43.1c0.1,0,0.2,0.1,0.3,0.1
	c0,34.2,0,68.3,0,102.5c0,0.4-0.1,0.9-0.1,1.3c-0.3,0-0.5,0-0.8-0.1c-3.7-2.5-7.3-5.1-11-7.6c-16.6-11.2-33.3-22.4-49.9-33.6
	C144.8,159.7,140.4,156.7,136,153.6"/>
<path fill="#A6342B" d="M211,204c0-0.4,0.1-0.9,0.1-1.3c0-34.2,0-68.3,0-102.5c0-9.7,0-19.5,0-29.2c0-0.4-0.2-0.8-0.3-1.2
	c0,0,0-0.1,0-0.1c2.7-1.9,5.1-4.3,8.1-5.4c3-1,6.5-0.8,9.5,1c2.7,1.7,4,4.2,4.3,7.3c0,0.5,0,1,0,1.5c0,40.1,0,80.1,0,120.2
	c0,5.3-2.5,8.8-7.1,9.9c-0.8,0.2-1.6,0.2-2.5,0.2c-3.5,0-7.1,0-10.6,0C212,204.3,211.5,204.1,211,204"/>
<path fill="#D2CBBD" d="M135,153.8c-1.6,1.2-3.1,2.5-4.7,3.6c-11.2,7.7-22.5,15.3-33.7,23c-11.4,7.8-22.7,15.5-34.1,23.3
	c-0.3,0.2-0.5,0.4-0.7,0.7c-0.8,0-1.5,0-2.3,0c0-1.3,0.1-2.7,0.1-4c0.5-0.2,1.1-0.4,1.6-0.7c4.7-3.2,9.4-6.4,14.2-9.5
	c18.3-12.3,36.6-24.6,54.9-36.9c0.7-0.5,1.6-0.5,2.4-0.8l0,0c0.3,0.1,0.6,0.2,0.9,0.4C134,153.1,134.5,153.5,135,153.8"/>
<path fill="#E66559" d="M210.9,69.8c0.1,0.4,0.3,0.8,0.3,1.2c0,9.7,0,19.5,0,29.2c-0.1,0-0.2-0.1-0.3-0.1
	C210.8,90,210.9,79.9,210.9,69.8"/>
<path fill="#D2CBBD" d="M59.9,99.7c-0.1,0-0.2,0.1-0.3,0.1C59.7,99.8,59.8,99.8,59.9,99.7"/>
</svg>
