<?xml version="1.0" encoding="utf-8"?>
<!-- Generator: Adobe Illustrator 17.0.0, SVG Export Plug-In . SVG Version: 6.00 Build 0)  -->
<!DOCTYPE svg PUBLIC "-//W3C//DTD SVG 1.1//EN" "http://www.w3.org/Graphics/SVG/1.1/DTD/svg11.dtd">
<svg version="1.1" id="Calque_1" xmlns="http://www.w3.org/2000/svg" xmlns:xlink="http://www.w3.org/1999/xlink" x="0px" y="0px"
	 width="250px" height="333px" viewBox="0 0 250 333" enable-background="new 0 0 250 333" xml:space="preserve">
<g id="Calque_1_1_">
	<path fill="#91BCCC" d="M248.704,81L179,11.296L177.704,10H21.462C14.948,10,9,14.751,9,21.319v299.289
		C9,327.176,14.948,333,21.462,333h216.243c6.514,0,11.295-5.824,11.295-12.392V81.296L248.704,81z"/>
	<g>
		<path fill="#E74C3C" d="M182.462,71C175.948,71,170,65.176,170,58.608V1.296L168.704,0H12.462C5.948,0,0,4.751,0,11.319v299.289
			C0,317.176,5.948,323,12.462,323h216.243c6.514,0,11.295-5.824,11.295-12.392V71.296L239.704,71H182.462z"/>
		<path fill="#FFFFFF" d="M182.462,71h57.242L170,1.296v57.311C170,65.176,175.948,71,182.462,71z"/>
	</g>
	<rect x="25" y="196" fill="#FFFFFF" width="191" height="10"/>
	<rect x="25" y="221" fill="#FFFFFF" width="191" height="10"/>
	<rect x="25" y="245" fill="#FFFFFF" width="191" height="10"/>
	<rect x="25" y="269" fill="#FFFFFF" width="191" height="10"/>
</g>
<path fill="#FFFFFF" d="M72.649,32.389c-0.663,5.574-1.413,12.058-2.225,18.534c-0.143,1.144-0.1,2.14,0.497,3.182
	c5.481,9.556,10.826,19.192,16.43,28.675c1.772,2.999,4.181,5.627,6.371,8.367c0.265,0.331,1.03,0.507,1.486,0.405
	c5.452-1.215,10.916-1.371,16.423-0.419c3.083,0.533,5.293,2.874,5.341,5.911c0.04,2.542-1.132,4.492-3.167,5.992
	c-4.811,3.544-9.871,3.755-15.017,0.951c-2.326-1.267-4.418-2.961-6.667-4.381c-0.524-0.331-1.318-0.592-1.879-0.452
	c-12.966,3.245-25.474,7.809-37.645,13.303c-0.651,0.294-1.23,0.993-1.593,1.642c-3.39,6.064-7.048,11.956-11.643,17.185
	c-3.405,3.875-7.319,7.149-12.396,8.687c-4.169,1.263-8.098,0.782-11.653-1.816c-2.065-1.509-2.634-3.518-1.717-5.89
	c1.353-3.501,3.976-5.979,6.946-8.066c7.798-5.479,16.072-10.16,24.607-14.384c0.975-0.482,1.599-1.094,2.031-2.109
	c4.294-10.079,7.659-20.471,10.364-31.072c1.691-6.625,3.094-13.322,4.662-19.978c0.313-1.329,0.108-2.514-0.443-3.74
	c-3.294-7.336-4.601-15.086-4.676-23.077c-0.026-2.751,0.586-5.381,1.721-7.884c1.29-2.844,3.677-4.121,7.331-3.941
	c2.496,0.123,4.194,1.571,5.173,4.472c0.269,0.797,0.519,1.62,0.619,2.45C72.185,27.096,72.354,29.264,72.649,32.389z
	 M55.721,104.719c5.236-2.067,10.144-4.136,15.148-5.943c4.981-1.799,10.057-3.335,15.225-5.03
	c-7.435-8.098-13.295-17.211-18.391-26.936C64.806,79.739,61.229,92.396,55.721,104.719z M42.426,117.305
	c-0.682,0.276-1.092,0.399-1.46,0.598c-4.13,2.236-8.295,4.414-12.359,6.765c-1.555,0.9-2.971,2.103-4.282,3.346
	c-1.503,1.425-2.306,3.228-2.056,5.394c0.11,0.952,0.472,1.577,1.515,1.278c1.9-0.544,3.953-0.86,5.633-1.815
	c5.547-3.152,9.063-8.225,12.149-13.628C41.862,118.725,42.056,118.147,42.426,117.305z M63.818,37.929
	c0.421-0.702,0.878-1.148,0.959-1.654c0.467-2.914,0.946-5.834,1.186-8.771c0.065-0.798-0.533-1.779-1.087-2.466
	c-0.701-0.869-1.636-0.589-2.036,0.474c-0.138,0.368-0.203,0.771-0.251,1.164c-0.413,3.344-0.001,6.63,0.728,9.89
	C63.401,36.938,63.58,37.289,63.818,37.929z M100.452,97.218c-0.057,0.135-0.114,0.271-0.17,0.406c2.006,0.97,4.012,1.94,6.12,2.96
	C106.898,97.619,104.198,96.292,100.452,97.218z"/>
<g id="Calque_2">
</g>
</svg>
