<svg xmlns="http://www.w3.org/2000/svg" width="128" height="128"><path d="M50.298 94.042l-5.184 5.146c-4.493 4.448-11.795 4.454-16.282 0-2.157-2.144-3.341-4.979-3.341-8.006s1.19-5.869 3.341-8.013l19.072-18.925c3.949-3.923 11.386-9.69 16.806-4.314 2.49 2.47 6.509 2.451 8.973-.032 2.47-2.483 2.458-6.502-.032-8.973-9.21-9.139-22.829-7.45-34.688 4.314l-19.072 18.925c-4.57 4.544-7.091 10.586-7.091 17.018 0 6.426 2.522 12.467 7.098 17.011 4.71 4.678 10.893 7.008 17.075 7.008s12.378-2.33 17.088-7.008l5.184-5.152c2.49-2.47 2.502-6.49.032-8.966-2.47-2.483-6.49-2.496-8.979-.032zm57.804-73.504c-9.894-9.818-23.725-10.349-32.89-1.261l-6.458 6.406c-2.49 2.47-2.509 6.483-.038 8.973 2.477 2.49 6.49 2.502 8.973.032l6.458-6.406c4.742-4.71 10.957-2.758 15.014 1.261 2.157 2.138 3.341 4.986 3.341 8.006 0 3.027-1.19 5.869-3.341 8.006l-20.352 20.186c-9.299 9.229-13.67 4.902-15.533 3.053-2.49-2.47-6.502-2.451-8.966.032-2.47 2.49-2.458 6.509.032 8.973 4.269 4.237 9.152 6.336 14.259 6.336 6.259 0 12.87-3.149 19.155-9.389l20.346-20.186c4.576-4.538 7.098-10.579 7.098-17.005s-2.522-12.474-7.098-17.018z" fill="#fff"/></svg>