<svg xmlns="http://www.w3.org/2000/svg" viewBox="0 0 64 64"><path d="M56 64h-48q-3.313 0-5.656-2.344t-2.344-5.656v-6q0-1.625 1.156-2.813t2.813-1.188 2.844 1.188 1.188 2.813v2q0 1.688 1.156 2.844t2.844 1.156h40q1.625 0 2.813-1.156t1.188-2.844v-2q0-1.625 1.156-2.813t2.813-1.188 2.844 1.188 1.188 2.813v6q0 3.313-2.344 5.656t-5.656 2.344zm-21.937-16.875q-.875.875-2.063.875t-2.063-.875l-21.313-21.563q-.75-.813-.531-1.188t1.156-.375h14.75v-20q0-1.688 1.156-2.844t2.844-1.156h8q1.688 0 2.844 1.156t1.156 2.844v20h14.688q.938 0 1.188.375t-.5 1.188z" fill="#fff"/></svg>