<svg xmlns="http://www.w3.org/2000/svg" viewBox="0 0 32 32" enable-background="new 0 0 32 32"><path fill="#fff" d="M25 4h-18c-1.657 0-3 1.343-3 3v1h24v-1c0-1.657-1.343-3-3-3m-5.24-2l.441 3.156h-8.402l.441-3.156h7.52m.24-2h-8c-.825 0-1.593.668-1.708 1.486l-.585 4.185c-.114.817.467 1.486 1.292 1.486h10c.825 0 1.407-.668 1.292-1.486l-.585-4.185c-.114-.817-.883-1.486-1.708-1.486h.002zm5.5 10h-19c-1.1 0-1.918.896-1.819 1.992l1.638 18.02c.1 1.095 1.081 1.992 2.181 1.992h15c1.1 0 2.081-.896 2.181-1.992l1.638-18.02c.1-1.095-.719-1.992-1.819-1.992m-13.5 18h-3l-1-14h4v14m6 0h-4v-14h4v14m5 0h-3v-14h4l-1 14"/></svg>